<?xml version="1.0" encoding="utf-8" ?>
<svg baseProfile="full" height="200mm" version="1.1" viewBox="0,0,200,200" width="200mm" xmlns="http://www.w3.org/2000/svg" xmlns:ev="http://www.w3.org/2001/xml-events" xmlns:xlink="http://www.w3.org/1999/xlink"><defs /><rect fill="#1a1a1a" height="200" width="200" x="0" y="0" /><text alignment-baseline="middle" fill="#e1ed5e" style="dominant-baseline: central; font-size:9.0px; font-family:Arial;" text-anchor="middle" x="100.0" y="100.0">2024</text><line stroke="#e1ed5e" stroke-width="0.3" x1="100.0" x2="100.0" y1="15.0" y2="10.0" /><path d="M 100.0 14.0 a86.0,86.0 0 0,1 42.35913384403234,11.155469271406648" fill="none" id="id97" stroke="none" /><text fill="#e1ed5e" style="font-size:6.75px; font-family:Arial;" text-anchor="middle"><textPath startOffset="22.145653131862478" xlink:href="#id97">January</textPath></text><path d="M 100.0 79.0 l 0.0 -33.38165176056338 a54.38165176056338,54.38165176056338 0 0,0 0.9335333667274935,0.008013261191346448 l -0.5730404418786388 33.37673289756647" fill="#6eff28" stroke="none" /><path d="M 102.15924093988457 79.11130261209362 l 1.2985857483531136 -12.562639133290167 a33.62957746478873,33.62957746478873 0 0,0 0.5737271547604144,0.06428732437123118 l -1.5140488047143246 12.538496048411966" fill="#ff970d" stroke="none" /><path d="M 102.51750503828377 79.15144685158666 l 1.1736537572844061 -9.71953674947157 a30.79014084507042,30.79014084507042 0 0,0 0.5241980104389942,0.06786792726110802 l -1.340329589614192 9.697957226010066" fill="#ff710a" stroke="none" /><path d="M 102.87502721639298 79.19773525538626 l 1.0163828610065322 -7.354040071687391 a28.42394366197183,28.42394366197183 0 0,0 0.48276700494509517,0.07095012473207606 l -1.1424749715593094 7.3355088736564324" fill="#ff5007" stroke="none" /><path d="M 103.23170211078529 79.25015418208739 l 3.2408054970128615 -20.808296087822228 a42.05915492957746,42.05915492957746 0 0,0 0.7124470290965262,0.11723288751994307 l -3.597530029162458 20.749597201806615" fill="#fbff18" stroke="none" /><path d="M 104.29559338865022 79.4440306129975 l 6.391963964942189 -30.587861489250923 a52.248591549295774,52.248591549295774 0 0,0 0.8763770296370417,0.19100229465744478 l -6.916103411198365 30.47362773645976" fill="#85ff25" stroke="none" /><path d="M 105.3480935250658 79.69241777938227 l 2.274822879675877 -8.63787300088247 a29.932394366197183,29.932394366197183 0 0,0 0.4957639750057618,0.1351226759522933 l -2.4227682556163317 8.597549830786035" fill="#ff6509" stroke="none" /><path d="M 105.69591212413111 79.78721728523813 l 4.111485864249569 -14.590212875092195 a36.15845070422535,36.15845070422535 0 0,0 0.5959945561457585,0.17348532917630177 l -4.361340432776932 14.517483851613378" fill="#ffb911" stroke="none" /><path d="M 106.04205211174951 79.88797359093562 l 2.284916890147525 -7.6057451983574484 a28.94154929577465,28.94154929577465 0 0,0 0.4745854094860703,0.14702777300168482 l -2.4151429325052254 7.5654008375491175" fill="#ff5708" stroke="none" /><path d="M 107.06938296918511 80.22567764915836 l 2.8377100650954334 -7.937580098577279 a29.429577464788732,29.429577464788732 0 0,0 0.4742518226818957,0.1741518383610165 l -2.9735510394314537 7.887697411207541" fill="#ff5e08" stroke="none" /><path d="M 107.40779381753099 80.34994680014964 l 3.6778131277178505 -9.755836271756696 a31.426056338028168,31.426056338028168 0 0,0 0.5031577057755334,0.1946322096525836 l -3.8447430959869098 9.691264173966074" fill="#ff790b" stroke="none" /><path d="M 107.74402155503746 80.48000691201159 l 3.65932286157052 -9.223884057774802 a30.923239436619717,30.923239436619717 0 0,0 0.49174656454281024,0.19998904682584295 l -3.8171238873037696 9.159707754369665" fill="#ff720a" stroke="none" /><path d="M 108.07796709384702 80.6158196554323 l 8.726479945043195 -20.940375104624543 a43.68591549295775,43.68591549295775 0 0,0 0.6897484422158802,0.2944125950043153 l -9.084663462429505 20.787487859960827" fill="#e7ff1a" stroke="none" /><path d="M 108.4095320186766 80.7573450057729 l 3.4881791260567008 -7.98163647295758 a29.71056338028169,29.71056338028169 0 0,0 0.4655880096218564,0.20825159466345503 l -3.624680538534189 7.920581127384272" fill="#ff6209" stroke="none" /><path d="M 109.06512990194946 81.05736502329252 l 13.41256191830691 -28.02709583525523 a52.07112676056338,52.07112676056338 0 0,0 0.8029857481325787,0.3927805675406228 l -13.891707915701556 27.792721517617387" fill="#86ff25" stroke="none" /><path d="M 109.71004243097381 81.37971332152246 l 1.572753351495758 -3.015961926795657 a24.401408450704224,24.401408450704224 0 0,0 0.36975243236068783,0.19687234384348895 l -1.6242945996430052 2.988519115229595" fill="#ff1602" stroke="none" /><path d="M 110.34350942703115 81.72400993836675 l 11.916888325790822 -21.055999817487336 a45.1943661971831,45.1943661971831 0 0,0 0.6719057874779054,0.3879249872704362 l -12.276586581129125 20.848327932940727" fill="#d5ff1c" stroke="none" /><line stroke="#e1ed5e" stroke-width="0.3" x1="143.13028292997686" x2="145.6673583964461" y1="26.7553504044142" y2="22.446841604673864" /><path d="M 143.63769802327073 25.89364864446614 a86.0,86.0 0 0,1 29.32050498858742,28.57503671076993" fill="none" id="id98" stroke="none" /><text fill="#e1ed5e" style="font-size:6.75px; font-family:Arial;" text-anchor="middle"><textPath startOffset="20.669276256404974" xlink:href="#id98">February</textPath></text><path d="M 110.65571695917076 81.90426304109057 l 4.037166002840751 -6.855990481614982 a28.956338028169014,28.956338028169014 0 0,0 0.426164551169397,0.2558995682751173 l -4.154263310567583 6.785676912803944" fill="#ff5708" stroke="none" /><path d="M 111.5731344415666 82.4767994020092 l 5.313861729508045 -8.045863936542252 a30.64225352112676,30.64225352112676 0 0,0 0.43643865567817886,0.2936554051786266 l -5.451196673283225 7.953458857306507" fill="#ff6f0a" stroke="none" /><path d="M 112.45986205192187 83.09580414077388 l 4.940072067064797 -6.702156527284718 a29.326056338028167,29.326056338028167 0 0,0 0.40267050914785235,0.3021714569968017 l -5.054395565123416 6.616366043023901" fill="#ff5c08" stroke="none" /><path d="M 112.7482090630111 83.31218511350987 l 4.677335860442807 -6.122782785817857 a28.70492957746479,28.70492957746479 0 0,0 0.38900654750917346,0.3024938442282007 l -4.7817523525872065 6.0415878899688655" fill="#ff5407" stroke="none" /><path d="M 113.03279911837588 83.53348406188908 l 4.772574325039055 -6.029991751984281 a28.690140845070424,28.690140845070424 0 0,0 0.38355880669774406,0.3089678239723859 l -4.875383902092059 5.947175634218487" fill="#ff5307" stroke="none" /><path d="M 113.31354834802062 83.75963576809568 l 7.106809611126498 -8.669152174495407 a32.209859154929575,32.209859154929575 0 0,0 0.42459598605309695,0.35421307284503284 l -7.254579931341488 8.545876917738504" fill="#ff840c" stroke="none" /><path d="M 113.86319453409587 84.22622945171908 l 20.609298353152372 -23.449598329169728 a52.21901408450704,52.21901408450704 0 0,0 0.6682416833004653,0.5975458337899723 l -21.008805063276213 23.092356965496368" fill="#85ff25" stroke="none" /><path d="M 114.91283532996326 85.21462403516908 l 22.16971505743128 -21.9802314519423 a52.21901408450704,52.21901408450704 0 0,0 0.6256663416454109,0.6419887847245092 l -22.543768200227504 21.59641997515005" fill="#85ff25" stroke="none" /><path d="M 116.35404254752997 86.82634096563983 l 10.630127655894482 -8.562878372334112 a34.65,34.65 0 0,0 0.3691603894414271,0.4664220925407809 l -10.775554475977467 8.379136335878652" fill="#ffa50f" stroke="none" /><path d="M 116.57777611688842 87.10902102172516 l 7.413301291707143 -5.764627923383473 a30.390845070422536,30.390845070422536 0 0,0 0.3167131595330279,0.41458769245773774 l -7.5111664285944775 5.6365193176848525" fill="#ff6b09" stroke="none" /><path d="M 116.7966241395341 87.39550010848427 l 11.852265766065615 -8.894161191055467 a35.81830985915493,35.81830985915493 0 0,0 0.3648316257520944,0.4949641682752005 l -12.003199411401535 8.689390713511392" fill="#ffb410" stroke="none" /><path d="M 117.21940702142032 87.97951657250589 l 11.774679026619108 -8.219640428237172 a35.35985915492958,35.35985915492958 0 0,0 0.3431762952637732,0.5007044707376856 l -11.914045058698207 8.016301222429439" fill="#ffae10" stroke="none" /><path d="M 117.62189284568427 88.57770195909679 l 14.916560000360912 -9.66873397546878 a38.77605633802817,38.77605633802817 0 0,0 0.35726099475839196,0.5616736232341706 l -15.080338686745193 9.411246677555939" fill="#ffda14" stroke="none" /><line stroke="#e1ed5e" stroke-width="0.3" x1="172.87174338648825" x2="177.1583165268699" y1="56.24261187166439" y2="53.66864786411523" /><path d="M 173.72905801456457 55.72781907015455 a86.0,86.0 0 0,1 12.242430191666344,42.057860355516425" fill="none" id="id99" stroke="none" /><text fill="#e1ed5e" style="font-size:6.75px; font-family:Arial;" text-anchor="middle"><textPath startOffset="22.145653131862474" xlink:href="#id99">March</textPath></text><path d="M 118.53625476483649 90.13048839642627 l 10.495175233048265 -5.588089668502304 a32.89014084507042,32.89014084507042 0 0,0 0.2610724328167065,0.5006408136166168 l -10.589555734839916 5.407102611781189" fill="#ff8d0d" stroke="none" /><path d="M 118.70294669586156 90.45014215332178 l 7.915824622685064 -4.041876454826487 a29.888028169014085,29.888028169014085 0 0,0 0.22939785591484474,0.4589493793613101 l -7.984042391811646 3.9053952193014263" fill="#ff6409" stroke="none" /><path d="M 119.0197475246899 91.09779779509293 l 13.166487194908573 -6.1625808221293354 a35.537323943661974,35.537323943661974 0 0,0 0.25386431757275457,0.5547393491113478 l -13.27033597733638 5.935652490803304" fill="#ffb110" stroke="none" /><path d="M 119.16976305983485 91.42560881287824 l 8.207898549563089 -3.6712886209648095 a29.991549295774647,29.991549295774647 0 0,0 0.2061792163870311,0.47177839612294187 l -8.26971164796709 3.529848155066018" fill="#ff6609" stroke="none" /><path d="M 119.4528033332814 92.08871423366111 l 17.493823842676296 -7.114585861700535 a39.885211267605634,39.885211267605634 0 0,0 0.25249489691293125,0.6364520820950805 l -17.61337741455535 6.8132327623918885" fill="#ffe815" stroke="none" /><path d="M 119.58574465831526 92.42381321644754 l 4.151626156445701 -1.605938184400907 a25.451408450704225,25.451408450704225 0 0,0 0.1541256289826392,0.4088365421027144 l -4.178582469242781 1.534433362104035" fill="#ff2503" stroke="none" /><path d="M 119.94978838288452 93.4421083053983 l 9.93274675119673 -3.2650911465376016 a31.4556338028169,31.4556338028169 0 0,0 0.16422130249420702,0.5144208910833942 l -9.987332769468194 3.0941012217628203" fill="#ff7a0b" stroke="none" /><path d="M 120.05942366710727 93.78553927170692 l 7.077303702268126 -2.192566778080867 a28.409154929577465,28.409154929577465 0 0,0 0.14031914737537457,0.4670768052832537 l -7.113899169647128 2.0707523692068897" fill="#ff4f07" stroke="none" /><path d="M 120.16314734710363 94.1308016681162 l 14.213598939754045 -4.13737150015189 a35.803521126760565,35.803521126760565 0 0,0 0.16671058499115274,0.5915970536836657 l -14.282528016819779 3.892766522565211" fill="#ffb410" stroke="none" /><path d="M 120.35273937422433 94.82641323984039 l 14.375913797427462 -3.6543010707324575 a35.833098591549295,35.833098591549295 0 0,0 0.14642508679649746,0.5974643218130887 l -14.436526410740251 3.4069809243112736" fill="#ffb410" stroke="none" /><path d="M 120.51834098615036 95.52812308129327 l 4.493805666685047 -0.9794040293787283 a25.59929577464789,25.59929577464789 0 0,0 0.08989288912888807,0.43017001607391897 l -4.5099562666383015 0.9021175620194049" fill="#ff2703" stroke="none" /><path d="M 120.592083275326 95.88100663000786 l 13.7908952076303 -2.7585652780721985 a35.06408450704225,35.06408450704225 0 0,0 0.11299602887253941,0.5912429706380361 l -13.836217528784996 2.5214197424008478" fill="#ffaa0f" stroke="none" /><path d="M 120.86939407059847 97.66154086499901 l 4.467813941874601 -0.5006278711551401 a25.495774647887323,25.495774647887323 0 0,0 0.04500320800113218,0.4353652137917086 l -4.475749542357399 0.4238581350805001" fill="#ff2603" stroke="none" /><path d="M 120.98066250479742 99.09900007780936 l 14.789889554438185 -0.6351414944456567 a35.803521126760565,35.803521126760565 0 0,0 0.02109903716945822,0.6142754461199054 l -14.79861327860449 0.3811597837616314" fill="#ffb410" stroke="none" /><path d="M 120.99303781780057 99.45929381324524 l 12.152307807205688 -0.3130003419101509 a33.15633802816902,33.15633802816902 0 0,0 0.009770965039289271,0.5691097284488403 l -12.155890203843644 0.1043436974922442" fill="#ff910d" stroke="none" /><line stroke="#e1ed5e" stroke-width="0.3" x1="184.99686870605535" x2="189.99668451229388" y1="99.2704041080226" y2="99.22748670261217" /><path d="M 185.99683186730306 99.26182062694052 a86.0,86.0 0 0,1 -10.086455211305974,41.156179273409016" fill="none" id="id100" stroke="none" /><text fill="#e1ed5e" style="font-size:6.75px; font-family:Arial;" text-anchor="middle"><textPath startOffset="21.40746469413373" xlink:href="#id100">April</textPath></text><path d="M 120.99922638620191 99.81974689727618 l 12.25940751701506 -0.10523226912538983 a33.25985915492958,33.25985915492958 0 0,0 0.0,0.5709707436984319 l -12.25940751701506 -0.10523226912538834" fill="#ff920d" stroke="none" /><path d="M 120.93736805541906 101.62068470465957 l 7.372312695570093 0.5706636284012571 a28.3943661971831,28.3943661971831 0 0,0 -0.04178890452136456,0.4856504148160126 l -7.361430168350988 -0.697135090592927" fill="#ff4f07" stroke="none" /><path d="M 120.43855184770803 104.8234425847677 l 28.786692743250754 6.793581105306632 a50.5774647887324,50.5774647887324 0 0,0 -0.2066751121931466,0.8433049858030278 l -28.66583010454131 -7.2867419157177595" fill="#97ff23" stroke="none" /><path d="M 120.35273937422433 105.17358676015961 l 14.67690501352515 3.7308118608474925 a36.14366197183099,36.14366197183099 0 0,0 -0.15801754148819663,0.6000183431780767 l -14.610697991232223 -3.9822107083983727" fill="#ffb811" stroke="none" /><path d="M 120.16314734710363 105.8691983318838 l 42.59819862064149 12.399714785669994 a65.36619718309859,65.36619718309859 0 0,0 -0.32285821519996966,1.0746899944570438 l -42.37906408543789 -13.129142383717761" fill="#36ff6a" stroke="none" /><path d="M 119.71291397450082 107.23885506374661 l 7.46869557625454 2.742608467813856 a28.956338028169014,28.956338028169014 0 0,0 -0.175350366965722,0.46513768125340627 l -7.420514525474378 -2.870414429261421" fill="#ff5708" stroke="none" /><path d="M 119.31412917781788 108.2440532568976 l 13.615100920419508 5.811476978982046 a35.803521126760565,35.803521126760565 0 0,0 -0.24613406453304656,0.563202907797662 l -13.513332973869495 -6.044341956555553" fill="#ffb410" stroke="none" /><path d="M 119.16976305983485 108.57439118712176 l 13.513332973869495 6.044341956555553 a35.803521126760565,35.803521126760565 0 0,0 -0.2557659229478234,0.5588947000410128 l -13.407582586066615 -6.275425638811255" fill="#ffb410" stroke="none" /><path d="M 119.0197475246899 108.90220220490707 l 34.78470726874625 16.28099938460822 a59.40633802816902,59.40633802816902 0 0,0 -0.4402313526584744,0.9199142107073798 l -34.500096658127866 -16.875726097380703" fill="#3aff2e" stroke="none" /><line stroke="#e1ed5e" stroke-width="0.3" x1="174.33088141563837" x2="178.70328620479359" y1="141.23008692659167" y2="143.65538615756765" /><path d="M 175.20536237346943 141.71514677278685 a86.0,86.0 0 0,1 -30.301960400862466,31.631185727798858" fill="none" id="id101" stroke="none" /><text fill="#e1ed5e" style="font-size:6.75px; font-family:Arial;" text-anchor="middle"><textPath startOffset="22.145653131862474" xlink:href="#id101">May</textPath></text><path d="M 118.36410011445183 110.18625677009912 l 13.786007550708208 7.646865997834971 a36.764788732394365,36.764788732394365 0 0,0 -0.31086665813862924,0.5492715982630851 l -13.6527075275482 -7.882394366197179" fill="#ffc111" stroke="none" /><path d="M 117.81537515405839 111.11811171558189 l 35.15400083216309 21.938696497929893 a62.43802816901408,62.43802816901408 0 0,0 -0.5752692295461216,0.9044187785258078 l -34.77221391099108 -22.538928951134373" fill="#32ff47" stroke="none" /><path d="M 116.1254893667686 113.45245675266167 l 48.37646810030581 40.35737025798503 a84.0,84.0 0 0,0 -0.933221745971542,1.0993328702017733 l -47.67655179082715 -41.181869910636365" fill="#4dd2ff" stroke="none" /><path d="M 114.91283532996324 114.78537596483092 l 7.424911674847899 7.361451272630607 a31.4556338028169,31.4556338028169 0 0,0 -0.38347125766448226,0.3801937452419975 l -7.297448497053453 -7.487825028101266" fill="#ff7a0b" stroke="none" /><path d="M 114.65682725009322 115.03919595460226 l 11.013263856232012 11.300578932084935 a36.77957746478873,36.77957746478873 0 0,0 -0.455939808206316,0.43678002248593106 l -10.817651562160384 -11.487971084876447" fill="#ffc111" stroke="none" /><path d="M 114.13192950727249 115.5334660781643 l 11.942475639948588 13.126872742110677 a38.74647887323944,38.74647887323944 0 0,0 -0.49583495050897886,0.4433786702151593 l -11.715375662616232 -13.329946942209224" fill="#ffda14" stroke="none" /><path d="M 113.86319453409587 115.77377054828091 l 4.891169339142276 5.56525284837235 a28.409154929577465,28.409154929577465 0 0,0 -0.36907621082785524,0.31879924051780095 l -4.794913648551565 -5.648396221354869" fill="#ff4f07" stroke="none" /><path d="M 113.59037401385872 116.0094264158162 l 4.794913648551565 5.648396221354869 a28.409154929577465,28.409154929577465 0 0,0 -0.3744944394894364,0.3124165807783784 l -4.697244874900234 -5.729874986045117" fill="#ff4f07" stroke="none" /><path d="M 113.31354834802062 116.24036423190432 l 9.385114011527214 11.448313095870585 a35.803521126760565,35.803521126760565 0 0,0 -0.47865766547178423,0.3855727329057535 l -9.187205575700178 -11.607734122569742" fill="#ffb410" stroke="none" /><path d="M 112.16784306229584 117.11559508785304 l 8.62288765745655 12.129171364018667 a35.8819014084507,35.8819014084507 0 0,0 -0.5050888663979647,0.35259125592396645 l -8.413403699884826 -12.275407435747756" fill="#ffb510" stroke="none" /><path d="M 111.5731344415666 117.5232005979908 l 8.15009467715958 12.340282111261123 a35.7887323943662,35.7887323943662 0 0,0 -0.5155526548859414,0.33417500216660206 l -7.937056390016629 -12.47837095513162" fill="#ffb410" stroke="none" /><path d="M 110.96478420261333 117.91015095944535 l 7.729400694940803 12.625395148172393 a35.803521126760565,35.803521126760565 0 0,0 -0.5269378847707367,0.31641105964966865 l -7.5115300536126295 -12.756220208357984" fill="#ffb410" stroke="none" /><line stroke="#e1ed5e" stroke-width="0.3" x1="143.1302829299769" x2="145.66735839644613" y1="173.24464959558577" y2="177.55315839532614" /><path d="M 143.63769802327073 174.10635135553383 a86.0,86.0 0 0,1 -40.68552437913181,11.842963189579606" fill="none" id="id102" stroke="none" /><text fill="#e1ed5e" style="font-size:6.75px; font-family:Arial;" text-anchor="middle"><textPath startOffset="21.407464694133747" xlink:href="#id102">June</textPath></text><path d="M 110.65571695917076 118.09573695890943 l 7.894235381019467 13.40613752167093 a36.55774647887324,36.55774647887324 0 0,0 -0.5435049432740104,0.3137927253051434 l -7.662937969885058 -13.539677144252245" fill="#ffbe11" stroke="none" /><path d="M 110.34350942703117 118.27599006163325 l 15.369580909180103 27.156576781722652 a52.20422535211267,52.20422535211267 0 0,0 -0.783699306907737,0.4347047947331005 l -14.901137414116272 -27.416414491888897" fill="#85ff25" stroke="none" /><path d="M 109.3889696526874 118.78422872680471 l 6.618562410098647 13.24155841938839 a35.803521126760565,35.803521126760565 0 0,0 -0.5521239693919225,0.2700715007145225 l -6.390278191444655 -13.353223670200135" fill="#ffb410" stroke="none" /><path d="M 108.4095320186766 119.2426549942271 l 5.928127852602303 13.564716654381217 a35.803521126760565,35.803521126760565 0 0,0 -0.5652948471918212,0.24129075575674871 l -5.694397930240052 -13.66448205979737" fill="#ffb410" stroke="none" /><path d="M 107.74402155503746 119.51999308798841 l 5.4589898426707775 13.760220479631263 a35.803521126760565,35.803521126760565 0 0,0 -0.5732446144388489,0.22174333156183365 l -5.2219729657383995 -13.851903699331139" fill="#ffb410" stroke="none" /><path d="M 107.407793817531 119.65005319985036 l 5.2219729657383995 13.851903699331139 a35.803521126760565,35.803521126760565 0 0,0 -0.5769666646798299,0.21187015109146784 l -4.983417149404442 -13.939504699431328" fill="#ffb410" stroke="none" /><path d="M 107.06938296918513 119.77432235084164 l 7.477614943462009 20.916219838707143 a43.212676056338026,43.212676056338026 0 0,0 -0.7006507986510184,0.24372271833421033 l -7.117458372765968 -21.041500989609943" fill="#edff1a" stroke="none" /><path d="M 106.0420521117495 120.11202640906438 l 3.14016511159939 10.452588373161634 a31.914084507042254,31.914084507042254 0 0,0 -0.5260352769580934,0.15312120260222928 l -2.9602698222596895 -10.50495327006638" fill="#ff800b" stroke="none" /><path d="M 105.69591212413111 120.21278271476187 l 4.0312617498251875 14.305525794602595 a35.86267605633803,35.86267605633803 0 0,0 -0.5939859878403975,0.16189352232426446 l -3.785094361050095 -14.372619811071" fill="#ffb510" stroke="none" /><path d="M 104.9986988182912 120.39639698878246 l 4.139767472049616 16.891663985076182 a38.39154929577465,38.39154929577465 0 0,0 -0.6414457245713197,0.15137944443267573 l -3.8491895937384175 -16.960239573155082" fill="#ffd614" stroke="none" /><path d="M 104.64783097203109 120.47920084513623 l 3.371314014923953 14.854631598936846 a36.232394366197184,36.232394366197184 0 0,0 -0.6077338586500826,0.13245276589604862 l -3.115817739654735 -14.910315822966613" fill="#ffba11" stroke="none" /><path d="M 104.29559338865022 120.5559693870025 l 3.0885921477548384 14.780031509950398 a36.099295774647885,36.099295774647885 0 0,0 -0.607677520295021,0.12155252306053177 l -2.8344181419288588 -14.83087342967379" fill="#ffb811" stroke="none" /><path d="M 103.2317021107853 120.74984581791261 l 3.4706659992588658 22.284165403039957 a43.55281690140845,43.55281690140845 0 0,0 -0.7397236366094128,0.10871390079914879 l -3.0876172570417677 -22.340460377137987" fill="#e8ff1a" stroke="none" /><path d="M 102.51750503828377 120.84855314841334 l 1.7959384533672218 14.872946717846983 a35.98098591549296,35.98098591549296 0 0,0 -0.6138426418346868,0.06878234837080276 l -1.5403599099317355 -14.901584826724756" fill="#ffb610" stroke="none" /><path d="M 101.08105385017728 120.97215588758144 l 1.8484498226974924 35.859432742991366 a56.907042253521126,56.907042253521126 0 0,0 -0.9760214600056393,0.04191456105450888 l -1.2326026020910235 -35.885879872471705" fill="#53ff2b" stroke="none" /><line stroke="#e1ed5e" stroke-width="0.3" x1="101.45913802915013" x2="101.54496967792366" y1="184.9874750549273" y2="189.98673829345242" /><path d="M 101.47630435890484 185.9873277026323 a86.0,86.0 0 0,1 -42.54439059252881,-10.42667462771756" fill="none" id="id103" stroke="none" /><text fill="#e1ed5e" style="font-size:6.75px; font-family:Arial;" text-anchor="middle"><textPath startOffset="22.145653131862474" xlink:href="#id103">July</textPath></text><path d="M 100.0 121.0 l 2.0664621094626576e-15 16.873943661971836 a37.873943661971836,37.873943661971836 0 0,0 -0.650156606012613,-0.005580812518273104 l 0.28966368116375885 -16.871457247648" fill="#ffcf13" stroke="none" /><path d="M 99.63950707515114 120.99690560180557 l -0.2541221251927454 14.801339793948854 a35.803521126760565,35.803521126760565 0 0,0 -0.6144339201653021,-0.01582563823629237 l 0.5081693594287915 -14.794796438362514" fill="#ffb410" stroke="none" /><path d="M 99.27912038922189 120.98762331915562 l -0.5081693594287915 14.794796438362514 a35.803521126760565,35.803521126760565 0 0,0 -0.6140717137925137,-0.026370881578217594 l 0.7620668338221439 -14.783892988358469" fill="#ffb410" stroke="none" /><path d="M 98.55909050195518 120.95050786540614 l -1.0502403735749222 15.270264535700951 a36.306338028169016,36.306338028169016 0 0,0 -0.6214106463568981,-0.048101114103622035 l 1.3122200147070564 -15.249985654602275" fill="#ffbb11" stroke="none" /><path d="M 97.84075906011543 120.88869738790638 l -1.523633395608689 14.739770973719848 a35.81830985915493,35.81830985915493 0 0,0 -0.6110673565653972,-0.06847137186768773 l 1.7764366537748855 -14.711443841345188" fill="#ffb410" stroke="none" /><path d="M 97.48249496171623 120.84855314841334 l -2.3632635324170885 19.571212216080976 a40.71338028169014,40.71338028169014 0 0,0 -0.6931398284046789,-0.08974082792979365 l 2.6988811827125616 -19.527759791950785" fill="#fff316" stroke="none" /><path d="M 96.05791012581884 120.62667999033965 l -2.778895749334755 14.540356810091547 a35.803521126760565,35.803521126760565 0 0,0 -0.6026985975560215,-0.12055659906986786 l 3.0280908324217344 -14.490510814358817" fill="#ffb410" stroke="none" /><path d="M 95.70440661134978 120.55596938700252 l -1.5821093959606065 7.570966189719942 a28.734507042253522,28.734507042253522 0 0,0 -0.4819701581049422,-0.1050431527085806 l 1.7118419706846852 -7.542691578877642" fill="#ff5407" stroke="none" /><path d="M 95.35216902796893 120.47920084513623 l -1.6398333218222316 7.225408185502292 a28.409154929577465,28.409154929577465 0 0,0 -0.47465995258146154,-0.112018456377181 l 1.763625428143581 -7.196193585478883" fill="#ff4f07" stroke="none" /><path d="M 94.6519064749342 120.30758222061772 l -3.7700293088668135 14.315415354111511 a35.803521126760565,35.803521126760565 0 0,0 -0.5930062171388051,-0.16162648146269468 l 4.0152169269403135 -14.248588378504671" fill="#ffb410" stroke="none" /><path d="M 94.30408787586889 120.21278271476187 l -2.0056028606095477 7.117177012240096 a28.3943661971831,28.3943661971831 0 0,0 -0.4680202649488134,-0.13623387812617563 l 2.1274831379399677 -7.081699439811405" fill="#ff4f07" stroke="none" /><path d="M 93.61358852112213 120.00534299687104 l -4.497472872449207 14.088269716106366 a35.7887323943662,35.7887323943662 0 0,0 -0.5836584330228596,-0.19186011986416046 l 4.73865404311981 -14.008988674840182" fill="#ffb410" stroke="none" /><path d="M 93.27111125876986 119.89276391827306 l -3.2981032140113875 9.750256117688766 a31.292957746478873,31.292957746478873 0 0,0 -0.5073843565864323,-0.17649461738370606 l 3.464993342642842 -9.692203067736468" fill="#ff780b" stroke="none" /><path d="M 92.93061703081489 119.77432235084164 l -0.9956877421387478 2.7851158240622045 a23.95774647887324,23.95774647887324 0 0,0 -0.38607434811290664,-0.141771848313996 l 1.0433512419057733 -2.7676131267394886" fill="#ff0f01" stroke="none" /><path d="M 91.26138138417905 119.09545874513695 l -4.941627287679032 10.798347445313363 a32.875352112676055,32.875352112676055 0 0,0 -0.5111511190589281,-0.2392445332526193 l 5.12626712060945 -10.711926680490217" fill="#ff8d0d" stroke="none" /><path d="M 90.6110303473126 118.78422872680471 l -17.44893726298735 34.9095631056603 a60.027464788732395,60.027464788732395 0 0,0 -0.9177707092004009,-0.4686202634929279 l 18.045635193901333 -34.60488489049453" fill="#34ff2f" stroke="none" /><line stroke="#e1ed5e" stroke-width="0.3" x1="58.13341422392154" x2="55.67067388415222" y1="173.97424548756322" y2="178.32567169271397" /><path d="M 57.64086615596768 174.84453072859336 a86.0,86.0 0 0,1 -31.369924170532247,-30.572349798747897" fill="none" id="id104" stroke="none" /><text fill="#e1ed5e" style="font-size:6.75px; font-family:Arial;" text-anchor="middle"><textPath startOffset="22.145653131862474" xlink:href="#id104">August</textPath></text><path d="M 88.72937992617639 117.7192867562869 l -1.0318173307021605 1.6221882241671095 a22.922535211267604,22.922535211267604 0 0,0 -0.33020934507157396,-0.21403770799926988 l 1.0595123080307443 -1.604236674463945" fill="#ff0000" stroke="none" /><path d="M 88.1277618465304 117.32195027204791 l -8.41089548055663 12.271747868788879 a35.8774647887324,35.8774647887324 0 0,0 -0.5050264146566515,-0.3525476597582796 l 8.620316986387046 -12.125555393225468" fill="#ffb510" stroke="none" /><path d="M 87.2517909369889 116.68781488649013 l -4.515738844151119 5.9112471041581225 a28.4387323943662,28.4387323943662 0 0,0 -0.3853990679341239,-0.2996886462909963 l 4.61654785672047 -5.832857406246333" fill="#ff5007" stroke="none" /><line stroke="#e1ed5e" stroke-width="0.3" x1="26.387840678322732" x2="22.057713659400548" y1="142.50000000000003" y2="145.00000000000006" /><path d="M 25.521815274538298 143.00000000000003 a86.0,86.0 0 0,1 -11.493303480769221,-40.785679425670985" fill="none" id="id105" stroke="none" /><text fill="#e1ed5e" style="font-size:6.75px; font-family:Arial;" text-anchor="middle"><textPath startOffset="21.40746469413373" xlink:href="#id105">September</textPath></text><line stroke="#e1ed5e" stroke-width="0.3" x1="15.003131293944662" x2="10.003315487706104" y1="100.72959589197737" y2="100.7725132973878" /><path d="M 14.003168132696942 100.73817937305945 a86.0,86.0 0 0,1 10.791469493833604,-42.45332614584628" fill="none" id="id106" stroke="none" /><text fill="#e1ed5e" style="font-size:6.75px; font-family:Arial;" text-anchor="middle"><textPath startOffset="22.145653131862435" xlink:href="#id106">October</textPath></text><line stroke="#e1ed5e" stroke-width="0.3" x1="26.387840678322718" x2="22.05771365940052" y1="57.49999999999999" y2="54.99999999999999" /><path d="M 25.521815274538284 56.99999999999999 a86.0,86.0 0 0,1 29.574782752854787,-30.34633250058573" fill="none" id="id107" stroke="none" /><text fill="#e1ed5e" style="font-size:6.75px; font-family:Arial;" text-anchor="middle"><textPath startOffset="21.40746469413373" xlink:href="#id107">November</textPath></text><line stroke="#e1ed5e" stroke-width="0.3" x1="56.869717070023135" x2="54.33264160355391" y1="26.7553504044142" y2="22.446841604673864" /><path d="M 56.362301976729285 25.89364864446614 a86.0,86.0 0 0,1 42.16139366436587,-11.88097634709845" fill="none" id="id108" stroke="none" /><text fill="#e1ed5e" style="font-size:6.75px; font-family:Arial;" text-anchor="middle"><textPath startOffset="22.145653131862474" xlink:href="#id108">December</textPath></text></svg>