<?xml version="1.0" encoding="utf-8" ?>
<svg baseProfile="full" height="200mm" version="1.1" viewBox="0,0,200,200" width="200mm" xmlns="http://www.w3.org/2000/svg" xmlns:ev="http://www.w3.org/2001/xml-events" xmlns:xlink="http://www.w3.org/1999/xlink"><defs /><rect fill="#1a1a1a" height="200" width="200" x="0" y="0" /><text alignment-baseline="middle" fill="#e1ed5e" style="dominant-baseline: central; font-size:9.0px; font-family:Arial;" text-anchor="middle" x="100.0" y="100.0">2022</text><line stroke="#e1ed5e" stroke-width="0.3" x1="100.0" x2="100.0" y1="15.0" y2="10.0" /><path d="M 100.0 14.0 a86.0,86.0 0 0,1 42.46469731375804,11.215312516191453" fill="none" id="id73" stroke="none" /><text fill="#e1ed5e" style="font-size:6.75px; font-family:Arial;" text-anchor="middle"><textPath startOffset="22.20632615414155" xlink:href="#id73">January</textPath></text><line stroke="#e1ed5e" stroke-width="0.3" x1="143.23703022742887" x2="145.7803849466894" y1="26.81831364943548" y2="22.513508569990506" /><path d="M 143.74570117128098 25.957352633546492 a86.0,86.0 0 0,1 28.547481713284135,27.462654790039103" fill="none" id="id74" stroke="none" /><text fill="#e1ed5e" style="font-size:6.75px; font-family:Arial;" text-anchor="middle"><textPath startOffset="19.985693538727396" xlink:href="#id74">February</textPath></text><line stroke="#e1ed5e" stroke-width="0.3" x1="172.23445277983987" x2="176.4835382374775" y1="55.19839476539836" y2="52.563006222186495" /><path d="M 173.08426987136738 54.67131705675599 a86.0,86.0 0 0,1 12.851231095245387,41.99856678651699" fill="none" id="id75" stroke="none" /><text fill="#e1ed5e" style="font-size:6.75px; font-family:Arial;" text-anchor="middle"><textPath startOffset="22.20632615414155" xlink:href="#id75">March</textPath></text><line stroke="#e1ed5e" stroke-width="0.3" x1="184.98032266829074" x2="189.97916517819016" y1="98.17113171792111" y2="98.06355123074" /><path d="M 185.9800911702706 98.14961562048488 a86.0,86.0 0 0,1 -9.607161424134198,41.387399972396054" fill="none" id="id76" stroke="none" /><text fill="#e1ed5e" style="font-size:6.75px; font-family:Arial;" text-anchor="middle"><textPath startOffset="21.466115282336823" xlink:href="#id76">April</textPath></text><line stroke="#e1ed5e" stroke-width="0.3" x1="174.80103733775053" x2="179.2010983576182" y1="140.37084112569926" y2="142.7455964860345" /><path d="M 175.68104954172406 140.8457921977663 a86.0,86.0 0 0,1 -30.038265399797805,32.042727171017184" fill="none" id="id77" stroke="none" /><text fill="#e1ed5e" style="font-size:6.75px; font-family:Arial;" text-anchor="middle"><textPath startOffset="22.206326154141568" xlink:href="#id77">May</textPath></text><path d="M 117.94076556474637 110.91462005526583 l 9.823108831997853 5.976082808498498 a32.498131711687144,32.498131711687144 0 0,0 -0.2948592017049672,0.47540691836213494 l -9.718784990624922 -6.144286058225907" fill="red" stroke="none" /><line stroke="#e1ed5e" stroke-width="0.3" x1="143.8653032363475" x2="146.44561519142675" y1="172.8068346515853" y2="177.08958963109032" /><path d="M 144.38136562736335 173.6633856474863 a86.0,86.0 0 0,1 -40.68145358897372,12.25698825130547" fill="none" id="id78" stroke="none" /><text fill="#e1ed5e" style="font-size:6.75px; font-family:Arial;" text-anchor="middle"><textPath startOffset="21.466115282336833" xlink:href="#id78">June</textPath></text><path d="M 105.18746579009965 120.34920634021253 l 5.021457982430561 19.697996815362856 a41.32796396118807,41.32796396118807 0 0,0 -0.6908593331821914,0.16979641557211547 l -4.681645364505158 -19.781514489249002" fill="red" stroke="none" /><path d="M 104.83641907484287 120.43548508189849 l 2.8886064333841652 12.205326454018257 a33.54248942499639,33.54248942499639 0 0,0 -0.5630024600721063,0.1281375269337709 l -2.678083823919197 -12.253240714529712" fill="red" stroke="none" /><line stroke="#e1ed5e" stroke-width="0.3" x1="102.19456741930631" x2="102.32365962044197" y1="184.97166512339345" y2="189.96999836594603" /><path d="M 102.22038585953345 185.97133177190398 a86.0,86.0 0 0,1 -42.740103519485714,-10.115201625700543" fill="none" id="id79" stroke="none" /><text fill="#e1ed5e" style="font-size:6.75px; font-family:Arial;" text-anchor="middle"><textPath startOffset="22.20632615414155" xlink:href="#id79">July</textPath></text><path d="M 97.65516085044442 120.86867818915974 l -0.8404603297752029 7.479957060661495 a28.527026716789678,28.527026716789678 0 0,0 -0.4875032185969608,-0.05902985061980716 l 0.969090971423553 -7.46438168131634" fill="red" stroke="none" /><path d="M 92.06813273071674 119.44442032107085 l -1.7582054309057304 4.31011819142679 a25.654933421793974,25.654933421793974 0 0,0 -0.4074596428981295,-0.17031816377737424 l 1.8321365333013222 -4.279214984629443" fill="red" stroke="none" /><path d="M 91.7346041902142 119.30500536409082 l -1.7320388336473564 4.045422596070734 a25.40061387786547,25.40061387786547 0 0,0 -0.4004580050458506,-0.1755490210361496 l 1.8014175133509502 -4.015009021740132" fill="red" stroke="none" /><line stroke="#e1ed5e" stroke-width="0.3" x1="58.666819895761336" x2="56.23545636021788" y1="174.27360380694188" y2="178.64263932499728" /><path d="M 58.180547188652646 175.14741091055294 a86.0,86.0 0 0,1 -31.652253787137756,-30.449443065178592" fill="none" id="id80" stroke="none" /><text fill="#e1ed5e" style="font-size:6.75px; font-family:Arial;" text-anchor="middle"><textPath startOffset="22.20632615414155" xlink:href="#id80">August</textPath></text><path d="M 87.95078237400918 117.19931262002967 l -12.642572116213904 18.046279592377477 a43.03412891039555,43.03412891039555 0 0,0 -0.6030365765789317,-0.43025058577491054 l 12.951336020641723 -17.825984744758347" fill="red" stroke="none" /><path d="M 87.65650970185807 116.9893568818739 l -13.74657185637796 18.92053297157649 a44.38706492339463,44.38706492339463 0 0,0 -0.6142641993212113,-0.4544179696748531 l 14.070221026117736 -18.68110505316187" fill="red" stroke="none" /><path d="M 87.36589467227662 116.77436683061367 l -13.103992478758272 17.398238425474887 a42.78103117836766,42.78103117836766 0 0,0 -0.5844118481189581,-0.4481020845379854 l 13.401533055370717 -17.170096999109532" fill="red" stroke="none" /><line stroke="#e1ed5e" stroke-width="0.3" x1="26.63291911575756" x2="22.317208475507996" y1="142.92168965132927" y2="145.44649492493687" /><path d="M 25.769776987707644 143.4266507060508 a86.0,86.0 0 0,1 -11.730757126820373,-40.83630448921669" fill="none" id="id81" stroke="none" /><text fill="#e1ed5e" style="font-size:6.75px; font-family:Arial;" text-anchor="middle"><textPath startOffset="21.46611528233685" xlink:href="#id81">September</textPath></text><path d="M 80.20201598880116 107.00284435728193 l -20.972996625883667 7.418463970563074 a43.246352401053755,43.246352401053755 0 0,0 -0.24219845574401186,-0.7039420829761858 l 21.097585912570906 -7.056349184497591" fill="red" stroke="none" /><line stroke="#e1ed5e" stroke-width="0.3" x1="15.007084014347285" x2="10.007500721073583" y1="101.09737516637583" y2="101.16192664675087" /><path d="M 14.007167355692545 101.11028546245083 a86.0,86.0 0 0,1 10.666146001902534,-42.60595125391555" fill="none" id="id82" stroke="none" /><text fill="#e1ed5e" style="font-size:6.75px; font-family:Arial;" text-anchor="middle"><textPath startOffset="22.20632615414155" xlink:href="#id82">October</textPath></text><line stroke="#e1ed5e" stroke-width="0.3" x1="26.266209847984243" x2="21.928928074336255" y1="57.711370442889674" y2="55.22380399835377" /><path d="M 25.398753493254645 57.213857153982495 a86.0,86.0 0 0,1 29.58750427330803,-30.492523968695096" fill="none" id="id83" stroke="none" /><text fill="#e1ed5e" style="font-size:6.75px; font-family:Arial;" text-anchor="middle"><textPath startOffset="21.46611528233685" xlink:href="#id83">November</textPath></text><path d="M 86.37877921826538 84.01681056812374 l -3.849108166230697 -4.51655735931861 a26.934216380901436,26.934216380901436 0 0,0 0.35545786037520477,-0.2976857356434211 l 3.770792768896382 4.582144252355843" fill="red" stroke="none" /><path d="M 86.65592168130627 83.78471172551755 l -3.0329793973068595 -3.6855775335940266 a25.77309603723002,25.77309603723002 0 0,0 0.34498712878743326,-0.2789555992327755 l 2.9690888699549256 3.7372392300909363" fill="red" stroke="none" /><path d="M 86.93701828274178 83.55741782278169 l -13.28025751848029 -16.716070672727326 a42.3492917562332,42.3492917562332 0 0,0 0.5746747363134178,-0.448542747032244 l 12.990550227007448 16.94219180898279" fill="red" stroke="none" /><path d="M 87.51073957382395 83.11751280151077 l -12.348172274526233 -16.6917698274995 a41.762768083653995,41.762768083653995 0 0,0 0.581605577528353,-0.4225611865994687 l 12.059021380644097 16.901850248915636" fill="red" stroke="none" /><path d="M 88.09926311788651 82.69761687909137 l -15.450082691215918 -22.462747695473972 a48.26316359478355,48.26316359478355 0 0,0 0.6885436783850645,-0.46490776523835387 l 15.061134318424315 22.725367373010993" fill="red" stroke="none" /><path d="M 89.00827224532344 82.1063720568725 l -15.422533718306394 -25.10661530697945 a50.465177387298255,50.465177387298255 0 0,0 0.7440920597220403,-0.4483071402796528 l 14.988079592366704 25.36836905671772" fill="red" stroke="none" /><line stroke="#e1ed5e" stroke-width="0.3" x1="56.762969772571076" x2="54.21961505331055" y1="26.818313649435495" y2="22.513508569990535" /><path d="M 56.25429882871897 25.957352633546506 a86.0,86.0 0 0,1 42.265352541879196,-11.944610805530505" fill="none" id="id84" stroke="none" /><text fill="#e1ed5e" style="font-size:6.75px; font-family:Arial;" text-anchor="middle"><textPath startOffset="22.20632615414155" xlink:href="#id84">December</textPath></text><path d="M 89.3179101791058 81.91981866633112 l -15.933041027543686 -26.967782129233306 a52.32288411617272,52.32288411617272 0 0,0 0.7793699580179632,-0.4514613845339444 l 15.466474337060403 27.238047671157297" fill="red" stroke="none" /><path d="M 89.63071344664047 81.73862282372117 l -13.265036790846615 -23.361090355477074 a47.86450713598294,47.86450713598294 0 0,0 0.7199640377474374,-0.4006592075179271 l 12.86094866402713 23.585964960555188" fill="red" stroke="none" /><path d="M 90.26544431104013 81.39251694778311 l -16.785491456345408 -32.08525974650326 a57.21072515749481,57.21072515749481 0 0,0 0.8765214674697918,-0.44898833991652604 l 16.230709501286853 32.369440611732294" fill="red" stroke="none" /><path d="M 91.23893434514133 80.91482961587045 l -17.926204881837705 -39.050577633892466 a63.96855169779736,63.96855169779736 0 0,0 1.0046653431293404,-0.4507640541703041 l 17.25135742024159 39.3533620185793" fill="red" stroke="none" /><path d="M 91.56875222667455 80.76684994638697 l -13.510102643459767 -30.81890585678862 a54.6500792219932,54.6500792219932 0 0,0 0.8648147125483208,-0.3702685270750631 l 12.977604173121138 31.04689391182647" fill="red" stroke="none" /><path d="M 91.90106846888425 80.62456947434976 l -8.564950315190245 -20.490307783198716 a43.20835624155672,43.20835624155672 0 0,0 0.6886920858390768,-0.28093479384221265 l 8.210974359762787 20.634703463224508" fill="red" stroke="none" /><path d="M 92.23578459929587 80.48803036053334 l -14.862399291080752 -37.35015951655576 a61.19857371349982,61.19857371349982 0 0,0 0.9821404580694149,-0.381055239263429 l 14.217275668011661 37.600457459709745" fill="red" stroke="none" /><path d="M 94.98787191387505 79.60689891045804 l -15.036384258374849 -61.17930326862588 a84.0,84.0 0 0,0 1.407105252149864,-0.3330163514365161 l 13.98105531926245 61.42906553220327" fill="red" stroke="none" /><path d="M 95.33964822691252 79.52364482259891 l -4.863169342948598 -21.367482027669347 a42.91391576740605,42.91391576740605 0 0,0 0.7216838851582088,-0.1577321448140304 l 4.494642733636868 21.448027670579243" fill="red" stroke="none" /><path d="M 95.692805502759 79.44645832069477 l -7.809470980935346 -37.266087566464954 a59.075571164639214,59.075571164639214 0 0,0 0.9970650857458466,-0.20000187629928842 l 7.166839485722364 37.39499339884146" fill="red" stroke="none" /><path d="M 96.04723909329186 79.375362276772 l -5.666983583510489 -29.56907492052726 a51.107223295938994,51.107223295938994 0 0,0 0.8654275214723703,-0.1581513478755732 l 5.157160940935226 29.662241749753573" fill="red" stroke="none" /><path d="M 96.40284397218896 79.31037775812273 l -3.297639793121998 -18.96690637881348 a40.25144061590865,40.25144061590865 0 0,0 0.6836434894537923,-0.11280703344332886 l 2.9706670975293203 19.020859675196437" fill="red" stroke="none" /><path d="M 96.75951476605007 79.25152402106235 l -3.220092223240176 -20.617901740111822 a41.867842871055885,41.867842871055885 0 0,0 0.7130113968204211,-0.105079345504119 l 2.864711845991106 20.67027556977691" fill="red" stroke="none" /><path d="M 98.91598698831166 79.02799685794201 l -1.2519375878587586 -24.220778480639762 a45.253112334958495,45.253112334958495 0 0,0 0.7782655420326676,-0.03351375136498644 l 0.8348312134367669 24.238739958528942" fill="red" stroke="none" /></svg>