<?xml version="1.0" encoding="utf-8" ?>
<svg baseProfile="full" height="200mm" version="1.1" viewBox="0,0,200,200" width="200mm" xmlns="http://www.w3.org/2000/svg" xmlns:ev="http://www.w3.org/2001/xml-events" xmlns:xlink="http://www.w3.org/1999/xlink"><defs /><rect fill="#1a1a1a" height="200" width="200" x="0" y="0" /><text alignment-baseline="middle" fill="#e1ed5e" style="dominant-baseline: central; font-size:9.0px; font-family:Arial;" text-anchor="middle" x="100.0" y="100.0">2023</text><line stroke="#e1ed5e" stroke-width="0.3" x1="100.0" x2="100.0" y1="15.0" y2="10.0" /><path d="M 100.0 14.0 a86.0,86.0 0 0,1 42.46469731375804,11.215312516191453" fill="none" id="id13" stroke="none" /><text fill="#e1ed5e" style="font-size:6.75px; font-family:Arial;" text-anchor="middle"><textPath startOffset="22.20632615414155" xlink:href="#id13">January</textPath></text><path d="M 106.74666289553966 80.11325718540242 l 3.5206479852610975 -10.377607731061577 a31.958544814705647,31.958544814705647 0 0,0 0.5194298318671138,0.18121886906632959 l -3.698759821191485 10.31546800882304" fill="#ff7d0b" stroke="none" /><path d="M 107.08798089147638 80.2323363322302 l 2.03495956546759 -5.67529694049378 a27.02910074520787,27.02910074520787 0 0,0 0.43660708053562547,0.16080607243999548 l -2.1323489717757917 5.639427600247459" fill="#ff3805" stroke="none" /><path d="M 107.4271985657038 80.35727306442388 l 5.527476341640186 -14.618527761335924 a36.62863873203105,36.62863873203105 0 0,0 0.5878318045637959,0.22806960765573192 l -5.778291311203649 14.521215449789645" fill="#ffbc11" stroke="none" /><path d="M 107.76421540070413 80.48803036053334 l 2.226070444949143 -5.594257332585414 a27.020889031452228,27.020889031452228 0 0,0 0.4306822579471083,0.17568610680411093 l -2.3220365724846386 5.555110339597724" fill="#ff3805" stroke="none" /><path d="M 108.09893153111575 80.62456947434976 l 3.2475510591668586 -7.769259399668091 a29.42068759076281,29.42068759076281 0 0,0 0.4655701115898762,0.19933282467014263 l -3.38080492854705 7.712207047035158" fill="#ff5a08" stroke="none" /><path d="M 108.43124777332544 80.76684994638697 l 3.866393796505049 -8.81992014157237 a30.63016055387275,30.63016055387275 0 0,0 0.4810654602333668,0.2158400492851272 l -4.017641375205196 8.75205976177071" fill="#ff6b09" stroke="none" /><path d="M 108.76106565485865 80.91482961587045 l 3.8211981231538927 -8.324126324913921 a30.159292230817826,30.159292230817826 0 0,0 0.46994178808125464,0.22064397073556768 l -3.9639181225347455 8.257117371538351" fill="#ff6509" stroke="none" /><path d="M 109.08828744355905 81.06846463323043 l 4.611366694224238 -9.60579781427576 a31.655329860560187,31.655329860560187 0 0,0 0.4891935281911639,0.24004513973923708 l -4.776031489425834 9.524997514401692" fill="#ff790b" stroke="none" /><path d="M 109.41281617654863 81.2277094730956 l 8.041109223091876 -16.0366499954108 a38.93972075069739,38.93972075069739 0 0,0 0.5965927032266378,0.30559795437899323 l -8.31596241390727 15.895859515719309" fill="#ffda14" stroke="none" /><path d="M 109.73455568895987 81.39251694778311 l 2.4335702252323728 -4.651739449572091 a26.24985180246479,26.24985180246479 0 0,0 0.398566441672078,0.21290038991123944 l -2.513281713432762 4.609160333159097" fill="#ff2d04" stroke="none" /><path d="M 110.05341064243156 81.56283822128135 l 5.222572077158653 -9.577785063428372 a31.909134971314128,31.909134971314128 0 0,0 0.47996795599939196,0.2671016478633816 l -5.386664122230081 9.48646801800481" fill="#ff7d0b" stroke="none" /><path d="M 110.36928655335952 81.73862282372117 l 5.481717398950564 -9.65386658772334 a32.101637975340324,32.101637975340324 0 0,0 0.478166535804836,0.27698492105244643 l -5.647080667220728 9.558077509280844" fill="#ff7f0b" stroke="none" /><line stroke="#e1ed5e" stroke-width="0.3" x1="143.23703022742887" x2="145.7803849466894" y1="26.81831364943548" y2="22.513508569990506" /><path d="M 143.74570117128098 25.957352633546492 a86.0,86.0 0 0,1 28.547481713284135,27.462654790039103" fill="none" id="id14" stroke="none" /><text fill="#e1ed5e" style="font-size:6.75px; font-family:Arial;" text-anchor="middle"><textPath startOffset="19.985693538727396" xlink:href="#id14">February</textPath></text><path d="M 110.68208982089419 81.91981866633111 l 5.143547294393355 -8.705812190329357 a31.11173796451176,31.11173796451176 0 0,0 0.4587321076052241,0.2763809620435624 l -5.292641468216217 8.61598461882718" fill="#ff720a" stroke="none" /><path d="M 110.99172775467656 82.1063720568725 l 6.6981785846309885 -10.9040833402208 a33.797055514534975,33.797055514534975 0 0,0 0.49308431027928096,0.3087693498612442 l -6.884882047282533 10.787169649036613" fill="#ff960d" stroke="none" /><path d="M 111.2981086023043 82.29822771554956 l 6.647469330917372 -10.415193596188994 a33.35577217949503,33.35577217949503 0 0,0 0.48132851670544485,0.31306945628895977 l -6.825764873407097 10.299225215740506" fill="#ff910d" stroke="none" /><path d="M 111.60114157652 82.49532879139004 l 3.934871136776157 -5.937228249754491 a28.12277264502503,28.12277264502503 0 0,0 0.4012119364153152,0.27090009043911356 l -4.036487767598014 5.868616247016707" fill="#ff4806" stroke="none" /><path d="M 111.90073688211348 82.69761687909136 l 7.922699450146843 -11.518747334401057 a34.98036861928642,34.98036861928642 0 0,0 0.49317132733599756,0.3454980313021327 l -8.119801917066491 11.38066446033499" fill="#ffa60f" stroke="none" /><path d="M 112.19680574252982 82.90503203632743 l 8.204170267274943 -11.498914621435139 a35.12563086185863,35.12563086185863 0 0,0 0.4891740600751649,0.35540575824165443 l -8.400889643703897 11.35598962837681" fill="#ffa80f" stroke="none" /><path d="M 112.48926042617603 83.11751280151076 l 6.806681215235515 -9.201001865536018 a32.44505764491544,32.44505764491544 0 0,0 0.4461254850714435,0.3360124662045519 l -6.964052854065341 9.082472809825617" fill="#ff840c" stroke="none" /><path d="M 112.77801427241765 83.33499621200491 l 7.837380953310434 -10.221461683354896 a33.880326826272906,33.880326826272906 0 0,0 0.4597519126688761,0.35884366030205866 l -8.01216542113874 10.085039633829615" fill="#ff980e" stroke="none" /><path d="M 113.06298171725822 83.55741782278167 l 1.6858397877875784 -2.121993266797559 a23.710149666424687,23.710149666424687 0 0,0 0.3173734519409164,0.2566272596253934 l -1.722116638292986 2.092659909908036" fill="#ff0801" stroke="none" /><path d="M 113.34407831869373 83.78471172551755 l 4.870798967847994 -5.918835868945831 a28.66533108408951,28.66533108408951 0 0,0 0.37830383145366386,0.31681857940667374 l -4.971960336260776 5.834116132145338" fill="#ff5007" stroke="none" /><path d="M 113.6212207817346 84.01681056812373 l 8.048632666795509 -9.444294505047877 a33.408673841433874,33.408673841433874 0 0,0 0.43448171452777246,0.3767782613845737 l -8.210008179970046 9.30435125024363" fill="#ff910d" stroke="none" /><path d="M 113.89432698308785 84.25364557470407 l 3.75430772695952 -4.2547336162657245 a26.674291555259526,26.674291555259526 0 0,0 0.3416710162869468,0.3067556119510445 l -3.826989730842457 4.189478995545382" fill="#ff3304" stroke="none" /><path d="M 114.16331599549186 84.49514656593476 l 9.785583468004235 -10.712465745063573 a35.50912010248858,35.50912010248858 0 0,0 0.4477397645962332,0.41612531474986814 l -9.968531116395315 10.542435844239064" fill="#ffad10" stroke="none" /><path d="M 114.42810811169701 84.74124197986012 l 9.256360202437481 -9.78926407972653 a34.47256083377962,34.47256083377962 0 0,0 0.42765141584713606,0.4114003232171722 l -9.423494861897035 9.628480669747056" fill="#ffa00e" stroke="none" /><path d="M 114.68862486808459 84.99185889309783 l 11.902734666234668 -12.161650463074333 a38.017074793300424,38.017074793300424 0 0,0 0.4637435021145169,0.4617520401392375 l -12.110313968516508 11.954962572284977" fill="#ffce13" stroke="none" /><path d="M 114.94478906791727 85.2469230424477 l 3.463914295758416 -3.4194791206117263 a25.867395577170512,25.867395577170512 0 0,0 0.31008323198580756,0.31956802764698317 l -3.5222617914473324 3.3593468974146288" fill="#ff2703" stroke="none" /><path d="M 115.19652480421416 85.50635884689758 l 7.083509945081863 -6.755876923912128 a30.788666209097237,30.788666209097237 0 0,0 0.362474495230125,0.38666251870819734 l -7.198751762282451 6.632944988325876" fill="#ff6d0a" stroke="none" /><path d="M 115.4437574822437 85.77008943001954 l 6.372604104548986 -5.871730801903797 a29.665293167766478,29.665293167766478 0 0,0 0.3427843828642002,0.37851107710165327 l -6.4727321280292225 5.761166937532595" fill="#ff5e08" stroke="none" /><path d="M 115.68641384162765 86.03803664274999 l 5.620619219717663 -5.002729137650397 a28.524537144419973,28.524537144419973 0 0,0 0.32328913943084975,0.36957537254799355 l -5.7059002227263615 4.905238208899456" fill="#ff4e07" stroke="none" /><path d="M 115.9244219780498 86.31012108654704 l 12.695280032624265 -10.913855878635003 a37.74163627744804,37.74163627744804 0 0,0 0.419272532055153,0.4962864325890818 l -12.881263178166535 10.693710496416815" fill="#ffcb12" stroke="none" /><path d="M 116.15771136456269 86.58626213691792 l 8.547854156075326 -7.096220024880625 a32.10955216536882,32.10955216536882 0 0,0 0.3493848137399041,0.4283044699197281 l -8.668737461891638 6.948031385352796" fill="#ff800b" stroke="none" /><path d="M 116.38621287248628 86.86637796730983 l 4.115820295567017 -3.29884815589183 a26.27469201575147,26.27469201575147 0 0,0 0.2798203644272938,0.355343446619752 l -4.171994740588275 3.2275123153190397" fill="#ff2d04" stroke="none" /><path d="M 116.60985879189232 87.15038557335679 l 9.276881054217501 -7.176722338344793 a32.728847582597226,32.728847582597226 0 0,0 0.34088506738342256,0.4485647905781292 l -9.399042061825037 7.01597277188563" fill="#ff880c" stroke="none" /><path d="M 116.82858285166822 87.43820079747576 l 4.016744713381016 -2.9983238031413495 a26.012402988683007,26.012402988683007 0 0,0 0.26475347890684964,0.361123447692999 l -4.067760804801492 2.9287379117768566" fill="#ff2904" stroke="none" /><path d="M 117.04232023915458 87.72973835380427 l 1.7791924949596656 -1.2809967848125512 a23.19236828494231,23.19236828494231 0 0,0 0.23047402752038687,0.3259891672504929 l -1.8009791422839352 1.250181117230265" fill="#ff0000" stroke="none" /><path d="M 117.45458315368197 88.32363383020206 l 6.182340473267435 -4.135720143909874 a28.43811231672005,28.43811231672005 0 0,0 0.26867700798602356,0.4092135160327057 l -6.252614116611384 4.028688563899495" fill="#ff4c07" stroke="none" /><line stroke="#e1ed5e" stroke-width="0.3" x1="172.23445277983987" x2="176.4835382374775" y1="55.19839476539836" y2="52.563006222186495" /><path d="M 173.08426987136738 54.67131705675599 a86.0,86.0 0 0,1 12.851231095245387,41.99856678651699" fill="none" id="id15" stroke="none" /><text fill="#e1ed5e" style="font-size:6.75px; font-family:Arial;" text-anchor="middle"><textPath startOffset="22.20632615414155" xlink:href="#id15">March</textPath></text><path d="M 117.84615892207809 88.93136811851018 l 4.710363968369274 -2.921484954906024 a26.54279740350067,26.54279740350067 0 0,0 0.23747487149558152,0.39034624892554326 l -4.759954638151079 2.8399709327733995" fill="#ff3104" stroke="none" /><path d="M 120.37134235888165 94.90015583598534 l 10.51683682827987 -2.6328274287341484 a31.84138538850818,31.84138538850818 0 0,0 0.12852881310475706,0.5328349080926749 l -10.560598441645446 2.4514072889820673" fill="#ff7c0b" stroke="none" /><path d="M 120.45610955862082 95.25157060432595 l 5.404763359790536 -1.254595217176855 a26.548466106438546,26.548466106438546 0 0,0 0.0995006332887083,0.44604182891973293 l -5.425558380081282 1.1613752187071584" fill="#ff3104" stroke="none" /><path d="M 120.53481517161879 95.60439243477599 l 5.864588782681948 -1.255352463834839 a26.997442071284652,26.997442071284652 0 0,0 0.09336063103384647,0.45525959327428467 l -5.885328709630792 1.1542172143971425" fill="#ff3805" stroke="none" /><path d="M 120.6074358757038 95.95851677861258 l 6.324161690748946 -1.240280135610521 a27.44463466036102,27.44463466036102 0 0,0 0.08692666699963325,0.4643657309931935 l -6.344574081658439 1.131236327154765" fill="#ff3e05" stroke="none" /><path d="M 120.73433829027371 96.67025291283417 l 2.9384109522403836 -0.4718822068080298 a23.976059767771517,23.976059767771517 0 0,0 0.06193142575946252,0.4080507163020014 l -2.946098271439146 0.42123237811394626" fill="#ff0c01" stroke="none" /><path d="M 120.78858239683441 97.02765380044208 l 2.979825198624721 -0.42605464554561473 a24.010129694107857,24.010129694107857 0 0,0 0.05497633803966464,0.40963757495463793 l -2.986717535722222 0.3746987285263125" fill="#ff0c01" stroke="none" /><path d="M 120.83666639777658 97.38593545837742 l 2.9708945322011893 -0.3727136531953222 a23.99418265787863,23.99418265787863 0 0,0 0.047885129769481054,0.41025054890897855 l -2.9768700149742595 0.3215193659614909" fill="#ff0c01" stroke="none" /><path d="M 120.87857604477298 97.74499172005257 l 2.94844141846928 -0.31844891133045955 a23.965588728612364,23.965588728612364 0 0,0 0.04076760543350555,0.41052422317885034 l -2.9534861495850144 0.2676491574471742" fill="#ff0b01" stroke="none" /><path d="M 120.91429891909075 98.10471618934814 l 4.4701109332178435 -0.40508787391444623 a25.488428226101675,25.488428226101675 0 0,0 0.03583614285740056,0.4372917124815767 l -4.476421559894739 0.32808224422510074" fill="#ff2203" stroke="none" /><path d="M 120.94382443527127 98.46500227214037 l 3.0215166402798332 -0.2214505374533591 a24.029620957814082,24.029620957814082 0 0,0 0.02668364567257787,0.4127841880936537 l -3.0248808769568267 0.1694072851066702" fill="#ff0c01" stroke="none" /><line stroke="#e1ed5e" stroke-width="0.3" x1="184.98032266829074" x2="189.97916517819016" y1="98.17113171792111" y2="98.06355123074" /><path d="M 185.9800911702706 98.14961562048488 a86.0,86.0 0 0,1 -9.607161424134198,41.387399972396054" fill="none" id="id16" stroke="none" /><text fill="#e1ed5e" style="font-size:6.75px; font-family:Arial;" text-anchor="middle"><textPath startOffset="21.466115282336823" xlink:href="#id16">April</textPath></text><path d="M 120.8583938346157 102.4346265915055 l 2.953509313603839 0.3447385436373208 a23.97356048013384,23.97356048013384 0 0,0 -0.051370192361210945,0.40947097670196975 l -2.9471376119957795 -0.3955272746266855" fill="#ff0c01" stroke="none" /><path d="M 118.64920377521936 109.65438752849418 l 3.2734021363692802 1.6945867041842688 a24.686025724867513,24.686025724867513 0 0,0 -0.1986020061005777,0.37568015042214686 l -3.2437476220438093 -1.75068186969255" fill="#ff1602" stroke="none" /><line stroke="#e1ed5e" stroke-width="0.3" x1="174.80103733775053" x2="179.2010983576182" y1="140.37084112569926" y2="142.7455964860345" /><path d="M 175.68104954172406 140.8457921977663 a86.0,86.0 0 0,1 -30.038265399797805,32.042727171017184" fill="none" id="id17" stroke="none" /><text fill="#e1ed5e" style="font-size:6.75px; font-family:Arial;" text-anchor="middle"><textPath startOffset="22.206326154141568" xlink:href="#id17">May</textPath></text><path d="M 118.48025628344425 109.97397251340804 l 12.760835009599006 6.8871457019726225 a35.50074777597375,35.50074777597375 0 0,0 -0.2948651378210323,0.5352658745141354 l -12.640393462326465 -7.105782094884563" fill="#ffad10" stroke="none" /><path d="M 118.30583269289576 110.29060199501025 l 15.767859348580815 8.863883309308175 a39.08849954412083,39.08849954412083 0 0,0 -0.3347613626861311,0.5836846529625043 l -15.612945989742304 -9.133987808128994" fill="#ffdc14" stroke="none" /><path d="M 118.12598468904814 110.60418214915192 l 18.660682260554683 10.916994420608301 a42.61947801425772,42.61947801425772 0 0,0 -0.37590201885711777,0.6300334054482566 l -18.46999936599934 -11.236589919942663" fill="#f6ff19" stroke="none" /><path d="M 117.94076556474637 110.91462005526583 l 10.863573749810659 6.609070248068818 a33.71601526271039,33.71601526271039 0 0,0 -0.30590919604957084,0.49322302764043163 l -10.748199914093126 -6.795089607074523" fill="#ff950d" stroke="none" /><path d="M 117.75023020441432 111.22182372390056 l 13.061170098444627 8.25736606143709 a36.452451540551,36.452451540551 0 0,0 -0.33986727283922075,0.5274815549087336 l -12.917097962228356 -8.480969216267276" fill="#ffba11" stroke="none" /><path d="M 117.35343817320211 111.8261652097733 l 4.921531308403807 3.3539660416190245 a26.955716466381897,26.955716466381897 0 0,0 -0.2646012828178396,0.38117788279530196 l -4.863069118423831 -3.438185186601346" fill="#ff3705" stroke="none" /><path d="M 116.93607887273984 112.41649034213515 l 5.197162774636988 3.8102397776177206 a27.444255431701382,27.444255431701382 0 0,0 -0.28259576338321174,0.3785832061914483 l -5.130805744558684 -3.899135863318484" fill="#ff3e05" stroke="none" /><path d="M 116.498646956653 112.99209946851258 l 5.278722250983821 4.156806599451306 a27.7189247434596,27.7189247434596 0 0,0 -0.2984167800759866,0.3723208168223377 l -5.206387558852981 -4.247055249851894" fill="#ff4206" stroke="none" /><path d="M 116.27256486870786 113.27417163493432 l 15.890628938143255 12.962611463764734 a41.50710569559441,41.50710569559441 0 0,0 -0.45638841609305897,0.5497492475723089 l -15.665144522156654 -13.234221968450814" fill="#fffa17" stroke="none" /><path d="M 116.0416608686014 113.55231037782055 l 5.639179369964039 4.76408956179475 a28.382201116159713,28.382201116159713 0 0,0 -0.3184989660900781,0.37048625248298184 l -5.556337894303183 -4.86045291343926" fill="#ff4c07" stroke="none" /><path d="M 115.80600337817218 113.82643327865902 l 5.606258057841672 4.9041209928335645 a28.448525499954037,28.448525499954037 0 0,0 -0.32558815926035883,0.36580174846539143 l -5.521011048932975 -4.999896911039822" fill="#ff4c07" stroke="none" /><path d="M 115.56566222782051 114.09645910891815 l 11.417679264016709 10.339993667361634 a36.403858893700495,36.403858893700495 0 0,0 -0.42463123803946756,0.46085334320378785 l -11.238001617981519 -10.534998265366756" fill="#ffb911" stroke="none" /><path d="M 115.32070863581623 114.36230785411682 l 8.455019455867061 7.926108068776053 a32.589242560107515,32.589242560107515 0 0,0 -0.3871810721080309,0.40595780617574295 l -8.317331832380065 -8.070472991534302" fill="#ff860c" stroke="none" /><path d="M 115.07121518719521 114.62390073753431 l 7.461761719546048 7.240296244093529 a31.39710429213431,31.39710429213431 0 0,0 -0.3796947133855519,0.38462874003009645 l -7.33602638110496 -7.36766547810429" fill="#ff760a" stroke="none" /><path d="M 114.81725581225074 114.88116024355365 l 5.238237268787356 5.260828940142238 a28.423978099479477,28.423978099479477 0 0,0 -0.3496826712223764,0.3422380922373549 l -5.146904645189185 -5.350217135302165" fill="#ff4c07" stroke="none" /><path d="M 114.29624159901734 115.38237550388516 l 5.223804887003588 5.620675040665429 a28.67333860912197,28.67333860912197 0 0,0 -0.3644250949078009,0.3328936837626735 l -5.126280242628924 -5.709761491014685" fill="#ff5007" stroke="none" /><path d="M 114.0293411484842 115.62618273729858 l 10.25812216379108 11.42571769952655 a36.355002288392406,36.355002288392406 0 0,0 -0.4692524466841555,0.4140607251523308 l -10.059927364200338 -11.600601566451168" fill="#ffb811" stroke="none" /><path d="M 113.75828350139079 115.86535959552629 l 7.954805084158849 9.173080577947317 a33.14184216733498,33.14184216733498 0 0,0 -0.43421261666992517,0.37004541196765345 l -7.795726990911877 -9.308650380137918" fill="#ff8e0d" stroke="none" /><path d="M 113.48314897796784 116.09983520530334 l 4.748691559711589 5.670274182766938 a28.39608550768779,28.39608550768779 0 0,0 -0.37743789036165964,0.31060568792689636 l -4.650383540805238 -5.7511749895510125" fill="#ff4c07" stroke="none" /><path d="M 113.20401910651253 116.32954008644616 l 4.650221276102751 5.750974315200082 a28.39582743787399,28.39582743787399 0 0,0 -0.38272505687529956,0.3040599321209798 l -4.5505387265101005 -5.8301681613261875" fill="#ff4c07" stroke="none" /><path d="M 112.92097659922987 116.55440617244103 l 3.5096333936649016 4.496556144104023 a26.70408132086206,26.70408132086206 0 0,0 -0.3647920839489925,0.27970701443962925 l -3.431712581222415 -4.556302500371023" fill="#ff3404" stroke="none" /><path d="M 112.63410532772338 116.77436683061366 l 14.203182158042779 18.857638234045684 a44.60806860335437,44.60806860335437 0 0,0 -0.6173226274635497,0.4566805216978598 l -13.876474560160664 -19.099328704483312" fill="#deff1b" stroke="none" /><path d="M 112.04921762599082 117.19931262002967 l 6.530697822748024 9.322058656995491 a32.382038115228326,32.382038115228326 0 0,0 -0.4592746245000067,0.31589327462071953 l -6.369266313625134 -9.433092720981305" fill="#ff830c" stroke="none" /><path d="M 111.7513745106137 117.40417183066458 l 8.483775727654281 12.564750651386182 a36.16071929456665,36.16071929456665 0 0,0 -0.5188637921530899,0.34387462866125257 l -8.266237236761228 -12.708923301138753" fill="#ffb610" stroke="none" /><path d="M 111.45004920935366 117.60387380957326 l 3.002525539309392 4.616231750414202 a26.506791732736705,26.506791732736705 0 0,0 -0.38462389572937383,0.24548516810426854 l -2.9226198415330877 -4.6672313473422795" fill="#ff3104" stroke="none" /><path d="M 111.1453310114006 117.79835938074945 l 7.967255792921775 12.723182625597014 a36.01187999532834,36.01187999532834 0 0,0 -0.5282099089572725,0.32446966791945403 l -7.747066684032194 -12.858440760344845" fill="#ffb410" stroke="none" /><line stroke="#e1ed5e" stroke-width="0.3" x1="143.8653032363475" x2="146.44561519142675" y1="172.8068346515853" y2="177.08958963109032" /><path d="M 144.38136562736335 173.6633856474863 a86.0,86.0 0 0,1 -40.68145358897372,12.25698825130547" fill="none" id="id18" stroke="none" /><text fill="#e1ed5e" style="font-size:6.75px; font-family:Arial;" text-anchor="middle"><textPath startOffset="21.466115282336833" xlink:href="#id18">June</textPath></text><path d="M 110.8373102113329 117.98757091392108 l 8.897615787110457 14.768101292155267 a38.24135674679911,38.24135674679911 0 0,0 -0.5667589940509253,0.3348512036202607 l -8.64208892203115 -14.919071068069277" fill="#ffd113" stroke="none" /><path d="M 110.5260780823613 118.17145234162733 l 11.774878427778646 20.327290041424117 a44.49141295063256,44.49141295063256 0 0,0 -0.6659966915452132,0.3781703029053229 l -11.423232969312235 -20.52696351012407" fill="#dfff1b" stroke="none" /><path d="M 108.92500713936063 119.00905698771935 l 3.5771543347218056 7.618854477181446 a29.41682699589856,29.41682699589856 0 0,0 -0.4602080538631255,0.211258945748912 l -3.445478285091261 -7.679300493264433" fill="#ff5a08" stroke="none" /><path d="M 108.2653958097858 119.30500536409082 l 8.99650139743602 21.012606260177854 a43.85752959616008,43.85752959616008 0 0,0 -0.6965589445835321,0.29116169532851954 l -8.633470993355028 -21.164352998526347" fill="#e7ff1a" stroke="none" /><path d="M 107.93186726928326 119.44442032107085 l 3.8349082223147377 9.40101048541076 a31.153103920495457,31.153103920495457 0 0,0 -0.49827004870342534,0.19827193550094688 l -3.672517097569446 -9.465629265317775" fill="#ff720a" stroke="none" /><path d="M 107.59598834532513 119.57807347666477 l 3.56775554718505 9.195614457802002 a30.863478336824535,30.863478336824535 0 0,0 -0.4969457674571677,0.18790236729329077 l -3.4089395589676075 -9.255665075201923" fill="#ff6e0a" stroke="none" /><path d="M 107.2578585660854 119.70592522655815 l 5.1049577632096135 13.860550608773385 a35.770763586982305,35.770763586982305 0 0,0 -0.5796233880946773,0.2078323249583794 l -4.865614814485202 -13.946370474771724" fill="#ffb110" stroke="none" /><path d="M 106.91757812671514 119.82793768551818 l 5.590251925424456 16.02340657282881 a37.9705767370436,37.9705767370436 0 0,0 -0.6189751273771263,0.20998996990456464 l -5.313607065110102 -16.1172595296315" fill="#ffce13" stroke="none" /><path d="M 106.57524785965236 119.94407469862006 l 4.66407033037508 14.147081456718828 a35.896088942729996,35.896088942729996 0 0,0 -0.58848843893805,0.1884154142955767 l -4.419860546346089 -14.225269717674111" fill="#ffb210" stroke="none" /><path d="M 106.2309692047433 120.05430185196036 l 1.4370837382511272 4.625237282747727 a25.843349005849714,25.843349005849714 0 0,0 -0.4259538016761609,0.12833638629271196 l -1.3572549621347203 -4.649289038146164" fill="#ff2703" stroke="none" /><path d="M 105.88484417918355 120.15858648285463 l 2.085598344068226 7.144235821250009 a28.442434139608622,28.442434139608622 0 0,0 -0.4711541114479683,0.1331528581264107 l -1.9623130645156517 -7.17907747271494" fill="#ff4c07" stroke="none" /><path d="M 105.53697534728816 120.25689768951611 l 4.000023848918272 14.63399577945511 a36.170828034917044,36.170828034917044 0 0,0 -0.6020023852202538,0.15899430145120427 l -3.7475310208865205 -14.7006814302099" fill="#ffb610" stroke="none" /><path d="M 104.83641907484287 120.43548508189849 l 6.3575333719608 26.86270076473839 a48.60476268601981,48.60476268601981 0 0,0 -0.8158190233506503,0.1856777536359043 l -5.894194199217288 -26.968155251951977" fill="#afff20" stroke="none" /><path d="M 104.48393922423573 120.51570834832081 l 3.3331047106752103 15.250207623026412 a36.61020241885858,36.61020241885858 0 0,0 -0.6168096292662383,0.12925845494043234 l -3.070103619979594 -15.305322058693386" fill="#ffbc11" stroke="none" /><path d="M 103.06178313531738 120.77559828337769 l 2.157808877910803 14.641719690292131 a35.79986806166457,35.79986806166457 0 0,0 -0.6104242472459916,0.0845992384698859 l -1.9054560394779807 -14.67669349425462" fill="#ffb110" stroke="none" /><path d="M 101.98527174616119 120.90594882070398 l 1.7450937294005493 18.3767488076754 a39.45942168283699,39.45942168283699 0 0,0 -0.6767397589383981,0.05839195397360387 l -1.4285096527206096 -18.40406501392767" fill="#ffe115" stroke="none" /><path d="M 101.26447882468166 120.96189622390904 l 1.2751049036455062 21.138050035391977 a42.17647401750432,42.17647401750432 0 0,0 -0.7250576358365678,0.03747719786931436 l -0.9110591993954589 -21.156867040023492" fill="#fbff18" stroke="none" /><path d="M 100.90346689309514 120.98055641714683 l 0.862693854034063 20.033713701760885 a41.052279804798005,41.052279804798005 0 0,0 -0.7062549148014856,0.02432484727045242 l -0.5177185875579251 -20.04559534745743" fill="#fff517" stroke="none" /><line stroke="#e1ed5e" stroke-width="0.3" x1="102.19456741930631" x2="102.32365962044197" y1="184.97166512339345" y2="189.96999836594603" /><path d="M 102.22038585953345 185.97133177190398 a86.0,86.0 0 0,1 -42.740103519485714,-10.115201625700543" fill="none" id="id19" stroke="none" /><text fill="#e1ed5e" style="font-size:6.75px; font-family:Arial;" text-anchor="middle"><textPath startOffset="22.20632615414155" xlink:href="#id19">July</textPath></text><path d="M 100.54218724476979 120.99299961872073 l 0.34646357719982884 13.414756275103406 a34.41922959527678,34.41922959527678 0 0,0 -0.5924046199320143,0.010198782770972858 l -0.11549926737514656 -13.418732535153538" fill="#ff9f0e" stroke="none" /><path d="M 99.81925306533755 120.99922214144158 l -0.1271434454746732 14.771555934473207 a35.77210310622688,35.77210310622688 0 0,0 -0.6156895257098143,-0.010599653540511431 l 0.3813926610771554 -14.767178803653536" fill="#ffb110" stroke="none" /><path d="M 99.45781275523022 120.99299961872073 l -1.0233372890548613 39.622694052998874 a60.6359067415484,60.6359067415484 0 0,0 -1.043167574451226,-0.0359288004857936 l 1.7052252151807303 -39.599208454086984" fill="#2fff30" stroke="none" /><path d="M 99.09653310690486 120.98055641714683 l -0.6193241694260704 14.382116020468276 a35.39544454516933,35.39544454516933 0 0,0 -0.6084846573626104,-0.03145170642622032 l 0.8667968952021696 -14.369324507279853" fill="#ffac0f" stroke="none" /><path d="M 97.2962882734958 120.8252237178851 l -1.0338940835843586 7.963524875886452 a29.030358984810896,29.030358984810896 0 0,0 -0.4949972161925369,-0.06860210373937628 l 1.1708198909637266 -7.944548206654471" fill="#ff5507" stroke="none" /><path d="M 96.93821686468263 120.77559828337769 l -0.966900174854151 6.560859709881223 a27.631724970237812,27.631724970237812 0 0,0 -0.46995529457152196,-0.07339735189329089 l 1.0796913330341902 -6.543244050640826" fill="#ff4106" stroke="none" /><path d="M 95.86986931433489 120.58985236759428 l -3.4307853698777295 17.103421089279472 a38.44411938767265,38.44411938767265 0 0,0 -0.6477075093898399,-0.13573340613479776 l 3.7246843406969563 -17.041831702418133" fill="#ffd413" stroke="none" /><path d="M 95.51606077576429 120.51570834832081 l -3.9942654467236807 18.275266651216914 a39.70667067203493,39.70667067203493 0 0,0 -0.666466730789794,-0.15168565809836718 l 4.308252326906337 -18.20380425954086" fill="#ffe415" stroke="none" /><path d="M 94.81253420990036 120.34920634021253 l -1.9742401936400493 7.744479229568248 a28.99215758599628,28.99215758599628 0 0,0 -0.48252553142005156,-0.12743937845434508 l 2.1072561678715904 -7.709348501810322" fill="#ff5407" stroke="none" /><path d="M 94.46302465271185 120.25689768951611 l -2.726403061278767 9.974483252802777 a31.340386347375677,31.340386347375677 0 0,0 -0.5191592185624611,-0.14671958090702064 l 2.8976934479458416 -9.926074878557236" fill="#ff750a" stroke="none" /><path d="M 94.11515582081647 120.15858648285463 l -4.142997033168502 14.191873471648073 a35.78423812890307,35.78423812890307 0 0,0 -0.5898009684287098,-0.1777021935764513 l 4.386672976037458 -14.118455908965895" fill="#ffb110" stroke="none" /><path d="M 93.42475214034765 119.94407469862007 l -3.0021914673046406 9.10626217619868 a30.588386956523163,30.588386956523163 0 0,0 -0.4986347940879073,-0.16916399508261967 l 3.1584959943297735 -9.053235194217937" fill="#ff6b09" stroke="none" /><path d="M 92.7421414339146 119.70592522655815 l -5.109006718450849 13.871543990430391 a35.78247889657284,35.78247889657284 0 0,0 -0.5761486519022861,-0.21785012106901455 l 5.347025591113418 -13.781545619254743" fill="#ffb110" stroke="none" /><path d="M 92.40401165467489 119.57807347666478 l -2.6903361474638396 6.934133700243311 a28.43774957626301,28.43774957626301 0 0,0 -0.45484003464125355,-0.1809902366122664 l 2.8092972581469513 -6.886796619224978" fill="#ff4c07" stroke="none" /><path d="M 92.06813273071674 119.44442032107085 l -3.906655289422608 9.576893424734783 a31.34305773062792,31.34305773062792 0 0,0 -0.49780020475157677,-0.20808052595895182 l 4.070926953671647 -9.508227855755857" fill="#ff750a" stroke="none" /><path d="M 91.40352486487194 119.15986991738527 l -7.733500156696121 17.23646665397691 a39.89187146333779,39.89187146333779 0 0,0 -0.6240836421161358,-0.28648619072583376 l 8.029051794579676 -17.100793392917" fill="#ffe615" stroke="none" /><path d="M 91.07499286063937 119.00905698771935 l -9.01325813430855 19.19701966001678 a42.20764923377294,42.20764923377294 0 0,0 -0.6549970570845662,-0.31443839150620473 l 9.342367859393358 -19.039026992011014" fill="#fbff18" stroke="none" /><line stroke="#e1ed5e" stroke-width="0.3" x1="58.666819895761336" x2="56.23545636021788" y1="174.27360380694188" y2="178.64263932499728" /><path d="M 58.180547188652646 175.14741091055294 a86.0,86.0 0 0,1 -31.652253787137756,-30.449443065178592" fill="none" id="id20" stroke="none" /><text fill="#e1ed5e" style="font-size:6.75px; font-family:Arial;" text-anchor="middle"><textPath startOffset="22.20632615414155" xlink:href="#id20">August</textPath></text><path d="M 89.7882731507175 118.34994917583269 l -3.6256681815797354 6.515139686202685 a28.456038820556994,28.456038820556994 0 0,0 -0.425961471037147,-0.24187204016640218 l 3.7372784195380895 -6.451764480241651" fill="#ff4d07" stroke="none" /><path d="M 89.4739219176387 118.17145234162733 l -13.176866733786694 22.74758024702643 a47.2884427841377,47.2884427841377 0 0,0 -0.7008420344504628,-0.41406982729298 l 13.566476639265538 -22.5173918474397" fill="#beff1f" stroke="none" /><path d="M 89.1626897886671 117.98757091392108 l -3.2110028267601387 5.329564248400824 a27.22212136102261,27.22212136102261 0 0,0 -0.3992847429124749,-0.24527330090014504 l 3.302266769604922 -5.273502480672301" fill="#ff3b05" stroke="none" /><path d="M 88.8546689885994 117.79835938074946 l -6.333708242599135 10.114514804386067 a32.933954492560844,32.933954492560844 0 0,0 -0.477884536401989,-0.3050085214560255 l 6.506874581048048 -10.003991854106237" fill="#ff8b0c" stroke="none" /><path d="M 88.54995079064634 117.60387380957326 l -9.38189485795259 14.424190687247219 a38.20689478400291,38.20689478400291 0 0,0 -0.5482240038571552,-0.36333297601529363 l 9.628793560549706 -14.260559690140607" fill="#ffd113" stroke="none" /><path d="M 88.24862548938628 117.40417183066458 l -10.543356018031641 15.61505674455022 a39.84124075687393,39.84124075687393 0 0,0 -0.5650685365484195,-0.38865929200800736 l 10.810581439202952 -15.43125666317711" fill="#ffe515" stroke="none" /><path d="M 87.65650970185807 116.9893568818739 l -15.241469925871451 20.97808364737459 a46.930337425831716,46.930337425831716 0 0,0 -0.6494600666321354,-0.4804550308971241 l 15.60031496292215 -20.7126186677377" fill="#c2ff1e" stroke="none" /><path d="M 87.36589467227662 116.77436683061367 l -8.893569416038616 11.808038000981337 a35.78260255809229,35.78260255809229 0 0,0 -0.4888095568405786,-0.37479832427655857 l 9.095507701372682 -11.653200334877411" fill="#ffb110" stroke="none" /><path d="M 86.51685102203217 116.09983520530335 l -6.037609248136886 7.20933322681938 a30.403574374061705,30.403574374061705 0 0,0 -0.39833680694102297,-0.33947126860761734 l 6.160811531654966 -7.104337567988812" fill="#ff6809" stroke="none" /><path d="M 86.24171649860922 115.8653595955263 l -15.168165169166935 17.491164125876896 a44.15197739022505,44.15197739022505 0 0,0 -0.5698919574245686,-0.5028633922254746 l 15.466999479498092 -17.227477591879133" fill="#e3ff1b" stroke="none" /><path d="M 85.97065885151581 115.62618273729859 l -13.455471454247778 14.986994295401956 a41.140995756577865,41.140995756577865 0 0,0 -0.522883347752993,-0.4776415407278413 l 13.711454351467626 -14.753159988087539" fill="#fff617" stroke="none" /><path d="M 85.70375840098266 115.38237550388516 l -5.491292505487447 5.908484599678584 a29.06625586288097,29.06625586288097 0 0,0 -0.36355542112412637,-0.3437643426581024 l 5.59218376100239 -5.813085620274551" fill="#ff5507" stroke="none" /><path d="M 85.44109423537348 115.13401014063109 l -10.270164551006527 10.675855519205633 a35.81385064632773,35.81385064632773 0 0,0 -0.44059571524214103,-0.43121564047002037 l 10.452410218624463 -10.497489775813044" fill="#ffb110" stroke="none" /><path d="M 84.9287848128048 114.62390073753433 l -5.327548904642878 5.169426976402718 a28.42332490166783,28.42332490166783 0 0,0 -0.33768730242826,-0.3540637865399863 l 5.415742758450096 -5.076956073280232" fill="#ff4c07" stroke="none" /><path d="M 84.67929136418377 114.36230785411682 l -5.593419010000288 5.2435176262598215 a28.66686463414674,28.66686463414674 0 0,0 -0.33438340303021175,-0.3629071424651255 l 5.682848821026229 -5.146459228993352" fill="#ff5007" stroke="none" /><path d="M 84.43433777217949 114.09645910891817 l -7.939370864631947 7.189993917752581 a31.711191449296653,31.711191449296653 0 0,0 -0.3629287729497969,-0.40775432379060655 l 8.061958487230083 -7.052265424221111" fill="#ff7a0b" stroke="none" /><path d="M 83.95833913139862 113.55231037782056 l -13.575063013237806 11.468480032137144 a38.77099800407691,38.77099800407691 0 0,0 -0.4263037393933845,-0.5135103164428013 l 13.770462752524727 -11.233108458580581" fill="#ffd814" stroke="none" /><path d="M 83.72743513129214 113.27417163493432 l -13.704895633532104 11.179622778963477 a38.686382609395466,38.686382609395466 0 0,0 -0.4164903883512688,-0.5196357977929772 l 13.895303933938234 -10.942059147592241" fill="#ffd714" stroke="none" /><path d="M 83.28015986056508 112.70617746262583 l -15.65443711438293 11.896528578866441 a40.6618613970284,40.6618613970284 0 0,0 -0.41869854296730674,-0.560915121042704 l 15.856896924045321 -11.625300578314429" fill="#fff016" stroke="none" /><path d="M 83.06392112726016 112.41649034213515 l -5.3771375676597355 3.942186215526181 a27.66741633463985,27.66741633463985 0 0,0 -0.27828178203014947,-0.3865090560274085 l 5.444199142065492 -3.8490435540476344" fill="#ff4106" stroke="none" /><path d="M 82.6465618267979 111.8261652097733 l -25.75201675119654 17.549698310205454 a52.16341248215823,52.16341248215823 0 0,0 -0.49927066286156896,-0.7463418990449459 l 26.050290519468838 -17.103819496954685" fill="#87ff25" stroke="none" /><path d="M 82.24976979558568 111.22182372390057 l -26.330427387768843 16.64628634771303 a52.151087550720035,52.151087550720035 0 0,0 -0.47317267896116294,-0.7629050199463092 l 26.61306470639796 -16.19058499640146" fill="#87ff25" stroke="none" /><line stroke="#e1ed5e" stroke-width="0.3" x1="26.63291911575756" x2="22.317208475507996" y1="142.92168965132927" y2="145.44649492493687" /><path d="M 25.769776987707644 143.4266507060508 a86.0,86.0 0 0,1 -11.730757126820373,-40.83630448921669" fill="none" id="id21" stroke="none" /><text fill="#e1ed5e" style="font-size:6.75px; font-family:Arial;" text-anchor="middle"><textPath startOffset="21.46611528233685" xlink:href="#id21">September</textPath></text><path d="M 81.51974371655577 109.97397251340807 l -27.41712401546814 14.797286202787127 a52.15539067716459,52.15539067716459 0 0,0 -0.4195963065456247,-0.7937180829875639 l 27.667772830238654 -14.323153104713436" fill="#87ff25" stroke="none" /><path d="M 81.18737489456691 109.33194174019688 l -14.600902561383839 7.242730416063786 a37.298573541472905,37.298573541472905 0 0,0 -0.280355160306567,-0.577614668687048 l 14.723410978305125 -6.990326791411453" fill="#ffc512" stroke="none" /><path d="M 81.02952815118164 109.00673069616217 l -28.141241804949438 13.36079505099646 a52.15189135059644,52.15189135059644 0 0,0 -0.3780400782558225,-0.8142646965388324 l 28.367056500045088 -12.8744102871788" fill="#87ff25" stroke="none" /><path d="M 80.58989483394504 108.01547362559985 l -26.57967135835717 10.976172098367105 a49.756830205209425,49.756830205209425 0 0,0 -0.32009608016965885,-0.7944522200926151 l 26.76467005278422 -10.517020510431685" fill="#a2ff22" stroke="none" /><path d="M 80.45479744820244 107.68017299344265 l -13.7078926117996 5.3864362037257525 a35.72820473898423,35.72820473898423 0 0,0 -0.2199933929811885,-0.5743333294876649 l 13.798580284374298 -5.14967930740493" fill="#ffb010" stroke="none" /><path d="M 80.32549172779594 107.34259656027581 l -3.2212473193228193 1.2021809724247678 a24.43826604303748,24.43826604303748 0 0,0 -0.14369204568642777,-0.39537879645107543 l 3.241463626014472 -1.1465543789675752" fill="#ff1202" stroke="none" /><path d="M 80.0844068197444 106.66101706037122 l -16.904229457482174 5.6538291272363415 a38.8246671035168,38.8246671035168 0 0,0 -0.20652457938939703,-0.6356172980087936 l 16.99904628788782 -5.362012929249744" fill="#ffd814" stroke="none" /><path d="M 79.97269907076064 106.31721596034903 l -21.836085452230506 6.887761262376703 a43.896634754579324,43.896634754579324 0 0,0 -0.2210994635291154,-0.7225658395424968 l 21.95141168826575 -6.5108684502821585" fill="#e6ff1a" stroke="none" /><path d="M 79.76711848015287 105.62410040840567 l -15.171402403302379 4.217169480718851 a36.746617710227035,36.746617710227035 0 0,0 -0.16415575692046672,-0.6108846389415512 l 15.241746236564621 -3.95539390860176" fill="#ffbe11" stroke="none" /><path d="M 79.67330655649465 105.27499134158121 l -30.125559569877332 7.817900453561791 a52.12344625680179,52.12344625680179 0 0,0 -0.21789756387127526,-0.8703924531869816 l 30.255668448043664 -7.2981801609774175" fill="#87ff25" stroke="none" /><path d="M 79.50377843672027 104.57218783832718 l -15.706432985346597 3.503707337344538 a37.09248278634921,37.09248278634921 0 0,0 -0.13364944600601178,-0.6243657175484891 l 15.76441647007705 -3.232827800379885" fill="#ffc212" stroke="none" /><path d="M 79.4281124754447 104.21870165774334 l -17.40482261780528 3.569227857328138 a38.76702670270953,38.76702670270953 0 0,0 -0.12842974504960145,-0.654860503103631 l 17.463682295830548 -3.269103627156552" fill="#ffd814" stroke="none" /><path d="M 79.35854240842038 103.8639653848113 l -15.555175864512801 2.9118419001402494 a36.82536948786138,36.82536948786138 0 0,0 -0.11127146219898537,-0.6240694522881478 l 15.602993769050975 -2.643653697118888" fill="#ffbf11" stroke="none" /><path d="M 79.23777060512086 103.15116336523772 l -30.824828472147516 4.678402707809662 a52.17783671510512,52.17783671510512 0 0,0 -0.1271299300680617,-0.8891464347984604 l 30.900792453232178 -4.1471108010308" fill="#87ff25" stroke="none" /><path d="M 79.1416061653843 102.43462659150553 l -6.818973725795448 0.7959220106414788 a27.865267257733834,27.865267257733834 0 0,0 -0.051507883000158225,-0.47689902590919486 l 6.831663910296658 -0.678426662847502" fill="#ff4406" stroke="none" /><path d="M 79.07016306316243 101.71520430193888 l -17.831336534354705 1.461281577364564 a38.89111249894086,38.89111249894086 0 0,0 -0.04893509664735706,-0.6676805146378466 l 17.853848189666397 -1.1541279262299569" fill="#ffd914" stroke="none" /><path d="M 79.04373962182676 101.35467743843564 l -22.50800768690359 1.4549871803149543 a43.554986094622,43.554986094622 0 0,0 -0.04192405742929182,-0.7485822083888477 l 22.52971809522041 -1.067333255590669" fill="#ebff1a" stroke="none" /><line stroke="#e1ed5e" stroke-width="0.3" x1="15.007084014347285" x2="10.007500721073583" y1="101.09737516637583" y2="101.16192664675087" /><path d="M 14.007167355692545 101.11028546245083 a86.0,86.0 0 0,1 10.666146001902534,-42.60595125391555" fill="none" id="id22" stroke="none" /><text fill="#e1ed5e" style="font-size:6.75px; font-family:Arial;" text-anchor="middle"><textPath startOffset="22.20632615414155" xlink:href="#id22">October</textPath></text><path d="M 79.00175016825051 100.2711162175752 l -50.814012729921366 0.6560786275780184 a71.81824799107281,71.81824799107281 0 0,0 -0.005320373479183654,-1.2362674257519406 l 50.817777400690055 0.21869827637759745" fill="#3effb2" stroke="none" /><path d="M 79.05617556472873 98.46500227214037 l -44.11890962174485 -3.2335272019838097 a65.2372454429258,65.2372454429258 0 0,0 0.09172206409031171,-1.1192415053707832 l 44.056713073835034 3.992482624562371" fill="#35ff68" stroke="none" /><path d="M 79.12142395522702 97.74499172005258 l -4.725261266215748 -0.5103558431083233 a25.75274206333498,25.75274206333498 0 0,0 0.05139468233638078,-0.4403182520545307 l 4.715776230875778 0.5916178334877157" fill="#ff2603" stroke="none" /><path d="M 79.16333360222342 97.38593545837743 l -7.337396409127438 -0.920513263243272 a28.394912489846178,28.394912489846178 0 0,0 0.06501623804354707,-0.4844464916090952 l 7.320464172026057 1.0466780969170264" fill="#ff4c07" stroke="none" /><path d="M 79.21141760316559 97.0276538004421 l -9.396542438583158 -1.3435152370255037 a30.492104244698012,30.492104244698012 0 0,0 0.07876271199568115,-0.5189478629565679 l 9.372023833148175 1.5050622123741637" fill="#ff6909" stroke="none" /><path d="M 79.26566170972629 96.67025291283419 l -10.289339006487893 -1.6523747276654634 a31.42117265143711,31.42117265143711 0 0,0 0.09035552977485549,-0.5332834514644869 l 10.259371615192814 1.829243967445778" fill="#ff760a" stroke="none" /><path d="M 79.54389044137918 95.25157060432595 l -61.3683286758625 -14.245288187022146 a84.0,84.0 0 0,0 0.3390687989567409,-1.4056590733624128 l 61.114027076644945 15.299532492043955" fill="#4dd2ff" stroke="none" /><path d="M 79.71946130924805 94.55025226153421 l -11.414528517406048 -3.0672903674769394 a32.81946409415811,32.81946409415811 0 0,0 0.15130277653508636,-0.5443165891353877 l 11.3600389703046 3.26331826003127" fill="#ff890c" stroke="none" /><path d="M 79.81627453868168 94.20196356495316 l -10.05203275232352 -2.8875765406120055 a31.45855920916823,31.45855920916823 0 0,0 0.15398830343165226,-0.5191720074853209 l 10.000838551780161 3.0601779348438654" fill="#ff770a" stroke="none" /><path d="M 80.14247586403 93.16781622104843 l -34.798703167912215 -11.972848864964845 a57.80079961239638,57.80079961239638 0 0,0 0.3317956342859018,-0.9380309382068812 l 34.5874544528165 12.570077429598339" fill="#4bff2c" stroke="none" /><path d="M 80.52162464483688 92.15188598940014 l -3.0422243938451166 -1.2257554058478382 a24.27987889676913,24.27987889676913 0 0,0 0.1595284158468363,-0.3863107126535509 l 3.0206742911120807 1.2779406889547003" fill="#ff1001" stroke="none" /><path d="M 80.65960295795068 91.81776055985345 l -10.328163916924616 -4.369481658604279 a32.21442552517706,32.21442552517706 0 0,0 0.2204529630975725,-0.5088358334929772 l 10.251420243984363 4.546616636683856" fill="#ff810b" stroke="none" /><path d="M 80.803312248108 91.48605970444005 l -7.058407286953621 -3.13048058079423 a28.721465022600942,28.721465022600942 0 0,0 0.20432953941879609,-0.4502130552025001 l 7.0034754305714735 3.251515644838801" fill="#ff5007" stroke="none" /><path d="M 81.26839172434947 90.50648371742162 l -26.349332732905754 -13.354316172631414 a50.54022843357823,50.54022843357823 0 0,0 0.39996710531398516,-0.7726091404939242 l 26.115556194431655 13.805898035385674" fill="#99ff23" stroke="none" /><line stroke="#e1ed5e" stroke-width="0.3" x1="26.266209847984243" x2="21.928928074336255" y1="57.711370442889674" y2="55.22380399835377" /><path d="M 25.398753493254645 57.213857153982495 a86.0,86.0 0 0,1 29.58750427330803,-30.492523968695096" fill="none" id="id23" stroke="none" /><text fill="#e1ed5e" style="font-size:6.75px; font-family:Arial;" text-anchor="middle"><textPath startOffset="21.46611528233685" xlink:href="#id23">November</textPath></text><path d="M 81.96595687620814 89.24020034530311 l -12.67061932606968 -7.5597759478338595 a35.75448428402761,35.75448428402761 0 0,0 0.31989060654250145,-0.5258160475842337 l 12.538612921240961 7.776759768625167" fill="#ffb110" stroke="none" /><path d="M 82.15384107792192 88.93136811851018 l -6.27304690233129 -3.8906997993459465 a28.381643608809544,28.381643608809544 0 0,0 0.2610738246859119,-0.4129560936385027 l 6.205145481399415 3.998103540698665" fill="#ff4c07" stroke="none" /><path d="M 82.34701348167596 88.62581576622439 l -24.803798356080414 -15.981600161912066 a50.50660869405912,50.50660869405912 0 0,0 0.47717529055058316,-0.7267707046234848 l 24.52502643017191 16.406188930513217" fill="#99ff23" stroke="none" /><path d="M 82.54541684631803 88.32363383020206 l -8.117171292625828 -5.430038829410716 a30.76595061848753,30.76595061848753 0 0,0 0.29824737316036887,-0.43764121831997 l 8.02249945379672 5.568958071001101" fill="#ff6d0a" stroke="none" /><path d="M 82.7489923806493 88.02491185347247 l -6.1265122993291135 -4.252825483246321 a28.457927161402168,28.457927161402168 0 0,0 0.28280048881547976,-0.40000123588258074 l 6.052399190709755 4.357653219460688" fill="#ff4d07" stroke="none" /><path d="M 82.95767976084542 87.72973835380427 l -20.842105304835158 -15.006060310986028 a46.68219615988453,46.68219615988453 0 0,0 0.47513003092094364,-0.6480768282143043 l 20.58071266140058 15.362599582871832" fill="#c5ff1e" stroke="none" /><path d="M 83.17141714833178 87.43820079747576 l -8.355685815231865 -6.237153082674325 a31.426867411623725,31.426867411623725 0 0,0 0.32732438220519017,-0.43072051844922593 l 8.247085492802567 6.380058377004578" fill="#ff760a" stroke="none" /><path d="M 83.39014120810768 87.1503855733568 l -5.859634573787494 -4.533093622141445 a28.408390859385403,28.408390859385403 0 0,0 0.3025438425044323,-0.38419995617238906 l 5.78073665068909 4.633285972266882" fill="#ff4c07" stroke="none" /><path d="M 83.6137871275137 86.86637796730984 l -5.771152870734402 -4.625604530279715 a28.396108620614637,28.396108620614637 0 0,0 0.3089787447129997,-0.3787714069601221 l 5.690675633945009 4.72426010684792" fill="#ff4c07" stroke="none" /><path d="M 83.84228863543731 86.58626213691792 l -28.37903437651438 -23.559582130477157 a57.8839192915569,57.8839192915569 0 0,0 0.6430335247851487,-0.7611488701311431 l 27.969290238242106 24.044589950237416" fill="#4aff2c" stroke="none" /><path d="M 84.07557802195018 86.31012108654704 l -3.369550788650468 -2.896729460757734 a25.443524961797422,25.443524961797422 0 0,0 0.2883698076270488,-0.32965653987938975 l 3.3191891174455757 2.9543015568400666" fill="#ff2103" stroke="none" /><path d="M 84.5562425177563 85.77008943001954 l -14.404366565253222 -13.272213596751657 a40.58666459364596,40.58666459364596 0 0,0 0.4778261799892366,-0.5097116533455831 l 14.17377306329353 13.518194666975289" fill="#ffef16" stroke="none" /><path d="M 84.80347519578584 85.50635884689758 l -2.397738883110392 -2.2868364575699243 a24.313423114431725,24.313423114431725 0 0,0 0.2914551176004329,-0.300370118315372 l 2.3580195018068406 2.32777077143542" fill="#ff1101" stroke="none" /><path d="M 85.57189188830299 84.74124197986013 l -26.390273044876217 -27.90960445817056 a59.41083873589139,59.41083873589139 0 0,0 0.7491200816380579,-0.6962254738267408 l 25.905945079443303 28.35973451807195" fill="#3bff2e" stroke="none" /><path d="M 86.37877921826538 84.01681056812374 l -6.4556834999247386 -7.575122226188237 a30.95280494096471,30.95280494096471 0 0,0 0.4084922190172942,-0.34210048581966646 l 6.324333743948334 7.685123869401716" fill="#ff700a" stroke="none" /><path d="M 86.65592168130627 83.78471172551755 l -11.837428420590006 -14.38445651203345 a39.6289371881268,39.6289371881268 0 0,0 0.530455217242063,-0.42892456165542014 l 11.588069804783443 14.586087170953006" fill="#ffe315" stroke="none" /><path d="M 86.93701828274178 83.55741782278169 l -5.016668540930082 -6.3145602225815445 a29.064777371643103,29.064777371643103 0 0,0 0.3944054924979657,-0.3078397428509197 l 4.907230493272691 6.399978354655686" fill="#ff5507" stroke="none" /><path d="M 87.22198572758235 83.33499621200491 l -4.522611201700752 -5.898360355619782 a28.432675626347233,28.432675626347233 0 0,0 0.39095449743084965,-0.2944588221281793 l 4.420410550511511 5.975335767253816" fill="#ff4c07" stroke="none" /><path d="M 87.51073957382395 83.11751280151077 l -13.270312683979718 -17.938282681469563 a43.31329613237148,43.31329613237148 0 0,0 0.6031988722889366,-0.4382496335627882 l 12.959568495336999 18.16405154984902" fill="#edff19" stroke="none" /><path d="M 87.80319425747018 82.90503203632743 l -8.606739181244853 -12.063152736951645 a35.818758830921006,35.818758830921006 0 0,0 0.5049913861237375,-0.3537787378531381 l 8.397816655537454 12.209516317568726" fill="#ffb110" stroke="none" /><path d="M 88.70189139769569 82.29822771554957 l -8.512255494470205 -13.336923346571574 a36.821884146822214,36.821884146822214 0 0,0 0.5372152417216421,-0.33640413508187283 l 8.28142110037632 13.481471822976376" fill="#ffbf11" stroke="none" /><path d="M 89.00827224532344 82.1063720568725 l -5.075370303375912 -8.262285048278025 a30.69663539251573,30.69663539251573 0 0,0 0.45261155985755963,-0.2726934005088742 l 4.932396677300703 8.34842505824552" fill="#ff6c0a" stroke="none" /><line stroke="#e1ed5e" stroke-width="0.3" x1="56.762969772571076" x2="54.21961505331055" y1="26.818313649435495" y2="22.513508569990535" /><path d="M 56.25429882871897 25.957352633546506 a86.0,86.0 0 0,1 42.265352541879196,-11.944610805530505" fill="none" id="id24" stroke="none" /><text fill="#e1ed5e" style="font-size:6.75px; font-family:Arial;" text-anchor="middle"><textPath startOffset="22.20632615414155" xlink:href="#id24">December</textPath></text><path d="M 89.94658935756843 81.56283822128135 l -14.137045469937394 -25.926225802639237 a50.53007346737414,50.53007346737414 0 0,0 0.7672268678267092,-0.4098260220439678 l 13.68867355558238 26.165730551184954" fill="#99ff23" stroke="none" /><path d="M 90.58718382345135 81.22770947309562 l -8.57027079621607 -17.09197441692767 a40.12028062004802,40.12028062004802 0 0,0 0.620008754133826,-0.3042356029850116 l 8.274790775071818 17.23696518004751" fill="#ffe915" stroke="none" /><path d="M 91.23893434514133 80.91482961587045 l -3.9325337607126727 -8.566660703303883 a30.426160267292083,30.426160267292083 0 0,0 0.477861510597556,-0.21440253047642868 l 3.7844901316483424 8.633083564296841" fill="#ff6809" stroke="none" /><path d="M 91.90106846888425 80.62456947434976 l -12.008414709361206 -28.728259280933898 a52.13703430233148,52.13703430233148 0 0,0 0.8310050653721078,-0.3389878314598471 l 11.512125774400717 28.930707998577322" fill="#87ff25" stroke="none" /><path d="M 92.57280143429618 80.3572730644239 l -2.621472985618352 -6.933014860174426 a28.41207229226255,28.41207229226255 0 0,0 0.4589465277601392,-0.16903387938313402 l 2.5017441320856433 6.977112007363883" fill="#ff4c07" stroke="none" /><path d="M 92.91201910852362 80.23233633223022 l -7.474266284470359 -20.844974660193564 a43.144471659429634,43.144471659429634 0 0,0 0.7012373620259479,-0.24464794645431687 l 7.114346918381126 20.970543459820092" fill="#f0ff19" stroke="none" /><path d="M 93.25333710446033 80.11325718540243 l -6.17305283086638 -18.19594604460276 a40.2145526544534,40.2145526544534 0 0,0 0.6574450820052842,-0.21674930693040573 l 5.858924926618687 18.299509075792397" fill="#ffea16" stroke="none" /><path d="M 93.59665428221793 80.00007090966166 l -6.203446130569676 -19.375571489540132 a41.34442219482186,41.34442219482186 0 0,0 0.6796523475464621,-0.21117129276078678 l 5.869008410312486 19.479482917183443" fill="#fff817" stroke="none" /><path d="M 94.63758080256005 79.69619591428918 l -3.371702566649408 -12.766325389335535 a34.20406915099824,34.20406915099824 0 0,0 0.5705419711618239,-0.14544385209605515 l 3.1514517068025847 12.822472237600453" fill="#ff9c0e" stroke="none" /><path d="M 95.33964822691252 79.52364482259891 l -3.9335706537654342 -17.28307083749209 a38.7250533331196,38.7250533331196 0 0,0 0.6512397305778157,-0.1423357810873543 l 3.6354881990340977 17.34822011667531" fill="#ffd714" stroke="none" /><path d="M 95.692805502759 79.44645832069477 l -3.028591064844521 -14.452162009569498 a35.76608785660237,35.76608785660237 0 0,0 0.60365252087283,-0.1210870168190164 l 2.7793721345045546 14.502152982465725" fill="#ffb110" stroke="none" /><path d="M 96.04723909329186 79.375362276772 l -3.336893754711963 -17.41117827163279 a38.72805654144902,38.72805654144902 0 0,0 0.6558040883972515,-0.1198440053603589 l 3.036694545211818 17.466037758343884" fill="#ffd714" stroke="none" /><path d="M 97.47563105711357 79.15227682838746 l -2.151023636817985 -17.764418090447943 a38.89417371041155,38.89417371041155 0 0,0 0.6653372493455622,-0.0747583922556989 l 1.844919683962705 17.79881243617424" fill="#ffd914" stroke="none" /><path d="M 97.83486435360386 79.11191278185805 l -0.5544427735698023 -5.348971567241746 a26.37762992556427,26.37762992556427 0 0,0 0.4520307722439629,-0.04292576855648751 l 0.46228687423560305 5.357722880313414" fill="#ff2f04" stroke="none" /><path d="M 98.19473922651362 79.07773832637324 l -0.900491455076395 -10.436341460845124 a31.47511851713481,31.47511851713481 0 0,0 0.5401876906932689,-0.041928961338282146 l 0.720713575020792 10.45029568437187" fill="#ff770a" stroke="none" /><path d="M 99.63851952072746 79.00311137660856 l -0.8385999537531806 -48.71076265023172 a69.71798074478913,69.71798074478913 0 0,0 1.2000804330257044,-0.010329471165966407 l 1.193246383600568e-14 48.71798074478913" fill="#3bff9b" stroke="none" /></svg>