<?xml version="1.0" encoding="utf-8" ?>
<svg baseProfile="full" height="200mm" version="1.1" viewBox="0,0,200,200" width="200mm" xmlns="http://www.w3.org/2000/svg" xmlns:ev="http://www.w3.org/2001/xml-events" xmlns:xlink="http://www.w3.org/1999/xlink"><defs /><rect fill="#1a1a1a" height="200" width="200" x="0" y="0" /><text alignment-baseline="middle" fill="#e1ed5e" style="dominant-baseline: central; font-size:9.0px; font-family:Arial;" text-anchor="middle" x="100.0" y="100.0">2023</text><line stroke="#e1ed5e" stroke-width="0.3" x1="100.0" x2="100.0" y1="15.0" y2="10.0" /><path d="M 100.0 14.0 a86.0,86.0 0 0,1 42.46469731375804,11.215312516191453" fill="none" id="id85" stroke="none" /><text fill="#e1ed5e" style="font-size:6.75px; font-family:Arial;" text-anchor="middle"><textPath startOffset="22.20632615414155" xlink:href="#id85">January</textPath></text><path d="M 106.74666289553966 80.11325718540242 l 3.5003386844849045 -10.317743195433529 a31.895329070432723,31.895329070432723 0 0,0 0.5184023713363098,0.18086040826184846 l -3.6774230598844877 10.255961933999473" fill="#ff7d0b" stroke="none" /><path d="M 107.08798089147638 80.2323363322302 l 1.946741270993244 -5.4292650167042815 a26.767730940135586,26.767730940135586 0 0,0 0.4323851158980114,0.15925108723333695 l -2.039908712663832 5.39495066166462" fill="#ff3505" stroke="none" /><path d="M 107.4271985657038 80.35727306442388 l 5.469248228335495 -14.464531753352603 a36.46400190852603,36.46400190852603 0 0,0 0.5851896435551212,0.2270444902328002 l -5.717421036890283 14.368244559229256" fill="#ffba11" stroke="none" /><path d="M 107.76421540070413 80.48803036053334 l 1.8623859075390559 -4.680294841070104 a26.03722553276578,26.03722553276578 0 0,0 0.4150037798562761,0.1692904619277201 l -1.9426735569837195 4.647543492958805" fill="#ff2a04" stroke="none" /><path d="M 108.09893153111575 80.62456947434976 l 3.0676685286206093 -7.338918500996875 a28.954263948711002,28.954263948711002 0 0,0 0.4581891519706185,0.19617268295774046 l -3.1935414383815433 7.285026290076344" fill="#ff5407" stroke="none" /><path d="M 108.43124777332544 80.76684994638697 l 3.5170146465668597 -8.022925224921424 a29.75994983940241,29.75994983940241 0 0,0 0.46739826716983746,0.20970797814663703 l -3.6545950322034773 7.961196916258256" fill="#ff5f08" stroke="none" /><path d="M 108.76106565485865 80.91482961587045 l 3.5879373695122556 -7.815989369598189 a29.600173509483074,29.600173509483074 0 0,0 0.46122960579120514,0.21655348433277893 l -3.7219451866030586 7.7530709026254065" fill="#ff5d08" stroke="none" /><path d="M 109.08828744355905 81.06846463323043 l 4.327070114675524 -9.01358824962423 a30.998415319993565,30.998415319993565 0 0,0 0.47904173564199676,0.23506369922411174 l -4.481583117327953 8.937769390265286" fill="#ff700a" stroke="none" /><path d="M 109.41281617654863 81.2277094730956 l 7.951558524902622 -15.858056077101413 a38.73993307539362,38.73993307539362 0 0,0 0.5935317704057802,0.3040300257008742 l -8.223350782897157 15.718833526088039" fill="#ffd814" stroke="none" /><path d="M 109.73455568895987 81.39251694778311 l 2.3053800847414014 -4.406705578190342 a25.973311913400984,25.973311913400984 0 0,0 0.39436757912633963,0.21065750295512461 l -2.3808927103960524 4.366369348733464" fill="#ff2904" stroke="none" /><path d="M 110.05341064243156 81.56283822128135 l 5.120019630039579 -9.389711968079254 a31.69491897376887,31.69491897376887 0 0,0 0.47674578107748955,0.2653085110079177 l -5.280889500189104 9.300188059511157" fill="#ff7a0b" stroke="none" /><path d="M 110.36928655335952 81.73862282372117 l 5.328467531583618 -9.38397785277505 a31.791274557554054,31.791274557554054 0 0,0 0.4735435505092753,0.27430698957620414 l -5.489207814558221 9.290866705808796" fill="#ff7b0b" stroke="none" /><line stroke="#e1ed5e" stroke-width="0.3" x1="143.23703022742887" x2="145.7803849466894" y1="26.81831364943548" y2="22.513508569990506" /><path d="M 143.74570117128098 25.957352633546492 a86.0,86.0 0 0,1 28.547481713284135,27.462654790039103" fill="none" id="id86" stroke="none" /><text fill="#e1ed5e" style="font-size:6.75px; font-family:Arial;" text-anchor="middle"><textPath startOffset="19.985693538727396" xlink:href="#id86">February</textPath></text><path d="M 110.68208982089419 81.91981866633111 l 11.010288910402007 -18.635681161075272 a42.64520903636131,42.64520903636131 0 0,0 0.6287892577017071,0.3788384921942538 l -11.329440234321352 18.443396059422405" fill="#f6ff19" stroke="none" /><path d="M 110.99172775467656 82.1063720568725 l 6.584480520780496 -10.718992251922234 a33.579832217692996,33.579832217692996 0 0,0 0.48991511705018875,0.306784801351929 l -6.768014790202948 10.604063109247361" fill="#ff940d" stroke="none" /><path d="M 111.2981086023043 82.29822771554956 l 6.68981470897544 -10.481539943712153 a33.43448030406006,33.43448030406006 0 0,0 0.4824642860902964,0.313808192290348 l -6.869246020850017 10.364832827262278" fill="#ff920d" stroke="none" /><path d="M 111.60114157652 82.49532879139004 l 3.8563137454720877 -5.818694974669993 a27.980570672356723,27.980570672356723 0 0,0 0.3991832200601936,0.26953029210014073 l -3.955901659938823 5.751452770271182" fill="#ff4606" stroke="none" /><path d="M 111.90073688211348 82.69761687909136 l 7.396509889451195 -10.753724675420813 a34.05185630243851,34.05185630243851 0 0,0 0.48008068050115443,0.3363271966261978 l -7.580521709536001 10.62481263603068" fill="#ff9a0e" stroke="none" /><path d="M 112.19680574252982 82.90503203632743 l 14.792203215165163 -20.732661109262942 a46.46865745637737,46.46865745637737 0 0,0 0.6471417388509049,0.47017599492251866 l -15.146890270369857 20.474965879523747" fill="#c8ff1d" stroke="none" /><path d="M 112.48926042617603 83.11751280151076 l 6.471519123389748 -8.7479430348349 a31.881501142081255,31.881501142081255 0 0,0 0.43837647993964135,0.3301760761930026 l -6.621141757087772 8.63525036913605" fill="#ff7d0b" stroke="none" /><path d="M 112.77801427241765 83.33499621200491 l 7.798655637149636 -10.170956375820216 a33.816683788940246,33.816683788940246 0 0,0 0.4588882843959913,0.3581695847364274 l -7.972576476705058 10.035208401860563" fill="#ff970d" stroke="none" /><path d="M 113.06298171725822 83.55741782278167 l 1.595835610679868 -2.0087035822203183 a23.56545929173291,23.56545929173291 0 0,0 0.31543669134156926,0.25506120058005965 l -1.6301757005859283 1.9809362843761291" fill="#ff0600" stroke="none" /><path d="M 113.34407831869373 83.78471172551755 l 4.803426083707745 -5.8369665399351485 a28.559304235838535,28.559304235838535 0 0,0 0.3769045675549621,0.31564673613218647 l -4.903188188221825 5.753418646409142" fill="#ff4e07" stroke="none" /><path d="M 113.6212207817346 84.01681056812373 l 7.809827264255527 -9.16407938723184 a33.04050467850067,33.04050467850067 0 0,0 0.4296936535018635,0.3726261020452423 l -7.966414716404155 9.028288291766927" fill="#ff8c0c" stroke="none" /><path d="M 113.89432698308785 84.25364557470407 l 3.635558229901325 -4.120155549204255 a26.494812589401196,26.494812589401196 0 0,0 0.3393720701072551,0.3046915953720041 l -3.70594128760457 4.056964945062954" fill="#ff3104" stroke="none" /><path d="M 114.16331599549186 84.49514656593476 l 9.524247289397563 -10.42637602231751 a35.121636002544264,35.121636002544264 0 0,0 0.4428539200809901,0.4115844547515209 l -9.7023090932734 10.26088698149135" fill="#ffa80f" stroke="none" /><path d="M 114.42810811169701 84.74124197986012 l 9.043146779191565 -9.56377560911287 a34.16223034183284,34.16223034183284 0 0,0 0.4238015923628438,0.40769679607549414 l -9.206431615166826 9.406695726275075" fill="#ff9c0e" stroke="none" /><path d="M 114.68862486808459 84.99185889309783 l 11.35177460734924 -11.598705573251035 a37.22937946167455,37.22937946167455 0 0,0 0.4541349619079513,0.45218476205790287 l -11.549745369424514 11.401584960543014" fill="#ffc412" stroke="none" /><path d="M 114.94478906791727 85.2469230424477 l 3.4288698273316403 -3.3848842034611977 a25.8181520693754,25.8181520693754 0 0,0 0.30949292957187213,0.3189596691203756 l -3.4866270206066217 3.325360338790708" fill="#ff2703" stroke="none" /><path d="M 115.19652480421416 85.50635884689758 l 6.872818321599792 -6.554930403305859 a30.497512530863084,30.497512530863084 0 0,0 0.3590467474402212,0.38300603635873104 l -6.984632391010476 6.435654950069073" fill="#ff6909" stroke="none" /><path d="M 115.4437574822437 85.77008943001954 l 6.1727055572832725 -5.687543860744523 a29.393476577962705,29.393476577962705 0 0,0 0.3396435245736313,0.37504286292966194 l -6.26969272247294 5.5804482105453115" fill="#ff5a08" stroke="none" /><path d="M 115.68641384162765 86.03803664274999 l 5.572971623069591 -4.960319571947368 a28.46074949099506,28.46074949099506 0 0,0 0.32256618797759234,0.3687489140621251 l -5.657529674625032 4.863655101682295" fill="#ff4d07" stroke="none" /><path d="M 115.9244219780498 86.31012108654704 l 12.591181847403504 -10.82436493492937 a37.60435896260112,37.60435896260112 0 0,0 0.4177475158378781,0.49448129440270444 l -12.7756399767285 10.60602469089756" fill="#ffc912" stroke="none" /><path d="M 116.15771136456269 86.58626213691792 l 8.265733306604305 -6.8620101770172655 a31.742882795851227,31.742882795851227 0 0,0 0.3453950754616107,0.42341352254250453 l -8.382626874142325 6.71871248486666" fill="#ff7b0b" stroke="none" /><path d="M 116.38621287248628 86.86637796730983 l 3.9869100654369403 -3.1955260367511524 a26.10948515228657,26.10948515228657 0 0,0 0.27806094343339877,0.35310916062950465 l -4.041325089464303 3.126424482168609" fill="#ff2b04" stroke="none" /><path d="M 116.60985879189232 87.15038557335679 l 9.107835881969637 -7.045946676053743 a32.51512218843927,32.51512218843927 0 0,0 0.3386590251983069,0.4456355799962489 l -9.227770847392057 6.88812632017646" fill="#ff850c" stroke="none" /><path d="M 116.82858285166822 87.43820079747576 l 3.9585612315254166 -2.9548923851535123 a25.939797165023503,25.939797165023503 0 0,0 0.2640144989513602,0.3601154798641937 l -4.008838342990403 2.886314461617825" fill="#ff2903" stroke="none" /><path d="M 117.04232023915458 87.72973835380427 l 1.769056426541191 -1.2736989398118055 a23.17987835201059,23.17987835201059 0 0,0 0.2303499088831323,0.3258136102402987 l -1.7907189552282063 1.2430588292397136" fill="#ff0000" stroke="none" /><path d="M 117.45458315368197 88.32363383020206 l 6.16815435499538 -4.126230240311825 a28.421044680037458,28.421044680037458 0 0,0 0.26851575672200856,0.40896791929479753 l -6.238266747075313 4.019444257039353" fill="#ff4c07" stroke="none" /><line stroke="#e1ed5e" stroke-width="0.3" x1="172.23445277983987" x2="176.4835382374775" y1="55.19839476539836" y2="52.563006222186495" /><path d="M 173.08426987136738 54.67131705675599 a86.0,86.0 0 0,1 12.851231095245387,41.99856678651699" fill="none" id="id87" stroke="none" /><text fill="#e1ed5e" style="font-size:6.75px; font-family:Arial;" text-anchor="middle"><textPath startOffset="22.20632615414155" xlink:href="#id87">March</textPath></text><path d="M 117.84615892207809 88.93136811851018 l 4.733051292415446 -2.9355561978743077 a26.569494117737605,26.569494117737605 0 0,0 0.23771372344047614,0.3907388587210598 l -4.782880814142146 2.8536495659461663" fill="#ff3204" stroke="none" /><path d="M 120.37134235888165 94.90015583598534 l 10.258079346175055 -2.5680490350593677 a31.57464267570742,31.57464267570742 0 0,0 0.12745209725642598,0.5283712257771787 l -10.3007642436923 2.391092577622783" fill="#ff780b" stroke="none" /><path d="M 120.45610955862082 95.25157060432595 l 5.380066676928562 -1.248862433308966 a26.52311278406729,26.52311278406729 0 0,0 0.09940561191829093,0.44561586674797027 l -5.400766675848891 1.156068397011032" fill="#ff3104" stroke="none" /><path d="M 120.53481517161879 95.60439243477599 l 5.8115494381426185 -1.243999055383721 a26.9432012015219,26.9432012015219 0 0,0 0.09317305912182962,0.4543449260164818 l -5.8321017931794445 1.1437784732038274" fill="#ff3705" stroke="none" /><path d="M 120.6074358757038 95.95851677861258 l 6.233596733514249 -1.222518743202588 a27.35234447377983,27.35234447377983 0 0,0 0.0866343520019822,0.46280417258712836 l -6.25371680942609 1.1150364931528967" fill="#ff3d05" stroke="none" /><path d="M 120.73433829027371 96.67025291283417 l 3.020881846636455 -0.48512628610040315 a24.059587332436067,24.059587332436067 0 0,0 0.06214718186033964,0.40947227943299364 l -3.028784921936094 0.43305489427532734" fill="#ff0d01" stroke="none" /><path d="M 120.78858239683441 97.02765380044208 l 2.949816308144884 -0.4217639820521638 a23.97981561650281,23.97981561650281 0 0,0 0.05490692746175407,0.4091203855268704 l -2.9566392346644745 0.370925254460629" fill="#ff0c01" stroke="none" /><path d="M 120.83666639777658 97.38593545837742 l 3.019056146543405 -0.3787557698139729 a24.042721799499404,24.042721799499404 0 0,0 0.04798199921190179,0.4110804671344679 l -3.025128498758896 0.3267315643546523" fill="#ff0d01" stroke="none" /><path d="M 120.87857604477298 97.74499172005257 l 2.9343958973022772 -0.31693191292693584 a23.951461522625014,23.951461522625014 0 0,0 0.040743573795222345,0.4102822278609252 l -2.9394165967797283 0.2663741543615757" fill="#ff0b01" stroke="none" /><path d="M 120.91429891909075 98.10471618934814 l 4.446082529660408 -0.4029103854681733 a25.464301360713634,25.464301360713634 0 0,0 0.03580222104052439,0.4368777803948761 l -4.452359234520427 0.3263186878655284" fill="#ff2203" stroke="none" /><path d="M 120.94382443527127 98.46500227214037 l 2.9989239292489622 -0.21979469087167308 a24.0069676485718,24.0069676485718 0 0,0 0.02665849034956243,0.4123950463806143 l -3.0022630106029404 0.16814058023802353" fill="#ff0c01" stroke="none" /><line stroke="#e1ed5e" stroke-width="0.3" x1="184.98032266829074" x2="189.97916517819016" y1="98.17113171792111" y2="98.06355123074" /><path d="M 185.9800911702706 98.14961562048488 a86.0,86.0 0 0,1 -9.607161424134198,41.387399972396054" fill="none" id="id88" stroke="none" /><text fill="#e1ed5e" style="font-size:6.75px; font-family:Arial;" text-anchor="middle"><textPath startOffset="21.466115282336823" xlink:href="#id88">April</textPath></text><path d="M 120.8583938346157 102.4346265915055 l 2.925236941422463 0.34143854510131244 a23.945096168810714,23.945096168810714 0 0,0 -0.05130919945407435,0.40898480322063446 l -2.9189262327215406 -0.3917411026093418" fill="#ff0b01" stroke="none" /><path d="M 118.64920377521936 109.65438752849418 l 3.2516814475589557 1.683342259129765 a24.661567068588422,24.661567068588422 0 0,0 -0.19840523330864715,0.37530793045557703 l -3.2222237060254155 -1.7390652046714763" fill="#ff1602" stroke="none" /><line stroke="#e1ed5e" stroke-width="0.3" x1="174.80103733775053" x2="179.2010983576182" y1="140.37084112569926" y2="142.7455964860345" /><path d="M 175.68104954172406 140.8457921977663 a86.0,86.0 0 0,1 -30.038265399797805,32.042727171017184" fill="none" id="id89" stroke="none" /><text fill="#e1ed5e" style="font-size:6.75px; font-family:Arial;" text-anchor="middle"><textPath startOffset="22.206326154141568" xlink:href="#id89">May</textPath></text><path d="M 118.48025628344425 109.97397251340804 l 12.420768349563325 6.703608446433533 a35.114313748695295,35.114313748695295 0 0,0 -0.29165546112826934,0.5294393790031533 l -12.303536478983546 -6.916418343834492" fill="#ffa80f" stroke="none" /><path d="M 118.30583269289576 110.29060199501025 l 15.39521516500504 8.654401826369568 a38.66101132294156,38.66101132294156 0 0,0 -0.3311002720552996,0.5773012328534018 l -15.243962896797361 -8.918122905081285" fill="#ffd714" stroke="none" /><path d="M 118.12598468904814 110.60418214915192 l 17.85621883196349 10.446361962540154 a41.68746067615292,41.68746067615292 0 0,0 -0.3676816648000777,0.6162556192147755 l -17.673756291465182 -10.752179675641035" fill="#fffd17" stroke="none" /><path d="M 117.94076556474637 110.91462005526583 l 10.88660652247639 6.62308269149318 a33.742975551792526,33.742975551792526 0 0,0 -0.30615380978266227,0.49361742286488325 l -10.770988073025764 -6.809496445723338" fill="#ff960d" stroke="none" /><path d="M 117.75023020441432 111.22182372390056 l 12.491318884119432 7.89710200838736 a35.778270115126276,35.778270115126276 0 0,0 -0.33358148977733076,0.517725880007746 l -12.35353253096505 -8.11094948831656" fill="#ffb110" stroke="none" /><path d="M 117.35343817320211 111.8261652097733 l 4.653257761604666 3.1711407562667646 a26.63106930271598,26.63106930271598 0 0,0 -0.2614144984459121,0.37658708222593074 l -4.597982355996619 -3.250769100679715" fill="#ff3304" stroke="none" /><path d="M 116.93607887273984 112.41649034213515 l 5.127945783945637 3.759494141459038 a27.35842937860842,27.35842937860842 0 0,0 -0.2817120054305745,0.3773992679922302 l -5.06247251181997 -3.847206288960583" fill="#ff3d05" stroke="none" /><path d="M 116.498646956653 112.99209946851258 l 4.423159589735884 3.483081340302329 a26.629937511148306,26.629937511148306 0 0,0 -0.28669294639853216,0.35769353168787715 l -4.362548731282498 -3.558702705568456" fill="#ff3304" stroke="none" /><path d="M 116.27256486870786 113.27417163493432 l 15.547881647132254 12.683019008303834 a41.06478494472912,41.06478494472912 0 0,0 -0.4515249098690167,0.5438908410200153 l -15.327260737369695 -12.94877110643762" fill="#fff517" stroke="none" /><path d="M 116.0416608686014 113.55231037782055 l 5.622996756330893 4.750418171751215 a28.361016596110343,28.361016596110343 0 0,0 -0.31826123795527894,0.37020972095494353 l -5.540393008804835 -4.846504991867686" fill="#ff4b07" stroke="none" /><path d="M 115.80600337817218 113.82643327865902 l 5.594805163920409 4.894102478357692 a28.433309080813025,28.433309080813025 0 0,0 -0.325414010132712,0.365606090074338 l -5.509732304139359 -4.989682738172896" fill="#ff4c07" stroke="none" /><path d="M 115.56566222782051 114.09645910891815 l 11.182168185794147 10.126711878558073 a36.08612537422104,36.08612537422104 0 0,0 -0.4209250491396269,0.4568310071342084 l -11.006196728658798 -10.317694140493616" fill="#ffb510" stroke="none" /><path d="M 115.32070863581623 114.36230785411682 l 8.430080155409645 7.902728868808867 a32.55505841614557,32.55505841614557 0 0,0 -0.38677494258587736,0.40553198099544946 l -8.292798661444802 -8.046667966386824" fill="#ff860c" stroke="none" /><path d="M 115.07121518719521 114.62390073753431 l 7.4376690018876745 7.216918599546802 a31.363533869010386,31.363533869010386 0 0,0 -0.37928873606778174,0.38421748715058596 l -7.312339640764358 -7.343876580678052" fill="#ff750a" stroke="none" /><path d="M 114.81725581225074 114.88116024355365 l 5.088555073502194 5.110501189722774 a28.211838541330692,28.211838541330692 0 0,0 -0.3470728490818661,0.3396838319781182 l -4.999832272044534 -5.197335124623464" fill="#ff4906" stroke="none" /><path d="M 114.29624159901734 115.38237550388516 l 5.198092283531343 5.593008963602226 a28.63556891495604,28.63556891495604 0 0,0 -0.3639450592702111,0.3324551825892703 l -5.101047674794269 -5.681656912778079" fill="#ff4f07" stroke="none" /><path d="M 114.0293411484842 115.62618273729858 l 10.105189112478305 11.255377568718318 a36.12608248071382,36.12608248071382 0 0,0 -0.4662976626630872,0.4114534718005852 l -9.90994909690863 -11.427654182291192" fill="#ffb610" stroke="none" /><path d="M 113.75828350139079 115.86535959552629 l 7.900512165396711 9.110472718502864 a33.05897199723784,33.05897199723784 0 0,0 -0.4331268812053702,0.3691201246502318 l -7.742519807614293 -9.245117233376043" fill="#ff8d0d" stroke="none" /><path d="M 113.48314897796784 116.09983520530334 l 4.672696837477539 5.579531099942572 a28.27772375335853,28.27772375335853 0 0,0 -0.3758646379201762,0.3093110082740364 l -4.575962071012671 -5.659137227073787" fill="#ff4a06" stroke="none" /><path d="M 113.20401910651253 116.32954008644616 l 4.630579234742268 5.72668280977372 a28.364588247348532,28.364588247348532 0 0,0 -0.38230400836045164,0.3037254257160699 l -4.531317733664466 -5.805542149494916" fill="#ff4b07" stroke="none" /><path d="M 112.92097659922987 116.55440617244103 l 3.4359865924439226 4.402199571955617 a26.584385815358804,26.584385815358804 0 0,0 -0.3631569790986433,0.2784532857648292 l -3.3597008848517858 -4.460692199547817" fill="#ff3204" stroke="none" /><path d="M 112.63410532772338 116.77436683061366 l 14.071984387336933 18.683446276950832 a44.38999592520619,44.38999592520619 0 0,0 -0.6143047609011242,0.4544479761619773 l -13.748294656017244 -18.92290420185258" fill="#e0ff1b" stroke="none" /><path d="M 112.04921762599082 117.19931262002967 l 6.327447081070053 9.031934172993164 a32.02780220483772,32.02780220483772 0 0,0 -0.4542504946367121,0.3124376322882835 l -6.171039701810457 -9.139512594646543" fill="#ff7f0b" stroke="none" /><path d="M 111.7513745106137 117.40417183066458 l 8.135654103843125 12.049171086348311 a35.5386172508073,35.5386172508073 0 0,0 -0.5099373594983151,0.3379586758411632 l -7.9270420456048445 -12.187427783280793" fill="#ffae10" stroke="none" /><path d="M 111.45004920935366 117.60387380957326 l 2.9010177584784254 4.460168651316043 a26.320621057093764,26.320621057093764 0 0,0 -0.3819224865487251,0.2437610009524269 l -2.82381346988277 -4.509444081092279" fill="#ff2e04" stroke="none" /><path d="M 111.1453310114006 117.79835938074945 l 7.839771671725787 12.519598882587115 a35.77167478810953,35.77167478810953 0 0,0 -0.5246866613330837,0.3223054014654693 l -7.623105810460395 -12.652692750880963" fill="#ffb110" stroke="none" /><line stroke="#e1ed5e" stroke-width="0.3" x1="143.8653032363475" x2="146.44561519142675" y1="172.8068346515853" y2="177.08958963109032" /><path d="M 144.38136562736335 173.6633856474863 a86.0,86.0 0 0,1 -40.68145358897372,12.25698825130547" fill="none" id="id90" stroke="none" /><text fill="#e1ed5e" style="font-size:6.75px; font-family:Arial;" text-anchor="middle"><textPath startOffset="21.466115282336833" xlink:href="#id90">June</textPath></text><path d="M 110.8373102113329 117.98757091392108 l 8.262002316199965 13.713121582347755 a37.00969661814818,37.00969661814818 0 0,0 -0.5485050795742832,0.32406646919620374 l -8.024729365597299 -13.853306623837708" fill="#ffc112" stroke="none" /><path d="M 110.5260780823613 118.17145234162733 l 11.654668023257845 20.11976757962727 a44.251587777839376,44.251587777839376 0 0,0 -0.662406723031362,0.3761318250907353 l -11.306612533305284 -20.31740257051263" fill="#e2ff1b" stroke="none" /><path d="M 108.92500713936063 119.00905698771935 l 3.4649351246109803 7.37984275127415 a29.15278200685487,29.15278200685487 0 0,0 -0.45607723341274015,0.20936268868408886 l -3.337389895430821 -7.438392510292313" fill="#ff5708" stroke="none" /><path d="M 108.2653958097858 119.30500536409082 l 8.680604164011047 20.274783423121413 a43.05492533441736,43.05492533441736 0 0,0 -0.683811733725429,0.285833360156003 l -8.330320970788156 -20.421201826297388" fill="#f1ff19" stroke="none" /><path d="M 107.93186726928326 119.44442032107085 l 3.8184581360753826 9.360684244401334 a31.109551526172844,31.109551526172844 0 0,0 -0.4975734614967168,0.19799474907547598 l -3.6567635985367994 -9.42502583788288" fill="#ff720a" stroke="none" /><path d="M 107.59598834532513 119.57807347666477 l 3.5588654575559926 9.172700938183592 a30.83890064216218,30.83890064216218 0 0,0 -0.4965500317204818,0.1877527338994371 l -3.400445205075236 -9.232601922189659" fill="#ff6e0a" stroke="none" /><path d="M 107.2578585660854 119.70592522655815 l 5.057170660683436 13.730803099835272 a35.63249564694018,35.63249564694018 0 0,0 -0.5773829178380888,0.20702897203648038 l -4.820068182215612 -13.815819612911714" fill="#ffaf10" stroke="none" /><path d="M 106.91757812671514 119.82793768551818 l 5.531781209653627 15.855811254424774 a37.79307458113077,37.79307458113077 0 0,0 -0.616081586403895,0.20900832370423797 l -5.258029890312506 -15.948682565027136" fill="#ffcb13" stroke="none" /><path d="M 106.57524785965236 119.94407469862006 l 4.578857231940561 13.888612660294056 a35.62393569386076,35.62393569386076 0 0,0 -0.5840266982499628,0.18698690582437819 l -4.339109188599657 -13.965372412778141" fill="#ffaf10" stroke="none" /><path d="M 106.2309692047433 120.05430185196036 l 1.3581134017325658 4.371072173941133 a25.57719826550785,25.57719826550785 0 0,0 -0.42156706682837164,0.12701469906800772 l -1.2826713604639484 -4.393802242114867" fill="#ff2303" stroke="none" /><path d="M 105.88484417918355 120.15858648285463 l 2.072950052040355 7.100908983539311 a28.397298852335453,28.397298852335453 0 0,0 -0.4704064371783978,0.13294155790951367 l -1.9504124467573516 -7.135539334787344" fill="#ff4c07" stroke="none" /><path d="M 105.53697534728816 120.25689768951611 l 4.006864735374257 14.659023006118193 a36.196773358232605,36.196773358232605 0 0,0 -0.602434201337546,0.15910834801249674 l -3.753940091225213 -14.725822703434273" fill="#ffb710" stroke="none" /><path d="M 104.83641907484287 120.43548508189849 l 5.679821605560636 23.999142318338123 a45.66210058950456,45.66210058950456 0 0,0 -0.766427161628413,0.17443632671401896 l -5.26587429453936 -24.093355378629827" fill="#d1ff1c" stroke="none" /><path d="M 104.48393922423573 120.51570834832081 l 3.1439251904472436 14.384640168076409 a35.7242024696812,35.7242024696812 0 0,0 -0.6018822793999481,0.12613028364004705 l -2.8958514496179175 -14.436626432442997" fill="#ffb010" stroke="none" /><path d="M 103.06178313531738 120.77559828337769 l 2.151898035524555 14.601611922528782 a35.75932708125371,35.75932708125371 0 0,0 -0.6097329821997829,0.08450343543330281 l -1.9002364621379417 -14.636489923454688" fill="#ffb110" stroke="none" /><path d="M 101.98527174616119 120.90594882070398 l 1.729998613463483 18.217789349438455 a39.29974710161588,39.29974710161588 0 0,0 -0.6740012966651112,0.058155667925816376 l -1.4161529990568302 -18.244869269642933" fill="#ffdf14" stroke="none" /><path d="M 101.26447882468166 120.96189622390904 l 1.2616692220618255 20.91532003979438 a41.95333915138402,41.95333915138402 0 0,0 -0.7212217144545493,0.037278924549319366 l -0.9014594391937967 -20.9339387711059" fill="#feff18" stroke="none" /><path d="M 100.90346689309514 120.98055641714683 l 0.867122575981556 20.136558699607914 a41.155220113522255,41.155220113522255 0 0,0 -0.7080258785412189,0.024385842842430325 l -0.5203763457656848 -20.14850134087644" fill="#fff617" stroke="none" /><line stroke="#e1ed5e" stroke-width="0.3" x1="102.19456741930631" x2="102.32365962044197" y1="184.97166512339345" y2="189.96999836594603" /><path d="M 102.22038585953345 185.97133177190398 a86.0,86.0 0 0,1 -42.740103519485714,-10.115201625700543" fill="none" id="id91" stroke="none" /><text fill="#e1ed5e" style="font-size:6.75px; font-family:Arial;" text-anchor="middle"><textPath startOffset="22.20632615414155" xlink:href="#id91">July</textPath></text><path d="M 100.54218724476979 120.99299961872073 l 0.33739251270302223 13.063532864077374 a34.06788906436145,34.06788906436145 0 0,0 -0.5863575422916661,0.0100946768454313 l -0.11247528051868808 -13.067405018201965" fill="#ff9a0e" stroke="none" /><path d="M 99.81925306533755 120.99922214144158 l -0.12670745573898515 14.720902542601305 a35.721447838039076,35.721447838039076 0 0,0 -0.6148176754316061,-0.010584643847310057 l 0.38008482106325925 -14.716540421474834" fill="#ffb010" stroke="none" /><path d="M 99.45781275523022 120.99299961872073 l -1.002216057889907 38.80489908996711 a59.81783907444131,59.81783907444131 0 0,0 -1.0290937078284264,-0.03544406806279794 l 1.6700301173929764 -38.781898223478215" fill="#37ff2e" stroke="none" /><path d="M 99.09653310690486 120.98055641714683 l -0.628178018511897 14.587722536516374 a35.6012416056077,35.6012416056077 0 0,0 -0.6120225237580237,-0.031634573707913206 l 0.8791886106834097 -14.574748156046258" fill="#ffaf10" stroke="none" /><path d="M 97.2962882734958 120.8252237178851 l -0.9927970477526994 7.646976718423365 a28.711154187936813,28.711154187936813 0 0,0 -0.48955444898698336,-0.06784778579929432 l 1.1242800879265138 -7.6287543671314655" fill="#ff5007" stroke="none" /><path d="M 96.93821686468263 120.77559828337769 l -0.9532396258041748 6.468166639585352 a27.538030702103512,27.538030702103512 0 0,0 -0.46836175969709243,-0.07314847451860491 l 1.0644372491097844 -6.450799857719641" fill="#ff4006" stroke="none" /><path d="M 95.86986931433489 120.58985236759428 l -3.305904262786575 16.48085397114129 a37.80915079987071,37.80915079987071 0 0,0 -0.6370095423380089,-0.13349154312470116 l 3.589105266553971 -16.421506447290046" fill="#ffcc13" stroke="none" /><path d="M 95.51606077576429 120.51570834832081 l -3.916674754218939 17.920260051357648 a39.343283823749246,39.343283823749246 0 0,0 -0.6603673716471113,-0.1502974638153011 l 4.224562275258913 -17.85018585396466" fill="#ffdf14" stroke="none" /><path d="M 94.81253420990036 120.34920634021253 l -1.9603183105286732 7.689866961547437 a28.935798747756447,28.935798747756447 0 0,0 -0.48158753367734375,-0.1271916447251671 l 2.092396287017506 -7.654983967518688" fill="#ff5407" stroke="none" /><path d="M 94.46302465271185 120.25689768951611 l -2.7062440251231163 9.900731880020476 a31.26392948551228,31.26392948551228 0 0,0 -0.5178926966945179,-0.1463616491761949 l 2.8762678899222482 -9.85268143750576" fill="#ff740a" stroke="none" /><path d="M 94.11515582081647 120.15858648285463 l -4.12724561117813 14.137916834436835 a35.72802935740018,35.72802935740018 0 0,0 -0.5888745273585612,-0.17742306448172754 l 4.3699951129769365 -14.064778400849383" fill="#ffb010" stroke="none" /><path d="M 93.42475214034765 119.94407469862007 l -2.9827610083417584 9.04732561087737 a30.52633003533478,30.52633003533478 0 0,0 -0.49762317683059715,-0.16882079958409027 l 3.138053918109581 -8.994641824395158" fill="#ff6a09" stroke="none" /><path d="M 92.7421414339146 119.70592522655815 l -5.069660406616556 13.764714204221756 a35.668633670602034,35.668633670602034 0 0,0 -0.574315582324905,-0.21715701100437773 l 5.305846209701744 -13.675408943110744" fill="#ffb010" stroke="none" /><path d="M 92.40401165467489 119.57807347666478 l -2.671479138964652 6.885531216779206 a28.385617166301287,28.385617166301287 0 0,0 -0.4540062166526208,-0.1806584432265473 l 2.7896064316591307 -6.838525929146592" fill="#ff4c07" stroke="none" /><path d="M 92.06813273071674 119.44442032107085 l -3.8741812714314836 9.497285630769454 a31.257081206480255,31.257081206480255 0 0,0 -0.49643469881746,-0.20750974436774522 l 4.037087429746406 -9.429190843381736" fill="#ff740a" stroke="none" /><path d="M 91.40352486487194 119.15986991738527 l -7.541376727397101 16.808260923652725 a39.42254049315994,39.42254049315994 0 0,0 -0.6167412495313286,-0.2831156584117636 l 7.82958597269585 -16.675958194906887" fill="#ffe015" stroke="none" /><path d="M 91.07499286063937 119.00905698771935 l -8.835149862335362 18.81767315204692 a41.78857128200954,41.78857128200954 0 0,0 -0.6484936191988473,-0.31131634610779013 l 9.157756149534451 -18.662802529439563" fill="#fffe18" stroke="none" /><line stroke="#e1ed5e" stroke-width="0.3" x1="58.666819895761336" x2="56.23545636021788" y1="174.27360380694188" y2="178.64263932499728" /><path d="M 58.180547188652646 175.14741091055294 a86.0,86.0 0 0,1 -31.652253787137756,-30.449443065178592" fill="none" id="id92" stroke="none" /><text fill="#e1ed5e" style="font-size:6.75px; font-family:Arial;" text-anchor="middle"><textPath startOffset="22.20632615414155" xlink:href="#id92">August</textPath></text><path d="M 89.7882731507175 118.34994917583269 l -3.609301972095646 6.485730447523807 a28.42238237789666,28.42238237789666 0 0,0 -0.42545766416803643,-0.2415859654775696 l 3.72040840318489 -6.422641316251604" fill="#ff4c07" stroke="none" /><path d="M 89.4739219176387 118.17145234162733 l -13.2263224043864 22.832956904343053 a47.38710907508363,47.38710907508363 0 0,0 -0.7023043258689787,-0.41493377483800936 l 13.61739460128376 -22.601904557211295" fill="#bdff1f" stroke="none" /><path d="M 89.1626897886671 117.98757091392108 l -3.1033182720290915 5.150831377717362 a27.013455593848462,27.013455593848462 0 0,0 -0.3962241049814407,-0.24339320710359966 l 3.191521576942841 -5.096649703785384" fill="#ff3805" stroke="none" /><path d="M 88.8546689885994 117.79835938074946 l -6.561766544064726 10.47870888754931 a33.36366127523769,33.36366127523769 0 0,0 -0.4841197495670129,-0.3089881295068442 l 6.741168095678663 -10.36420632921866" fill="#ff910d" stroke="none" /><path d="M 88.54995079064634 117.60387380957326 l -9.421839991749872 14.485604318037506 a38.28015628658734,38.28015628658734 0 0,0 -0.549275220254156,-0.3640296649221476 l 9.669789910743988 -14.32127663202404" fill="#ffd213" stroke="none" /><path d="M 88.24862548938628 117.40417183066458 l -10.53090861238064 15.596621727727266 a39.81899693182734,39.81899693182734 0 0,0 -0.5647530522555728,-0.38844229903464805 l 10.797818549259103 -15.413038639327516" fill="#ffe515" stroke="none" /><path d="M 87.65650970185807 116.9893568818739 l -15.793804227969968 21.738306594839052 a47.87002466695304,47.87002466695304 0 0,0 -0.6624642206976483,-0.4900751931893746 l 16.16565341908618 -21.46322145290991" fill="#b7ff1f" stroke="none" /><path d="M 87.36589467227662 116.77436683061367 l -8.840890784528598 11.738096310124545 a35.69504184579691,35.69504184579691 0 0,0 -0.48761343051342654,-0.3738811856143415 l 9.041632943535511 -11.584175782682838" fill="#ffb010" stroke="none" /><path d="M 86.51685102203217 116.09983520530335 l -6.1530308015719495 7.347154739618887 a30.583343404730805,30.583343404730805 0 0,0 -0.40069207677813473,-0.3414784806592919 l 6.278588354927141 -7.2401518687366435" fill="#ff6b09" stroke="none" /><path d="M 86.24171649860922 115.8653595955263 l -15.11546173770235 17.430389183129186 a44.07153333914525,44.07153333914525 0 0,0 -0.5688536252717898,-0.5019471848254566 l 15.413257715880729 -17.16761885653144" fill="#e4ff1a" stroke="none" /><path d="M 85.97065885151581 115.62618273729859 l -13.279378621415214 14.790858300457709 a40.87740893162683,40.87740893162683 0 0,0 -0.5195332790704201,-0.47458133241567274 l 13.532011449952488 -14.56008420145546" fill="#fff316" stroke="none" /><path d="M 85.70375840098266 115.38237550388516 l -5.481533705110519 5.89798439017767 a29.05192098986584,29.05192098986584 0 0,0 -0.36337612314985823,-0.3435948052322166 l 5.582245662651194 -5.802754948199523" fill="#ff5507" stroke="none" /><path d="M 85.44109423537348 115.13401014063109 l -10.259532338335081 10.664803313978922 a35.79851457164533,35.79851457164533 0 0,0 -0.4404070449743045,-0.4310309869031148 l 10.44158933568518 -10.486622224153237" fill="#ffb110" stroke="none" /><path d="M 84.9287848128048 114.62390073753433 l -5.325653673870383 5.1675879961780025 a28.420684116188486,28.420684116188486 0 0,0 -0.3376559282055786,-0.35403089079293737 l 5.413816153454919 -5.075149988802565" fill="#ff4c07" stroke="none" /><path d="M 84.67929136418377 114.36230785411682 l -5.581993005107087 5.23280638543411 a28.651203080333474,28.651203080333474 0 0,0 -0.33420071951292946,-0.36270887558754844 l 5.671240132615746 -5.135946255045217" fill="#ff5007" stroke="none" /><path d="M 84.43433777217949 114.09645910891817 l -7.857028231340202 7.115423395398374 a31.600101071398303,31.600101071398303 0 0,0 -0.3616573639394593,-0.4063258822893778 l 7.978344444927999 -6.979123343368132" fill="#ff790b" stroke="none" /><path d="M 83.95833913139862 113.55231037782056 l -13.69139807702457 11.5667621804244 a38.923291233533206,38.923291233533206 0 0,0 -0.4279782687205555,-0.5155273948899947 l 13.888472345638661 -11.329373528420644" fill="#ffda14" stroke="none" /><path d="M 83.72743513129214 113.27417163493432 l -13.78356392674847 11.243795602043722 a38.78790527474496,38.78790527474496 0 0,0 -0.41758336245393396,-0.5209994510385029 l 13.975065201257266 -11.00486831742696" fill="#ffd814" stroke="none" /><path d="M 83.28015986056508 112.70617746262583 l -15.4222926519632 11.72011129784747 a40.370289607456314,40.370289607456314 0 0,0 -0.41569620418423453,-0.556892997607587 l 15.62175012284252 -11.452905420730577" fill="#ffec16" stroke="none" /><path d="M 83.06392112726016 112.41649034213515 l -5.2620291842979885 3.857795835613011 a27.52468695384513,27.52468695384513 0 0,0 -0.2768461949136941,-0.3845151510826495 l 5.32765517158729 -3.7666470790792235" fill="#ff3f06" stroke="none" /><path d="M 82.6465618267979 111.8261652097733 l -25.67275872579036 17.495684892616463 a52.067499584845464,52.067499584845464 0 0,0 -0.49835265359914394,-0.7449695997547529 l 25.970114484800234 -17.05117837865589" fill="#88ff25" stroke="none" /><path d="M 82.24976979558568 111.22182372390057 l -26.233947254834046 16.585290910911116 a52.036943521696294,52.036943521696294 0 0,0 -0.472137037356411,-0.7612352359239833 l 26.51554893185841 -16.131259343621867" fill="#88ff25" stroke="none" /><line stroke="#e1ed5e" stroke-width="0.3" x1="26.63291911575756" x2="22.317208475507996" y1="142.92168965132927" y2="145.44649492493687" /><path d="M 25.769776987707644 143.4266507060508 a86.0,86.0 0 0,1 -11.730757126820373,-40.83630448921669" fill="none" id="id93" stroke="none" /><text fill="#e1ed5e" style="font-size:6.75px; font-family:Arial;" text-anchor="middle"><textPath startOffset="21.46611528233685" xlink:href="#id93">September</textPath></text><path d="M 81.51974371655577 109.97397251340807 l -27.38744437621556 14.781267815294397 a52.121664282100326,52.121664282100326 0 0,0 -0.41932497369549493,-0.7932048234895728 l 27.637821858135936 -14.307647976718698" fill="#87ff25" stroke="none" /><path d="M 81.18737489456691 109.33194174019688 l -14.662659252439699 7.273364622601724 a37.36751078467553,37.36751078467553 0 0,0 -0.28087332789406666,-0.5786822473934672 l 14.785685836948485 -7.019893419242972" fill="#ffc612" stroke="none" /><path d="M 81.02952815118164 109.00673069616217 l -28.075095383671613 13.329390296928555 a52.07866835130026,52.07866835130026 0 0,0 -0.37750929734515587,-0.813121441677743 l 28.300379297856598 -12.844148787971985" fill="#88ff25" stroke="none" /><path d="M 80.58989483394504 108.01547362559985 l -26.64784094847116 11.004322978898252 a49.83058361252724,49.83058361252724 0 0,0 -0.3205705512419563,-0.795629818382968 l 26.833314113970502 -10.54399379267248" fill="#a1ff22" stroke="none" /><path d="M 80.45479744820244 107.68017299344265 l -13.613038329137035 5.34916376829886 a35.62629021900753,35.62629021900753 0 0,0 -0.21936586296092805,-0.572695046623777 l 13.703098471691472 -5.114045154841925" fill="#ffaf10" stroke="none" /><path d="M 80.32549172779594 107.34259656027581 l -3.2074439684114586 1.1970295127023802 a24.423532746269494,24.423532746269494 0 0,0 -0.14360541689089176,-0.39514043121134756 l 3.227573646307575 -1.1416412844849158" fill="#ff1202" stroke="none" /><path d="M 80.0844068197444 106.66101706037122 l -16.956231799508227 5.671221955272124 a38.87950098030184,38.87950098030184 0 0,0 -0.20681626362481176,-0.6365150097781831 l 17.051340314149286 -5.378508045516138" fill="#ffd914" stroke="none" /><path d="M 79.97269907076064 106.31721596034903 l -21.267381584379162 6.708374875594169 a43.300309704734886,43.300309704734886 0 0,0 -0.21809588137875877,-0.7127499592890311 l 21.37970423826405 -6.34129794375309" fill="#eeff19" stroke="none" /><path d="M 79.76711848015287 105.62410040840567 l -15.173590991510112 4.217777838941126 a36.74888927754271,36.74888927754271 0 0,0 -0.1641659045442573,-0.6109224020246847 l 15.243944972396143 -3.955964503740903" fill="#ffbe11" stroke="none" /><path d="M 79.67330655649465 105.27499134158121 l -30.055190652231143 7.799638977226166 a52.05074642125416,52.05074642125416 0 0,0 -0.2175936484896709,-0.8691784623104605 l 30.184995615015872 -7.281132675518313" fill="#88ff25" stroke="none" /><path d="M 79.50377843672027 104.57218783832718 l -15.587401872011386 3.477154511151986 a36.970525996785724,36.970525996785724 0 0,0 -0.1332100184957069,-0.6223128585132958 l 15.644945929231534 -3.2083278332225267" fill="#ffc111" stroke="none" /><path d="M 79.4281124754447 104.21870165774334 l -17.71934880112409 3.6337281191240924 a39.088098351667895,39.088098351667895 0 0,0 -0.12949341057996558,-0.6602841107272327 l 17.779272144679723 -3.3281802813289048" fill="#ffdc14" stroke="none" /><path d="M 79.35854240842038 103.8639653848113 l -15.454937908420778 2.8930779155298887 a36.72339039706349,36.72339039706349 0 0,0 -0.1109633223838358,-0.6223412405628028 l 15.502447673143802 -2.626617924233872" fill="#ffbd11" stroke="none" /><path d="M 79.23777060512086 103.15116336523772 l -30.825032974118322 4.678433745859876 a52.17804355904781,52.17804355904781 0 0,0 -0.1271304340379007,-0.8891499595623406 l 30.900997459172824 -4.147138314317135" fill="#87ff25" stroke="none" /><path d="M 79.1416061653843 102.43462659150553 l -6.928645785358052 0.8087231167416606 a27.975683873177758,27.975683873177758 0 0,0 -0.05171198389956663,-0.47878874675279387 l 6.941540070758671 -0.6893380481040847" fill="#ff4606" stroke="none" /><path d="M 79.07016306316243 101.71520430193888 l -17.843157564259027 1.462250313117567 a38.90297315646724,38.90297315646724 0 0,0 -0.04895002042775471,-0.6678841377643738 l 17.865684143351118 -1.1548930388564327" fill="#ffda14" stroke="none" /><path d="M 79.04373962182676 101.35467743843564 l -22.895816722605037 1.4800563549484882 a43.94360456007172,43.94360456007172 0 0,0 -0.04229812396735022,-0.7552614177095678 l 22.917901197459916 -1.0857232209034828" fill="#e6ff1a" stroke="none" /><line stroke="#e1ed5e" stroke-width="0.3" x1="15.007084014347285" x2="10.007500721073583" y1="101.09737516637583" y2="101.16192664675087" /><path d="M 14.007167355692545 101.11028546245083 a86.0,86.0 0 0,1 10.666146001902534,-42.60595125391555" fill="none" id="id94" stroke="none" /><text fill="#e1ed5e" style="font-size:6.75px; font-family:Arial;" text-anchor="middle"><textPath startOffset="22.20632615414155" xlink:href="#id94">October</textPath></text><path d="M 79.00175016825051 100.2711162175752 l -50.971697172112485 0.6581145500896495 a71.9759455759928,71.9759455759928 0 0,0 -0.005332055886816933,-1.2389820058594998 l 50.975473525288805 0.21937693397352578" fill="#3effb4" stroke="none" /><path d="M 79.05617556472873 98.46500227214037 l -43.876868370217046 -3.2157877116489986 a64.99455498790442,64.99455498790442 0 0,0 0.0913808469019028,-1.1150777914007493 l 43.815013039495646 3.970579420257526" fill="#35ff65" stroke="none" /><path d="M 79.12142395522702 97.74499172005258 l -4.698681471475812 -0.5074850698769819 a25.726007687947423,25.726007687947423 0 0,0 0.051341328610896866,-0.43986114991715564 l 4.689249789861326 0.5882899581189993" fill="#ff2603" stroke="none" /><path d="M 79.16333360222342 97.38593545837743 l -7.31276055486413 -0.9174225714861122 a28.370083521063307,28.370083521063307 0 0,0 0.06495938679791144,-0.48402288379479275 l 7.295885169008384 1.0431637973455643" fill="#ff4c07" stroke="none" /><path d="M 79.21141760316559 97.0276538004421 l -12.294967837681249 -1.7579313600326778 a33.42000631224488,33.42000631224488 0 0,0 0.0863256373171716,-0.5687780914218193 l 12.262886306924774 1.9693085638465893" fill="#ff920d" stroke="none" /><path d="M 79.26566170972629 96.67025291283419 l -10.272805702710492 -1.6497196287024136 a31.404427512312594,31.404427512312594 0 0,0 0.09030737702341195,-0.532999251199696 l 10.242886464166856 1.8263046682179376" fill="#ff760a" stroke="none" /><path d="M 79.54389044137918 95.25157060432595 l -61.3683286758625 -14.245288187022146 a84.0,84.0 0 0,0 0.3390687989567409,-1.4056590733624128 l 61.114027076644945 15.299532492043955" fill="#4dd2ff" stroke="none" /><path d="M 79.71946130924805 94.55025226153421 l -14.534192884725371 -3.9056006357502135 a36.04979996997881,36.04979996997881 0 0,0 0.16619512169192185,-0.5978922782643696 l 14.464810992467088 4.155204217433526" fill="#ffb510" stroke="none" /><path d="M 79.81627453868168 94.20196356495316 l -10.041380093608602 -2.8845164264880006 a31.447475733352924,31.447475733352924 0 0,0 0.15393405029101806,-0.5189890928657833 l 9.990240146205878 3.0569349061003233" fill="#ff770a" stroke="none" /><path d="M 80.14247586403 93.16781622104843 l -34.76179750097814 -11.960151093719455 a57.76177062769976,57.76177062769976 0 0,0 0.33157159505426853,-0.9373975491296066 l 34.550772825114066 12.556746269275674" fill="#4cff2c" stroke="none" /><path d="M 80.52162464483688 92.15188598940014 l -8.37536629193583 -3.374554003664586 a30.029638710809177,30.029638710809177 0 0,0 0.1973066139397298,-0.4777936158752851 l 8.3160379911099 3.5182221899931823" fill="#ff6309" stroke="none" /><path d="M 80.65960295795068 91.81776055985345 l -10.318244872276763 -4.365285260870055 a32.203655325519215,32.203655325519215 0 0,0 0.22037925939530192,-0.5086657151863353 l 10.24157490303878 4.54225012064299" fill="#ff810b" stroke="none" /><path d="M 80.803312248108 91.48605970444005 l -7.116797635342255 -3.1563773368618895 a28.785340485493776,28.785340485493776 0 0,0 0.2047839606644667,-0.4512143121815166 l 7.061411357714436 3.278413657885477" fill="#ff5107" stroke="none" /><path d="M 81.26839172434947 90.50648371742162 l -26.409581879953286 -13.384851524966896 a50.607773732912875,50.607773732912875 0 0,0 0.40050164777035635,-0.7736417063781866 l 26.175270799022815 13.837465953605417" fill="#98ff23" stroke="none" /><line stroke="#e1ed5e" stroke-width="0.3" x1="26.266209847984243" x2="21.928928074336255" y1="57.711370442889674" y2="55.22380399835377" /><path d="M 25.398753493254645 57.213857153982495 a86.0,86.0 0 0,1 29.58750427330803,-30.492523968695096" fill="none" id="id95" stroke="none" /><text fill="#e1ed5e" style="font-size:6.75px; font-family:Arial;" text-anchor="middle"><textPath startOffset="21.46611528233685" xlink:href="#id95">November</textPath></text><path d="M 81.96595687620814 89.24020034530311 l -12.654751395764487 -7.5503085339075104 a35.73600664514643,35.73600664514643 0 0,0 0.3197252895696088,-0.5255443099479694 l 12.522910307908662 7.767020617062554" fill="#ffb010" stroke="none" /><path d="M 82.15384107792192 88.93136811851018 l -6.277972940909324 -3.893755051061027 a28.38744019565999,28.38744019565999 0 0,0 0.261127145667601,-0.41304043462647333 l 6.21001819899576 4.001243133401716" fill="#ff4c07" stroke="none" /><path d="M 82.34701348167596 88.62581576622439 l -24.823398915050074 -15.99422920734721 a50.52992552704574,50.52992552704574 0 0,0 0.4773955828418852,-0.7271062248965232 l 24.544406696850267 16.4191534962214" fill="#99ff23" stroke="none" /><path d="M 82.54541684631803 88.32363383020206 l -8.140071947859454 -5.445358383804067 a30.79350290980677,30.79350290980677 0 0,0 0.2985144670854815,-0.4380331456974134 l 8.045133015105232 5.584669552771897" fill="#ff6e0a" stroke="none" /><path d="M 82.7489923806493 88.02491185347247 l -6.135268312206555 -4.258903622467701 a28.4685860327263,28.4685860327263 0 0,0 0.282906411288455,-0.4001510557088311 l 6.061049281114222 4.3638811785083185" fill="#ff4d07" stroke="none" /><path d="M 82.95767976084542 87.72973835380427 l -20.66451102957276 -14.878194609969006 a46.46335977327904,46.46335977327904 0 0,0 0.4729027205609429,-0.6450387793863651 l 20.405345696498188 15.23169583302687" fill="#c8ff1d" stroke="none" /><path d="M 83.17141714833178 87.43820079747576 l -8.350527115904363 -6.2333023398239344 a31.420429989837682,31.420429989837682 0 0,0 0.32725733368006954,-0.43063229044950696 l 8.241993842000186 6.3761194061544675" fill="#ff760a" stroke="none" /><path d="M 83.39014120810768 87.1503855733568 l -5.8344692568487915 -4.513625388025906 a28.376574113539814,28.376574113539814 0 0,0 0.30220500034361586,-0.3837696610381124 l 5.755910175911204 4.613387443017066" fill="#ff4c07" stroke="none" /><path d="M 83.6137871275137 86.86637796730984 l -5.770416809189711 -4.6250145736987776 a28.39516530976186,28.39516530976186 0 0,0 0.3089684805247949,-0.37875882427903435 l 5.689949836588523 4.723657567585894" fill="#ff4c07" stroke="none" /><path d="M 83.84228863543731 86.58626213691792 l -28.310893792901034 -23.503013480016456 a57.79535772342426,57.79535772342426 0 0,0 0.6420496926947544,-0.7599843232527316 l 27.902133486719155 23.9868567528983" fill="#4bff2c" stroke="none" /><path d="M 84.07557802195018 86.31012108654704 l -3.373025294479128 -2.899716417781606 a25.448106894033483,25.448106894033483 0 0,0 0.28842173796765436,-0.329715905235769 l 3.3226116929336302 2.9573478792203183" fill="#ff2103" stroke="none" /><path d="M 84.5562425177563 85.77008943001954 l -14.291782695184972 -13.168478582488746 a40.43357611928009,40.43357611928009 0 0,0 0.4760238717276684,-0.5077890765544516 l 14.062991501486849 13.412537075921247" fill="#ffed16" stroke="none" /><path d="M 84.80347519578584 85.50635884689758 l -2.3992449949625665 -2.288272907350587 a24.31550440270672,24.31550440270672 0 0,0 0.2914800668688306,-0.30039583072955844 l 2.3595006643906173 2.3292329336302693" fill="#ff1101" stroke="none" /><path d="M 85.57189188830299 84.74124197986013 l -26.306685983269666 -27.821205151983293 a59.289178412850525,59.289178412850525 0 0,0 0.7475860485715725,-0.6947997572764059 l 25.823892050903236 28.269909495334346" fill="#3cff2e" stroke="none" /><path d="M 86.37877921826538 84.01681056812374 l -6.361247962644723 -7.464311227259896 a30.807212536681856,30.807212536681856 0 0,0 0.40657079818286584,-0.3404913511279377 l 6.231819627502746 7.572703735781645" fill="#ff6e0a" stroke="none" /><path d="M 86.65592168130627 83.78471172551755 l -11.893965072068669 -14.453158004928332 a39.717910712764215,39.717910712764215 0 0,0 0.5316461770226971,-0.42988756830565844 l 11.64341549648147 14.655751670498125" fill="#ffe415" stroke="none" /><path d="M 86.93701828274178 83.55741782278169 l -5.0425999651418 -6.347200517332181 a29.106464631124346,29.106464631124346 0 0,0 0.3949711835368598,-0.3082812736796191 l 4.932596226445515 6.433060180235022" fill="#ff5608" stroke="none" /><path d="M 87.22198572758235 83.33499621200491 l -4.51922550379127 -5.8939447502460816 a28.42711140841921,28.42711140841921 0 0,0 0.3908779884152286,-0.29440119712381174 l 4.417101361617652 5.970862536875748" fill="#ff4c07" stroke="none" /><path d="M 87.51073957382395 83.11751280151077 l -13.279786824878363 -17.951089449603156 a43.32922637580323,43.32922637580323 0 0,0 0.6034207234462339,-0.4384108178634518 l 12.968820785078348 18.177019502283276" fill="#edff1a" stroke="none" /><path d="M 87.80319425747018 82.90503203632743 l -8.62715576412888 -12.091768494035739 a35.853911333110126,35.853911333110126 0 0,0 0.505486984279162,-0.35412593603260467 l 8.417737640266056 12.238479272832285" fill="#ffb210" stroke="none" /><path d="M 88.70189139769569 82.29822771554957 l -8.50042412142024 -13.318386060472186 a36.79989295849193,36.79989295849193 0 0,0 0.5368943998682625,-0.33620322394272056 l 8.269910569179736 13.462733625737837" fill="#ffbe11" stroke="none" /><path d="M 89.00827224532344 82.1063720568725 l -5.000167956123605 -8.139861817625308 a30.55295922735357,30.55295922735357 0 0,0 0.45049310314734137,-0.2714170540445416 l 4.859312786758615 8.224725481128468" fill="#ff6a09" stroke="none" /><line stroke="#e1ed5e" stroke-width="0.3" x1="56.762969772571076" x2="54.21961505331055" y1="26.818313649435495" y2="22.513508569990535" /><path d="M 56.25429882871897 25.957352633546506 a86.0,86.0 0 0,1 42.265352541879196,-11.944610805530505" fill="none" id="id96" stroke="none" /><text fill="#e1ed5e" style="font-size:6.75px; font-family:Arial;" text-anchor="middle"><textPath startOffset="22.20632615414155" xlink:href="#id96">December</textPath></text><path d="M 89.94658935756843 81.56283822128135 l -14.179856850636476 -26.004738496489406 a50.61949973539966,50.61949973539966 0 0,0 0.7685846777567295,-0.41055131708464887 l 13.73012712635144 26.244968540075806" fill="#98ff23" stroke="none" /><path d="M 90.58718382345135 81.22770947309562 l -8.427970459495425 -16.808180150377385 a39.802808461335445,39.802808461335445 0 0,0 0.6151026190182803,-0.3018281837909243 l 8.137396573466718 16.95076349430314" fill="#ffe515" stroke="none" /><path d="M 91.23893434514133 80.91482961587045 l -3.9345214458353213 -8.570990691313359 a30.430924686281738,30.430924686281738 0 0,0 0.4779363387203134,-0.2144361036739225 l 3.7864029886482338 8.63744712550381" fill="#ff6909" stroke="none" /><path d="M 91.90106846888425 80.62456947434976 l -12.048556675408674 -28.824292673897844 a52.24111979604854,52.24111979604854 0 0,0 0.8326640698334866,-0.3396645810347648 l 11.550608735986806 29.027418141116186" fill="#86ff25" stroke="none" /><path d="M 92.57280143429618 80.3572730644239 l -2.61271436668144 -6.909850923114098 a28.387307773575184,28.387307773575184 0 0,0 0.4585465009776397,-0.16888654614317455 l 2.493385539931231 6.953800737063594" fill="#ff4c07" stroke="none" /><path d="M 92.91201910852362 80.23233633223022 l -7.4625488170250005 -20.81229582555161 a43.109755592876965,43.109755592876965 0 0,0 0.7006731135372545,-0.2444510912359212 l 7.103193699424461 20.93766776995974" fill="#f0ff19" stroke="none" /><path d="M 93.25333710446033 80.11325718540243 l -6.179069856505173 -18.213682078437593 a40.2332815490745,40.2332815490745 0 0,0 0.6577512701597525,-0.21685025235092495 l 5.864635764103011 18.31734605504775" fill="#ffea16" stroke="none" /><path d="M 93.59665428221793 80.00007090966166 l -6.20460136337483 -19.379179693001916 a41.348210821889246,41.348210821889246 0 0,0 0.6797146279979386,-0.21119064360022624 l 5.870101362666163 19.483110471484668" fill="#fff817" stroke="none" /><path d="M 94.63758080256005 79.69619591428918 l -3.4208299120089953 -12.952336955888988 a34.39645885694362,34.39645885694362 0 0,0 0.5737511332523559,-0.14626193896790637 l 3.19736989007164 13.009301891025759" fill="#ff9f0e" stroke="none" /><path d="M 95.33964822691252 79.52364482259891 l -3.9371429462256726 -17.298766547338673 a38.74115043164727,38.74115043164727 0 0,0 0.6515104356951998,-0.14239494674098085 l 3.638789786376952 17.36397499217552" fill="#ffd814" stroke="none" /><path d="M 95.692805502759 79.44645832069477 l -3.02684418614366 -14.443826062769364 a35.757570838682334,35.757570838682334 0 0,0 0.6035087724327333,-0.12105818223424812 l 2.7777690042437904 14.493788201080823" fill="#ffb110" stroke="none" /><path d="M 96.04723909329186 79.375362276772 l -3.33775521134836 -17.415673163041426 a38.73263323854538,38.73263323854538 0 0,0 0.6558815881980467,-0.11985816795358797 l 3.03747850204742 17.470546812345752" fill="#ffd714" stroke="none" /><path d="M 97.47563105711357 79.15227682838746 l -2.1444625923225455 -17.71023312681852 a38.839592966660724,38.839592966660724 0 0,0 0.6644035721787764,-0.07465348274710995 l 1.8392923166340513 17.744522563036227" fill="#ffd914" stroke="none" /><path d="M 97.83486435360386 79.11191278185805 l -0.5547400793146806 -5.3518398163234195 a26.380513541957008,26.380513541957008 0 0,0 0.4520801884860037,-0.04293046122410889 l 0.46253476373844066 5.360595822062709" fill="#ff2f04" stroke="none" /><path d="M 98.19473922651362 79.07773832637324 l -0.8992404105027311 -10.42184234674483 a31.46056553042353,31.46056553042353 0 0,0 0.5399379269225629,-0.04190957486268106 l 0.719712294217834 10.435777183795972" fill="#ff770a" stroke="none" /><path d="M 99.63851952072746 79.00311137660856 l -0.8363055583478843 -48.57749082078196 a69.58468916675375,69.58468916675375 0 0,0 1.1977860376204081,-0.01030972258034654 l 1.1899816815126813e-14 48.58468916675375" fill="#3bff99" stroke="none" /></svg>