<?xml version="1.0" encoding="utf-8" ?>
<svg baseProfile="full" height="200mm" version="1.1" viewBox="0,0,200,200" width="200mm" xmlns="http://www.w3.org/2000/svg" xmlns:ev="http://www.w3.org/2001/xml-events" xmlns:xlink="http://www.w3.org/1999/xlink"><defs /><rect fill="#1a1a1a" height="200" width="200" x="0" y="0" /><text alignment-baseline="middle" fill="#e1ed5e" style="dominant-baseline: central; font-size:9.0px; font-family:Arial;" text-anchor="middle" x="100.0" y="100.0">2022</text><line stroke="#e1ed5e" stroke-width="0.3" x1="100.0" x2="100.0" y1="15.0" y2="10.0" /><path d="M 100.0 14.0 a86.0,86.0 0 0,1 42.46469731375804,11.215312516191453" fill="none" id="id73" stroke="none" /><text fill="#e1ed5e" style="font-size:6.75px; font-family:Arial;" text-anchor="middle"><textPath startOffset="22.20632615414155" xlink:href="#id73">January</textPath></text><line stroke="#e1ed5e" stroke-width="0.3" x1="143.23703022742887" x2="145.7803849466894" y1="26.81831364943548" y2="22.513508569990506" /><path d="M 143.74570117128098 25.957352633546492 a86.0,86.0 0 0,1 28.547481713284135,27.462654790039103" fill="none" id="id74" stroke="none" /><text fill="#e1ed5e" style="font-size:6.75px; font-family:Arial;" text-anchor="middle"><textPath startOffset="19.985693538727396" xlink:href="#id74">February</textPath></text><line stroke="#e1ed5e" stroke-width="0.3" x1="172.23445277983987" x2="176.4835382374775" y1="55.19839476539836" y2="52.563006222186495" /><path d="M 173.08426987136738 54.67131705675599 a86.0,86.0 0 0,1 12.851231095245387,41.99856678651699" fill="none" id="id75" stroke="none" /><text fill="#e1ed5e" style="font-size:6.75px; font-family:Arial;" text-anchor="middle"><textPath startOffset="22.20632615414155" xlink:href="#id75">March</textPath></text><line stroke="#e1ed5e" stroke-width="0.3" x1="184.98032266829074" x2="189.97916517819016" y1="98.17113171792111" y2="98.06355123074" /><path d="M 185.9800911702706 98.14961562048488 a86.0,86.0 0 0,1 -9.607161424134198,41.387399972396054" fill="none" id="id76" stroke="none" /><text fill="#e1ed5e" style="font-size:6.75px; font-family:Arial;" text-anchor="middle"><textPath startOffset="21.466115282336823" xlink:href="#id76">April</textPath></text><line stroke="#e1ed5e" stroke-width="0.3" x1="174.80103733775053" x2="179.2010983576182" y1="140.37084112569926" y2="142.7455964860345" /><path d="M 175.68104954172406 140.8457921977663 a86.0,86.0 0 0,1 -30.038265399797805,32.042727171017184" fill="none" id="id77" stroke="none" /><text fill="#e1ed5e" style="font-size:6.75px; font-family:Arial;" text-anchor="middle"><textPath startOffset="22.206326154141568" xlink:href="#id77">May</textPath></text><path d="M 117.94076556474637 110.91462005526583 l 19.154370658713898 11.652940750109487 a43.42054734962914,43.42054734962914 0 0,0 -0.39395950643218414,0.6351881638063772 l -18.95094651261375 -11.980925245281139" fill="#ffd614" stroke="none" /><line stroke="#e1ed5e" stroke-width="0.3" x1="143.8653032363475" x2="146.44561519142675" y1="172.8068346515853" y2="177.08958963109032" /><path d="M 144.38136562736335 173.6633856474863 a86.0,86.0 0 0,1 -40.68145358897372,12.25698825130547" fill="none" id="id78" stroke="none" /><text fill="#e1ed5e" style="font-size:6.75px; font-family:Arial;" text-anchor="middle"><textPath startOffset="21.466115282336833" xlink:href="#id78">June</textPath></text><path d="M 105.18746579009965 120.34920634021253 l 9.79148954649937 38.40970701725283 a60.63809860084623,60.63809860084623 0 0,0 -1.0136573968211597,0.24913232597670446 l -9.128878864935 -38.572560601543564" fill="#4aff2c" stroke="none" /><path d="M 104.83641907484287 120.43548508189849 l 5.632579182260044 23.799527309454028 a45.456971366010904,45.456971366010904 0 0,0 -0.7629841179116414,0.1736527011736697 l -5.22207491495554 -23.89295674420538" fill="#fff316" stroke="none" /><line stroke="#e1ed5e" stroke-width="0.3" x1="102.19456741930631" x2="102.32365962044197" y1="184.97166512339345" y2="189.96999836594603" /><path d="M 102.22038585953345 185.97133177190398 a86.0,86.0 0 0,1 -42.740103519485714,-10.115201625700543" fill="none" id="id79" stroke="none" /><text fill="#e1ed5e" style="font-size:6.75px; font-family:Arial;" text-anchor="middle"><textPath startOffset="22.20632615414155" xlink:href="#id79">July</textPath></text><path d="M 97.65516085044442 120.86867818915974 l -1.6388384732153067 14.585389666504891 a35.67717218217046,35.67717218217046 0 0,0 -0.6096932723454667,-0.07382536446432945 l 1.8896591686121627 -14.555018773315213" fill="#ff6209" stroke="none" /><path d="M 92.06813273071674 119.44442032107085 l -3.4283768095932565 8.404427033581333 a30.076792457214694,30.076792457214694 0 0,0 -0.47768898529774056,-0.19967403459618008 l 3.5725372543884593 -8.34416795596518" fill="#ff0801" stroke="none" /><path d="M 91.7346041902142 119.30500536409082 l -3.3773537871126793 7.888289257660176 a29.58088725108548,29.58088725108548 0 0,0 -0.46636286638641633,-0.20443977548251116 l 3.512637328156839 -7.828984928883213" fill="#ff0000" stroke="none" /><line stroke="#e1ed5e" stroke-width="0.3" x1="58.666819895761336" x2="56.23545636021788" y1="174.27360380694188" y2="178.64263932499728" /><path d="M 58.180547188652646 175.14741091055294 a86.0,86.0 0 0,1 -31.652253787137756,-30.449443065178592" fill="none" id="id80" stroke="none" /><text fill="#e1ed5e" style="font-size:6.75px; font-family:Arial;" text-anchor="middle"><textPath startOffset="22.20632615414155" xlink:href="#id80">August</textPath></text><path d="M 87.95078237400918 117.19931262002967 l -24.65212556789222 35.18897471615208 a63.96500013486693,63.96500013486693 0 0,0 -0.8963405482777905,-0.6395151818786 l 25.2541934440189 -34.759415272429266" fill="#31ff3c" stroke="none" /><path d="M 87.65650970185807 116.9893568818739 l -26.80484733774004 36.89370725665527 a66.60313011120319,66.60313011120319 0 0,0 -0.921708125118263,-0.6818576360333124 l 27.435940433276865 -36.42683967188219" fill="#34ff60" stroke="none" /><path d="M 87.36589467227662 116.77436683061367 l -25.551862790070118 33.92534006389982 a63.471477375926256,63.471477375926256 0 0,0 -0.8670544485347074,-0.6648203780380065 l 26.13204596709831 -33.48048034403444" fill="#30ff35" stroke="none" /><line stroke="#e1ed5e" stroke-width="0.3" x1="26.63291911575756" x2="22.317208475507996" y1="142.92168965132927" y2="145.44649492493687" /><path d="M 25.769776987707644 143.4266507060508 a86.0,86.0 0 0,1 -11.730757126820373,-40.83630448921669" fill="none" id="id81" stroke="none" /><text fill="#e1ed5e" style="font-size:6.75px; font-family:Arial;" text-anchor="middle"><textPath startOffset="21.46611528233685" xlink:href="#id81">September</textPath></text><path d="M 80.20201598880116 107.00284435728193 l -40.89586688559855 14.465482470031803 a64.37882100075328,64.37882100075328 0 0,0 -0.3605495067977727,-1.0479256362374048 l 41.13880722333955 -13.759384130705103" fill="#31ff42" stroke="none" /><line stroke="#e1ed5e" stroke-width="0.3" x1="15.007084014347285" x2="10.007500721073583" y1="101.09737516637583" y2="101.16192664675087" /><path d="M 14.007167355692545 101.11028546245083 a86.0,86.0 0 0,1 10.666146001902534,-42.60595125391555" fill="none" id="id82" stroke="none" /><text fill="#e1ed5e" style="font-size:6.75px; font-family:Arial;" text-anchor="middle"><textPath startOffset="22.20632615414155" xlink:href="#id82">October</textPath></text><line stroke="#e1ed5e" stroke-width="0.3" x1="26.266209847984243" x2="21.928928074336255" y1="57.711370442889674" y2="55.22380399835377" /><path d="M 25.398753493254645 57.213857153982495 a86.0,86.0 0 0,1 29.58750427330803,-30.492523968695096" fill="none" id="id83" stroke="none" /><text fill="#e1ed5e" style="font-size:6.75px; font-family:Arial;" text-anchor="middle"><textPath startOffset="21.46611528233685" xlink:href="#id83">November</textPath></text><path d="M 86.37877921826538 84.01681056812374 l -7.505489940344112 -8.806968877299473 a32.5713041637634,32.5713041637634 0 0,0 0.42985197430473204,-0.35998866659921835 l 7.352780429080269 8.934858701292503" fill="#ff3104" stroke="none" /><path d="M 86.65592168130627 83.78471172551755 l -5.914096297805421 -7.186616719539156 a30.307201238464522,30.307201238464522 0 0,0 0.40567863176924474,-0.32803057383294587 l 5.789514267471676 7.287353390636236" fill="#ff0c01" stroke="none" /><path d="M 86.93701828274178 83.55741782278169 l -13.399635467205103 -16.86633358930649 a42.54120329507498,42.54120329507498 0 0,0 0.5772789525448067,-0.45057537910823636 l 13.10732395950087 17.094487357637945" fill="#ffca12" stroke="none" /><path d="M 87.51073957382395 83.11751280151077 l -12.226271295623587 -16.526988916093895 a41.55779833607869,41.55779833607869 0 0,0 0.5787510840672014,-0.42048727570402894 l 11.939974895202603 16.734995426614592" fill="#ffbb11" stroke="none" /><path d="M 88.09926311788651 82.69761687909137 l -15.364514426741426 -22.33834070205879 a48.112170125071174,48.112170125071174 0 0,0 0.6863895386373933,-0.4634532804648536 l 14.977720193697493 22.599505894822308" fill="#e6ff1a" stroke="none" /><path d="M 89.00827224532344 82.1063720568725 l -15.165509766370672 -24.688201471497276 a49.97412601565618,49.97412601565618 0 0,0 0.7368516724793621,-0.44394488797918497 l 14.73829602767366 24.94559296893508" fill="#cdff1d" stroke="none" /><line stroke="#e1ed5e" stroke-width="0.3" x1="56.762969772571076" x2="54.21961505331055" y1="26.818313649435495" y2="22.513508569990535" /><path d="M 56.25429882871897 25.957352633546506 a86.0,86.0 0 0,1 42.265352541879196,-11.944610805530505" fill="none" id="id84" stroke="none" /><text fill="#e1ed5e" style="font-size:6.75px; font-family:Arial;" text-anchor="middle"><textPath startOffset="22.20632615414155" xlink:href="#id84">December</textPath></text><path d="M 89.3179101791058 81.91981866633112 l -15.793735464555459 -26.73199775727554 a52.04902227155215,52.04902227155215 0 0,0 0.7752906780250874,-0.44909840226276626 l 15.331248054065052 26.999900316928354" fill="#b2ff20" stroke="none" /><path d="M 89.63071344664047 81.73862282372117 l -13.11595273242379 -23.098538037357606 a47.56258036303008,47.56258036303008 0 0,0 0.715422542774103,-0.39813187048223875 l 12.71640610057764 23.32088530540003" fill="#eeff19" stroke="none" /><path d="M 90.26544431104013 81.39251694778311 l -16.596370958221677 -31.723758248529897 a56.802742442361485,56.802742442361485 0 0,0 0.8702707931917343,-0.44578650177379886 l 16.04783967744118 32.0047372756162" fill="#77ff27" stroke="none" /><path d="M 91.23893434514133 80.91482961587045 l -17.991147303501066 -39.192048686779266 a64.12421664868998,64.12421664868998 0 0,0 1.0071101566689773,-0.45186097074093506 l 17.313855028365314 39.49592998803673" fill="#31ff3e" stroke="none" /><path d="M 91.56875222667455 80.76684994638697 l -12.99498359978857 -29.64382926922273 a53.36705443041736,53.36705443041736 0 0,0 0.8445113802912562,-0.3615756997902603 l 12.482788461707006 29.863124496975775" fill="#a2ff22" stroke="none" /><path d="M 91.90106846888425 80.62456947434976 l -8.302256743855644 -19.861854385195077 a42.52720898443617,42.52720898443617 0 0,0 0.6778353727846064,-0.2765060679914637 l 7.959137501482656 20.001821339370117" fill="#ffc912" stroke="none" /><path d="M 92.23578459929587 80.48803036053334 l -14.751734580450146 -37.072052024356495 a60.899257066123965,60.899257066123965 0 0,0 0.9773368985855331,-0.379191532811457 l 14.111414516864937 37.320486261058505" fill="#47ff2c" stroke="none" /><path d="M 94.98787191387505 79.60689891045804 l -15.036384258374849 -61.17930326862588 a84.0,84.0 0 0,0 1.407105252149864,-0.3330163514365161 l 13.98105531926245 61.42906553220327" fill="#4dd2ff" stroke="none" /><path d="M 95.33964822691252 79.52364482259891 l -4.78771196246413 -21.03594222149445 a42.573897445329045,42.573897445329045 0 0,0 0.7159657925695133,-0.15648239124905722 l 4.424903445741096 21.11523811083938" fill="#ffca12" stroke="none" /><path d="M 95.692805502759 79.44645832069477 l -7.728435742821974 -36.87939475630221 a58.68047872071292,58.68047872071292 0 0,0 0.9903967984366465,-0.1986642805970529 l 7.0924725349181905 37.006962992976476" fill="#61ff29" stroke="none" /><path d="M 96.04723909329186 79.375362276772 l -5.590367295640735 -29.16930796818503 a50.70018070387775,50.70018070387775 0 0,0 0.8585348390125653,-0.15689175421296134 l 5.087437335525276 29.261215203748726" fill="#c4ff1e" stroke="none" /><path d="M 96.40284397218896 79.31037775812273 l -3.310494010937966 -19.040839482846508 a40.326482835942564,40.326482835942564 0 0,0 0.6849180307962969,-0.11301734368553375 l 2.982246774002783 19.095003089471668" fill="#ffa90f" stroke="none" /><path d="M 96.75951476605007 79.25152402106235 l -3.17253745601968 -20.31341371621309 a41.55966368197403,41.55966368197403 0 0,0 0.7077630902679443,-0.10430588154548026 l 2.822405385323087 20.36501408191954" fill="#ffbb11" stroke="none" /><path d="M 98.91598698831166 79.02799685794201 l -1.2369037946251924 -23.929925183186864 a44.96187075898038,44.96187075898038 0 0,0 0.7732567532158163,-0.03329806238226564 l 0.824806209020052 23.94767097209332" fill="#ffec16" stroke="none" /></svg>