<?xml version="1.0" encoding="utf-8" ?>
<svg baseProfile="full" height="200mm" version="1.1" viewBox="0,0,200,200" width="200mm" xmlns="http://www.w3.org/2000/svg" xmlns:ev="http://www.w3.org/2001/xml-events" xmlns:xlink="http://www.w3.org/1999/xlink"><defs /><rect fill="#1a1a1a" height="200" width="200" x="0" y="0" /><text alignment-baseline="middle" fill="#e1ed5e" style="dominant-baseline: central; font-size:9.0px; font-family:Arial;" text-anchor="middle" x="100.0" y="100.0">2025</text><line stroke="#e1ed5e" stroke-width="0.3" x1="100.0" x2="100.0" y1="15.0" y2="10.0" /><path d="M 100.0 14.0 a86.0,86.0 0 0,1 42.46469731375804,11.215312516191453" fill="none" id="id37" stroke="none" /><text fill="#e1ed5e" style="font-size:6.75px; font-family:Arial;" text-anchor="middle"><textPath startOffset="22.20632615414155" xlink:href="#id37">January</textPath></text><path d="M 100.0 79.0 l 0.0 -13.976682211858758 a34.97668221185876,34.97668221185876 0 0,0 0.6020660880621724,0.005182172898998782 l -0.2405856087896441 13.974611415568319" fill="#ff900d" stroke="none" /><path d="M 100.36148047927253 79.00311137660856 l 0.10873313550402834 -6.315852907036132 a27.31678880746169,27.31678880746169 0 0,0 0.4700742803344574,0.012140631806823982 l -0.21743405103335356 6.313045483086948" fill="#ff2003" stroke="none" /><path d="M 101.08401301168833 79.027996857942 l 2.286826916396465 -44.242403697086374 a65.30146568954031,65.30146568954031 0 0,0 1.122059385104005,0.06768568632073997 l -3.048048350340082 44.196484741385326" fill="#35ff61" stroke="none" /><path d="M 101.80526077348638 79.07773832637324 l 1.8058621261757453 -20.929231114557354 a42.00699533644237,42.00699533644237 0 0,0 0.7198696241915669,0.06836029486554125 l -2.165856877457556 20.895045275176635" fill="#ffef16" stroke="none" /><path d="M 102.52436894288641 79.15227682838746 l 1.1024142851845702 -9.104385435704213 a30.17088607594937,30.17088607594937 0 0,0 0.5150389660045502,0.06686683950468968 l -1.2589679796969664 9.084060273035387" fill="#ff4b07" stroke="none" /><path d="M 103.2404852339499 79.25152402106235 l 3.241564676066477 -20.755387529896655 a42.00699533644237,42.00699533644237 0 0,0 0.7134603987794985,0.11772707896320915 l -3.5983542809848506 20.696514187993824" fill="#ffef16" stroke="none" /><path d="M 103.59715602781102 79.31037775812273 l 1.5493413537507197 -8.91128632869664 a30.044970019986675,30.044970019986675 0 0,0 0.5087684726392541,0.09297418640858694 l -1.7025049474928746 8.883296660937313" fill="#ff4906" stroke="none" /><path d="M 107.08798089147638 80.2323363322302 l 2.4649740342109725 -6.874563913774703 a28.30313124583611,28.30313124583611 0 0,0 0.4571867787888593,0.1683857489858795 l -2.5829431387724084 6.831114896982499" fill="#ff2f04" stroke="none" /><path d="M 107.76421540070413 80.48803036053334 l 2.3587489824923953 -5.927686979078477 a27.379746835443036,27.379746835443036 0 0,0 0.4364020434480517,0.17801935092520674 l -2.4604348955288344 5.8862067419696915" fill="#ff2103" stroke="none" /><path d="M 108.43124777332544 80.76684994638697 l 9.108106771783604 -20.77718375212094 a43.68587608261159,43.68587608261159 0 0,0 0.6861134810709385,0.3078391192286017 l -9.464402371321324 20.617324302375806" fill="#faff18" stroke="none" /><path d="M 109.08828744355905 81.06846463323043 l 3.7872910032952625 -7.889190787417963 a29.751165889407062,29.751165889407062 0 0,0 0.45976705576436827,0.22560569751717507 l -3.9225293260700624 7.822829929765956" fill="#ff4506" stroke="none" /><path d="M 109.41281617654863 81.2277094730956 l 5.164193285401594 -10.299121418324965 a32.52131912058628,32.52131912058628 0 0,0 0.49825682651561476,0.25522649894143407 l -5.340710599505964 10.20870239407103" fill="#ff6d0a" stroke="none" /><path d="M 109.73455568895987 81.39251694778311 l 25.72101789634566 -49.165408251227326 a76.48700866089274,76.48700866089274 0 0,0 1.1613457898932198,0.6203507010092674 l -26.563508732767193 48.71537882371631" fill="#43ffe0" stroke="none" /><path d="M 110.36928655335952 81.73862282372117 l 16.123860636603013 -28.39577237137561 a53.65423051299134,53.65423051299134 0 0,0 0.7992008867391512,0.46294873844714196 l -16.610258255807494 28.11401947553842" fill="#82ff25" stroke="none" /><line stroke="#e1ed5e" stroke-width="0.3" x1="143.23703022742887" x2="145.7803849466894" y1="26.81831364943548" y2="22.513508569990506" /><path d="M 143.74570117128098 25.957352633546492 a86.0,86.0 0 0,1 28.547481713284135,27.462654790039103" fill="none" id="id38" stroke="none" /><text fill="#e1ed5e" style="font-size:6.75px; font-family:Arial;" text-anchor="middle"><textPath startOffset="19.985693538727396" xlink:href="#id38">February</textPath></text><path d="M 111.2981086023043 82.29822771554956 l 3.7823448185595647 -5.926142953322016 a28.03031312458361,28.03031312458361 0 0,0 0.40448138830192853,0.2630859463333682 l -3.883793232645773 5.86015808282912" fill="#ff2b04" stroke="none" /><path d="M 111.90073688211348 82.69761687909136 l 3.5916281196518343 -5.221838476863168 a27.33777481678881,27.33777481678881 0 0,0 0.38542208744406803,0.27001280295754154 l -3.680981346679553 5.15924083114169" fill="#ff2103" stroke="none" /><path d="M 113.06298171725822 83.55741782278167 l 27.74034258744874 -34.917208987264075 a65.59526982011991,65.59526982011991 0 0,0 0.8780289246038528,0.7099716608775003 l -28.337274910617083 34.43453122912245" fill="#35ff64" stroke="none" /><path d="M 113.6212207817346 84.01681056812373 l 7.595577477889319 -8.912677917708486 a32.71019320453031,32.71019320453031 0 0,0 0.4253979338866525,0.3689008963256553 l -7.747869210422736 8.780612027963159" fill="#ff700a" stroke="none" /><path d="M 114.16331599549186 84.49514656593476 l 7.081186201743413 -7.751910232907567 a31.499300466355763,31.499300466355763 0 0,0 0.3971793537842053,0.3691349231727186 l -7.213573439322465 7.628870723660207" fill="#ff5e08" stroke="none" /><path d="M 114.42810811169701 84.74124197986012 l 14.432914276957401 -15.263840884237194 a42.00699533644237,42.00699533644237 0 0,0 0.5211202938399162,0.5013173097909317 l -14.693517814409734 15.013140487683959" fill="#ffef16" stroke="none" /><path d="M 114.94478906791727 85.2469230424477 l 23.552230872856956 -23.250102293864064 a54.09493670886076,54.09493670886076 0 0,0 0.6484585105875609,0.6682934962728068 l -23.948953647147626 22.841244602041144" fill="#7dff26" stroke="none" /><path d="M 115.4437574822437 85.77008943001954 l 12.809778857690473 -11.802957134993791 a38.41838774150566,38.41838774150566 0 0,0 0.44392695727406134,0.4901952339492461 l -13.011049455580569 11.580709113774995" fill="#ffbf11" stroke="none" /><path d="M 115.68641384162765 86.03803664274999 l 15.237036229908814 -13.561987058541321 a41.39840106595603,41.39840106595603 0 0,0 0.46919791850309606,0.536374329910378 l -15.468226011989756 13.297697172427997" fill="#ffe715" stroke="none" /><path d="M 115.9244219780498 86.31012108654704 l 6.429180358892862 -5.527026396770483 a29.478347768154563,29.478347768154563 0 0,0 0.327475507916485,0.38762771028079446 l -6.523366480296464 5.415539736860583" fill="#ff4106" stroke="none" /><path d="M 116.15771136456269 86.58626213691792 l 4.860230966755533 -4.034845199987711 a27.31678880746169,27.31678880746169 0 0,0 0.2972346397207273,0.3643745228782032 l -4.928964098552669 3.9505865075014066" fill="#ff2003" stroke="none" /><path d="M 116.38621287248628 86.86637796730983 l 8.220398596257278 -6.588685803208327 a31.53497668221186,31.53497668221186 0 0,0 0.3358413739781513,0.4264844397267498 l -8.332594050829393 6.44620896952854" fill="#ff5f08" stroke="none" /><path d="M 116.60985879189232 87.15038557335679 l 42.111137663255306 -32.57775329819502 a74.2415056628914,74.2415056628914 0 0,0 0.7732573105934321,1.0175159805378382 l -42.665670914072855 31.848052541776152" fill="#40ffc8" stroke="none" /><path d="M 116.82858285166822 87.43820079747576 l 13.622070729365008 -10.168278501710166 a37.99866755496336,37.99866755496336 0 0,0 0.38674933005529033,0.527525651557777 l -13.795082671933924 9.932290406480895" fill="#ffb911" stroke="none" /><path d="M 117.04232023915458 87.72973835380427 l 18.25719583248539 -13.144957179935208 a43.49700199866756,43.49700199866756 0 0,0 0.43225120921367627,0.611388681191509 l -18.480759661502947 12.828741998411905" fill="#fcff18" stroke="none" /><path d="M 117.2510076193507 88.02491185347247 l 24.18703899728417 -16.789855432623042 a50.4433710859427,50.4433710859427 0 0,0 0.4890017248710072,0.7175496916046299 l -24.47246518782391 16.371027717748003" fill="#a7ff21" stroke="none" /><path d="M 117.65298651832404 88.62581576622439 l 7.391673568798572 -4.762608121870732 a29.79313790806129,29.79313790806129 0 0,0 0.2740577173845685,0.4334934937991991 l -7.472558882429095 4.634666980357327" fill="#ff4506" stroke="none" /><line stroke="#e1ed5e" stroke-width="0.3" x1="172.23445277983987" x2="176.4835382374775" y1="55.19839476539836" y2="52.563006222186495" /><path d="M 173.08426987136738 54.67131705675599 a86.0,86.0 0 0,1 12.851231095245387,41.99856678651699" fill="none" id="id39" stroke="none" /><text fill="#e1ed5e" style="font-size:6.75px; font-family:Arial;" text-anchor="middle"><textPath startOffset="22.20632615414155" xlink:href="#id39">March</textPath></text><path d="M 117.84615892207809 88.93136811851018 l 17.8521036785478 -11.072318967393045 a42.00699533644237,42.00699533644237 0 0,0 0.3758309897705614,0.6177673290777734 l -18.040050466604583 10.76338386510819" fill="#ffef16" stroke="none" /><path d="M 118.03404312379186 89.2402003453031 l 54.10212937137558 -32.279398964090696 a84.0,84.0 0 0,0 0.7301613021186908,1.2480823505844187 l -54.6497503479646 31.34333720115238" fill="#4dd2ff" stroke="none" /><path d="M 118.21658344932153 89.55222093294921 l 14.581762168127794 -8.363095635617274 a37.80979347101932,37.80979347101932 0 0,0 0.31893885703344427,0.567356638508474 l -14.723558666453672 8.110855487174005" fill="#ffb711" stroke="none" /><path d="M 118.56541770881063 90.18545643968196 l 42.0783151534802 -22.244555091407054 a68.5962691538974,68.5962691538974 0 0,0 0.5428596597041635,1.04863207378916 l -42.45498424634447 21.51695029535755" fill="#39ff88" stroke="none" /><path d="M 118.89224826269711 90.83032412892265 l 5.682778208266319 -2.758233614784423 a27.31678880746169,27.31678880746169 0 0,0 0.20167829881676952,0.4247859316867721 l -5.729414700924845 2.6600052674571106" fill="#ff2003" stroke="none" /><path d="M 119.04729006885535 91.15688171328212 l 29.541699720383253 -13.71537599698816 a53.57028647568288,53.57028647568288 0 0,0 0.38110841328937,0.8397218708485953 l -29.77341045063597 13.204832117297501" fill="#83ff25" stroke="none" /><path d="M 119.196687751892 91.48605970444005 l 39.05841731797348 -17.322833885836154 a63.72751499000666,63.72751499000666 0 0,0 0.43610647346208475,1.0065938683597764 l -39.35081450127824 16.647940872889777" fill="#32ff4d" stroke="none" /><path d="M 119.61058180528143 92.48833698450437 l 24.026555589548668 -9.203163414721168 a46.728847435043306,46.728847435043306 0 0,0 0.28125294763795583,0.7536180695016835 l -24.18141312568825 8.78822220819015" fill="#d4ff1c" stroke="none" /><path d="M 119.7369772167798 92.82701384747503 l 6.627206207366435 -2.4085176688025203 a28.051299133910724,28.051299133910724 0 0,0 0.16102369951787598,0.45523568222161076 l -6.66768298769412 2.294084360154295" fill="#ff2b04" stroke="none" /><path d="M 119.85752413597 93.16781622104841 l 19.844294606232506 -6.827632024268736 a41.986009327115255,41.986009327115255 0 0,0 0.22924902157955898,0.6854253951566527 l -19.958880921583834 6.48503352618977" fill="#ffee16" stroke="none" /><path d="M 119.97218684219823 93.5106431181261 l 8.01349069001591 -2.603740960765193 a29.425882744836777,29.425882744836777 0 0,0 0.15237635160860782,0.48307467519229447 l -8.057122525392725 2.4654161191464796" fill="#ff4006" stroke="none" /><path d="M 120.08093135843002 93.85539295169968 l 45.272399544921505 -13.852998168852942 a68.34443704197201,68.34443704197201 0 0,0 0.33454309967310747,1.1279130218142581 l -45.504148541706314 13.071655760292154" fill="#38ff85" stroke="none" /><path d="M 120.28053869075195 94.5502522615342 l 20.262973933724652 -5.445027770404501 a41.98181212524983,41.98181212524983 0 0,0 0.18152869217640422,0.6995041011695966 l -20.353698957771357 5.0954272436860535" fill="#ffee16" stroke="none" /><path d="M 120.37134235888165 94.90015583598534 l 20.37812828238561 -5.101542979525646 a42.00699533644237,42.00699533644237 0 0,0 0.16956263638700178,0.7029465968971573 l -20.46292371903343 4.750011150969082" fill="#ffef16" stroke="none" /><path d="M 120.53481517161879 95.60439243477599 l 20.521134415341898 -4.392679112482362 a41.986009327115255,41.986009327115255 0 0,0 0.14519302662164843,0.7080127620610267 l -20.59370673787854 4.038790694257924" fill="#ffee16" stroke="none" /><path d="M 120.6074358757038 95.95851677861258 l 4.118741347575708 -0.8077581388515847 a25.19720186542305,25.19720186542305 0 0,0 0.07980826864646463,0.42633896235171514 l -4.132035340132032 0.7367410990373068" fill="#ff0000" stroke="none" /><path d="M 120.73433829027371 96.67025291283417 l 10.898995943388382 -1.7502801144396003 a32.038640906062625,32.038640906062625 0 0,0 0.0827574976842127,0.5452685094084823 l -10.927509334511894 1.562412492639036" fill="#ff6609" stroke="none" /><path d="M 120.78858239683441 97.02765380044208 l 20.774732575117667 -2.9703659555875204 a41.986009327115255,41.986009327115255 0 0,0 0.09613596724012896,0.7163246205622533 l -20.822784541415633 2.612322992960603" fill="#ffee16" stroke="none" /><path d="M 120.83666639777658 97.38593545837742 l 26.923860412050416 -3.37773362989806 a48.13491005996003,48.13491005996003 0 0,0 0.0960627185150915,0.823006707723747 l -26.978013483569097 2.91378318384946" fill="#c3ff1e" stroke="none" /><path d="M 120.91429891909075 98.10471618934814 l 49.76376987976859 -4.509664310288564 a70.96768820786143,70.96768820786143 0 0,0 0.09977893459401259,1.2175557328205149 l -49.834023298182096 3.65239466026028" fill="#3cffa4" stroke="none" /><path d="M 120.94382443527127 98.46500227214037 l 7.681262725927269 -0.5629688535554483 a28.7018654230513,28.7018654230513 0 0,0 0.03187193041601704,0.49304465668547515 l -7.689815247347702 0.430665132616938" fill="#ff3505" stroke="none" /><path d="M 120.98425023603335 99.18683210126433 l 17.698907927260645 -0.6858564688869794 a38.71219187208528,38.71219187208528 0 0,0 0.020071913018807536,0.6660890753331297 l -17.708091534735097 0.3810972461288507" fill="#ffc312" stroke="none" /><line stroke="#e1ed5e" stroke-width="0.3" x1="184.98032266829074" x2="189.97916517819016" y1="98.17113171792111" y2="98.06355123074" /><path d="M 185.9800911702706 98.14961562048488 a86.0,86.0 0 0,1 -9.607161424134198,41.387399972396054" fill="none" id="id40" stroke="none" /><text fill="#e1ed5e" style="font-size:6.75px; font-family:Arial;" text-anchor="middle"><textPath startOffset="21.466115282336823" xlink:href="#id40">April</textPath></text><path d="M 120.99980553446 99.90962569577887 l 30.450417552133363 -0.13104575159046608 a51.45069953364424,51.45069953364424 0 0,0 -0.003811523462926495,0.8856638200572615 l -30.448161731380935 -0.39312754667048017" fill="#9bff22" stroke="none" /><path d="M 120.9904718944345 100.63252640178507 l 52.46219541104 1.5808946011303742 a73.48600932711526,73.48600932711526 0 0,0 -0.048983209326485824,1.264038980718809 l -52.42721006886231 -2.4837108288631895" fill="#3fffc0" stroke="none" /><path d="M 120.9764740272857 100.99374915477107 l 25.196923831576367 1.193690690241325 a46.22518321119254,46.22518321119254 0 0,0 -0.04449426826622464,0.794475049452206 l -25.172643212422614 -1.6272374560289542" fill="#daff1c" stroke="none" /><path d="M 120.92983693683757 101.71520430193887 l 6.295683795457803 0.5159325398570286 a27.31678880746169,27.31678880746169 0 0,0 -0.04243910777415749,0.46831201789401466 l -6.28587009140657 -0.6242259462996138" fill="#ff2003" stroke="none" /><path d="M 120.8583938346157 102.4346265915055 l 10.818294204029527 1.2627293814037563 a31.891738840772817,31.891738840772817 0 0,0 -0.06833714834897382,0.544714309861348 l -10.794955546433705 -1.448761445552499" fill="#ff6409" stroke="none" /><path d="M 120.5718875245553 104.21870165774334 l 10.27909103492103 2.1079455318504343 a31.493004663557628,31.493004663557628 0 0,0 -0.11347373672969928,0.5301115206490363 l -10.241283259466888 -2.2845708719156397" fill="#ff5e08" stroke="none" /><path d="M 120.49622156327973 104.57218783832717 l 4.321821535495026 0.9640889079483996 a25.428047968021318,25.428047968021318 0 0,0 -0.0989749643046104,0.42638155580878295 l -4.304586005259862 -1.0383391211057476" fill="#ff0400" stroke="none" /><path d="M 120.41448212921028 104.9243191809786 l 6.467079448660553 1.559969200902948 a27.652564956695535,27.652564956695535 0 0,0 -0.11559915875803611,0.46176117616991796 l -6.4392689756074555 -1.6710582164702619" fill="#ff2503" stroke="none" /><path d="M 120.32669344350535 105.2749913415812 l 5.017348381624738 1.3020548248206776 a26.18354430379747,26.18354430379747 0 0,0 -0.11696803139664486,0.43528155800263924 l -4.994192273886315 -1.388227315998865" fill="#ff0f01" stroke="none" /><path d="M 120.13307415673323 105.97154293290107 l 21.950550204859375 6.5106129311742915 a43.895736175882746,43.895736175882746 0 0,0 -0.22109493754963935,0.7225510483796941 l -21.835228494803605 -6.887490952106043" fill="#f7ff18" stroke="none" /><path d="M 119.67450827220406 107.3425965602758 l 6.370293817649017 2.377416341301822 a27.799467021985343,27.799467021985343 0 0,0 -0.1711728623902079,0.44687832958197415 l -6.328426675665302 -2.48671823771694" fill="#ff2803" stroke="none" /><path d="M 119.54520255179757 107.68017299344265 l 7.832404620190698 3.077697571989176 a29.415389740173218,29.415389740173218 0 0,0 -0.1892353454522534,0.46966660833476653 l -7.778266660481052 -3.212063548166756" fill="#ff4006" stroke="none" /><path d="M 119.41010516605496 108.01547362559984 l 27.09785168252376 11.190156550595905 a50.31745502998001,50.31745502998001 0 0,0 -0.33748400808918116,0.7977125039584563 l -26.901216693242272 -11.654943580220523" fill="#a8ff21" stroke="none" /><line stroke="#e1ed5e" stroke-width="0.3" x1="174.80103733775053" x2="179.2010983576182" y1="140.37084112569926" y2="142.7455964860345" /><path d="M 175.68104954172406 140.8457921977663 a86.0,86.0 0 0,1 -30.038265399797805,32.042727171017184" fill="none" id="id41" stroke="none" /><text fill="#e1ed5e" style="font-size:6.75px; font-family:Arial;" text-anchor="middle"><textPath startOffset="22.206326154141568" xlink:href="#id41">May</textPath></text><line stroke="#e1ed5e" stroke-width="0.3" x1="143.8653032363475" x2="146.44561519142675" y1="172.8068346515853" y2="177.08958963109032" /><path d="M 144.38136562736335 173.6633856474863 a86.0,86.0 0 0,1 -40.68145358897372,12.25698825130547" fill="none" id="id42" stroke="none" /><text fill="#e1ed5e" style="font-size:6.75px; font-family:Arial;" text-anchor="middle"><textPath startOffset="21.466115282336833" xlink:href="#id42">June</textPath></text><line stroke="#e1ed5e" stroke-width="0.3" x1="102.19456741930631" x2="102.32365962044197" y1="184.97166512339345" y2="189.96999836594603" /><path d="M 102.22038585953345 185.97133177190398 a86.0,86.0 0 0,1 -42.740103519485714,-10.115201625700543" fill="none" id="id43" stroke="none" /><text fill="#e1ed5e" style="font-size:6.75px; font-family:Arial;" text-anchor="middle"><textPath startOffset="22.20632615414155" xlink:href="#id43">July</textPath></text><line stroke="#e1ed5e" stroke-width="0.3" x1="58.666819895761336" x2="56.23545636021788" y1="174.27360380694188" y2="178.64263932499728" /><path d="M 58.180547188652646 175.14741091055294 a86.0,86.0 0 0,1 -31.652253787137756,-30.449443065178592" fill="none" id="id44" stroke="none" /><text fill="#e1ed5e" style="font-size:6.75px; font-family:Arial;" text-anchor="middle"><textPath startOffset="22.20632615414155" xlink:href="#id44">August</textPath></text><line stroke="#e1ed5e" stroke-width="0.3" x1="26.63291911575756" x2="22.317208475507996" y1="142.92168965132927" y2="145.44649492493687" /><path d="M 25.769776987707644 143.4266507060508 a86.0,86.0 0 0,1 -11.730757126820373,-40.83630448921669" fill="none" id="id45" stroke="none" /><text fill="#e1ed5e" style="font-size:6.75px; font-family:Arial;" text-anchor="middle"><textPath startOffset="21.46611528233685" xlink:href="#id45">September</textPath></text><line stroke="#e1ed5e" stroke-width="0.3" x1="15.007084014347285" x2="10.007500721073583" y1="101.09737516637583" y2="101.16192664675087" /><path d="M 14.007167355692545 101.11028546245083 a86.0,86.0 0 0,1 10.666146001902534,-42.60595125391555" fill="none" id="id46" stroke="none" /><text fill="#e1ed5e" style="font-size:6.75px; font-family:Arial;" text-anchor="middle"><textPath startOffset="22.20632615414155" xlink:href="#id46">October</textPath></text><line stroke="#e1ed5e" stroke-width="0.3" x1="26.266209847984243" x2="21.928928074336255" y1="57.711370442889674" y2="55.22380399835377" /><path d="M 25.398753493254645 57.213857153982495 a86.0,86.0 0 0,1 29.58750427330803,-30.492523968695096" fill="none" id="id47" stroke="none" /><text fill="#e1ed5e" style="font-size:6.75px; font-family:Arial;" text-anchor="middle"><textPath startOffset="21.46611528233685" xlink:href="#id47">November</textPath></text><line stroke="#e1ed5e" stroke-width="0.3" x1="56.762969772571076" x2="54.21961505331055" y1="26.818313649435495" y2="22.513508569990535" /><path d="M 56.25429882871897 25.957352633546506 a86.0,86.0 0 0,1 42.265352541879196,-11.944610805530505" fill="none" id="id48" stroke="none" /><text fill="#e1ed5e" style="font-size:6.75px; font-family:Arial;" text-anchor="middle"><textPath startOffset="22.20632615414155" xlink:href="#id48">December</textPath></text></svg>