<?xml version="1.0" encoding="utf-8" ?>
<svg baseProfile="full" height="200mm" version="1.1" viewBox="0,0,200,200" width="200mm" xmlns="http://www.w3.org/2000/svg" xmlns:ev="http://www.w3.org/2001/xml-events" xmlns:xlink="http://www.w3.org/1999/xlink"><defs /><rect fill="#1a1a1a" height="200" width="200" x="0" y="0" /><text alignment-baseline="middle" fill="#e1ed5e" style="dominant-baseline: central; font-size:9.0px; font-family:Arial;" text-anchor="middle" x="100.0" y="100.0">2024</text><line stroke="#e1ed5e" stroke-width="0.3" x1="100.0" x2="100.0" y1="15.0" y2="10.0" /><path d="M 100.0 14.0 a86.0,86.0 0 0,1 42.35913384403234,11.155469271406648" fill="none" id="id97" stroke="none" /><text fill="#e1ed5e" style="font-size:6.75px; font-family:Arial;" text-anchor="middle"><textPath startOffset="22.145653131862478" xlink:href="#id97">January</textPath></text><path d="M 100.0 79.0 l 0.0 -32.7973010434701 a53.7973010434701,53.7973010434701 0 0,0 0.9235022096254707,0.007927155772113581 l -0.5630092847766158 32.79246828589242" fill="#74ff27" stroke="none" /><path d="M 102.15924093988457 79.11130261209362 l 1.2870613874814083 -12.451151395913834 a33.51749568001174,33.51749568001174 0 0,0 0.5718150176380286,0.06407306541833148 l -1.5006123067202337 12.427222569988533" fill="#ff960d" stroke="none" /><path d="M 102.51750503828377 79.15144685158666 l 1.139197400612467 -9.434188687620091 a30.50271997436424,30.50271997436424 0 0,0 0.519304708737617,0.06723439138855176 l -1.3009799312408759 9.413242700031143" fill="#ff6d0a" stroke="none" /><path d="M 102.87502721639298 79.19773525538626 l 1.0022068043740398 -7.251469187689389 a28.32039779375016,28.32039779375016 0 0,0 0.4810083282016321,0.07069165981414675 l -1.126540238183354 7.233196454576359" fill="#ff4e07" stroke="none" /><path d="M 103.23170211078529 79.25015418208739 l 3.2071465238481403 -20.592181334786556 a41.840434759144614,41.840434759144614 0 0,0 0.7087420917080011,0.11662324148255526 l -3.5601661186092115 20.534092094808333" fill="#fdff18" stroke="none" /><path d="M 104.29559338865022 79.4440306129975 l 6.335871541428625 -30.31943893705263 a51.974370786944945,51.974370786944945 0 0,0 0.871777464939741,0.1899998409395813 l -6.8554114229875 30.206207637979333" fill="#87ff25" stroke="none" /><path d="M 105.3480935250658 79.69241777938227 l 2.2285326729241843 -8.46210154602411 a29.75062971731259,29.75062971731259 0 0,0 0.4927534452183982,0.13430214267151602 l -2.3734675190772756 8.422598909208451" fill="#ff6209" stroke="none" /><path d="M 105.69591212413111 79.78721728523813 l 4.08135542648928 -14.48329058094913 a36.04736416019574,36.04736416019574 0 0,0 0.5941635325755213,0.1729523449006292 l -4.329378971446405 14.411094541745985" fill="#ffb711" stroke="none" /><path d="M 106.04205211174951 79.88797359093562 l 2.2778531547909098 -7.582232320710694 a28.91699829228356,28.91699829228356 0 0,0 0.47418282053251987,0.14690304991477052 l -2.40767660819506 7.542012682989277" fill="#ff5708" stroke="none" /><path d="M 107.06938296918511 80.22567764915836 l 2.7968667160812712 -7.823333982216848 a29.308249997733107,29.308249997733107 0 0,0 0.47229665453646946,0.17343387353611533 l -2.9307525222718653 7.774169259672012" fill="#ff5c08" stroke="none" /><path d="M 107.40779381753099 80.34994680014964 l 3.619707130460137 -9.60170321062285 a31.261334428581357,31.261334428581357 0 0,0 0.5005203688740549,0.19361203108264227 l -3.783999761827718 9.538151291402167" fill="#ff770b" stroke="none" /><path d="M 107.74402155503746 80.48000691201159 l 3.5876766393362467 -9.04328877496806 a30.72895140988495,30.72895140988495 0 0,0 0.48865696360127747,0.1987325330199075 l -3.742388064127964 8.980368985368859" fill="#ff700a" stroke="none" /><path d="M 108.07796709384702 80.6158196554323 l 8.656009390341158 -20.77127142724431 a43.50271573099412,43.50271573099412 0 0,0 0.6868559367252008,0.2931779564093526 l -9.011300402236788 20.619618821175557" fill="#e9ff1a" stroke="none" /><path d="M 108.4095320186766 80.7573450057729 l 3.478692678703933 -7.959929624927892 a29.686874143595787,29.686874143595787 0 0,0 0.46521678056043203,0.20808554862612294 l -3.614822862119997 7.899040325391916" fill="#ff6209" stroke="none" /><path d="M 109.06512990194946 81.05736502329252 l 13.384060614462255 -27.967539072039582 a52.005101520196,52.005101520196 0 0,0 0.8019675768286271,0.3922825289346453 l -13.86218844055295 27.733662793007714" fill="#87ff25" stroke="none" /><path d="M 109.71004243097381 81.37971332152246 l 1.512500830955331 -2.9004197740667643 a24.271099758405125,24.271099758405125 0 0,0 0.36777787601355444,0.19582100380596895 l -1.562067522755445 2.874028302538222" fill="#ff1402" stroke="none" /><path d="M 110.34350942703115 81.72400993836675 l 11.816787889972721 -20.879131938835258 a44.99113641651634,44.99113641651634 0 0,0 0.6688843651788938,0.38618056829276637 l -12.173464723012012 20.67320447326632" fill="#d7ff1c" stroke="none" /><line stroke="#e1ed5e" stroke-width="0.3" x1="143.13028292997686" x2="145.6673583964461" y1="26.7553504044142" y2="22.446841604673864" /><path d="M 143.63769802327073 25.89364864446614 a86.0,86.0 0 0,1 29.32050498858742,28.57503671076993" fill="none" id="id98" stroke="none" /><text fill="#e1ed5e" style="font-size:6.75px; font-family:Arial;" text-anchor="middle"><textPath startOffset="20.669276256404974" xlink:href="#id98">February</textPath></text><path d="M 110.65571695917076 81.90426304109057 l 4.019718113476616 -6.826360151001722 a28.92195219772224,28.92195219772224 0 0,0 0.42565847812988905,0.2555956859555522 l -4.136309348163938 6.756350464510248" fill="#ff5708" stroke="none" /><path d="M 111.5731344415666 82.4767994020092 l 5.257877867228763 -7.961097233630145 a30.54066815427555,30.54066815427555 0 0,0 0.4349917718543586,0.29268187716958693 l -5.393765927180123 7.869665682403439" fill="#ff6d0a" stroke="none" /><path d="M 112.45986205192187 83.09580414077388 l 4.870206311184744 -6.607370211326499 a29.208303760401932,29.208303760401932 0 0,0 0.40105367087134863,0.30095815141161436 l -4.98291297096686 6.52279303265087" fill="#ff5b08" stroke="none" /><path d="M 112.7482090630111 83.31218511350987 l 4.597244716783457 -6.0179409078075174 a28.572996220509857,28.572996220509857 0 0,0 0.3872185988729704,0.30110352455437855 l -4.699873260291654 5.938136331632348" fill="#ff5207" stroke="none" /><path d="M 113.03279911837588 83.53348406188908 l 7.020045514174461 -8.869598180365655 a32.311534418558196,32.311534418558196 0 0,0 0.4319732569833205,0.347967078043331 l -7.17126954151304 8.747782808528916" fill="#ff860c" stroke="none" /><path d="M 113.31354834802062 83.75963576809568 l 7.037070245652979 -8.584081488079923 a32.099856424127786,32.099856424127786 0 0,0 0.42314591085318193,0.3530033685395521 l -7.183390490668053 8.4620159356285" fill="#ff830c" stroke="none" /><path d="M 113.59037401385872 83.9905735841838 l 4.001928431810861 -4.714261629967286 a27.18382518261294,27.18382518261294 0 0,0 0.35315739658837725,0.305048947920764 l -4.082265308162098 4.644868549581802" fill="#ff3e05" stroke="none" /><path d="M 113.86319453409587 84.22622945171908 l 20.55094585502458 -23.383203897920634 a52.13062158177833,52.13062158177833 0 0,0 0.6671105329742837,0.5965343521932815 l -20.949321414822236 23.026974015843965" fill="#86ff25" stroke="none" /><path d="M 114.91283532996326 85.21462403516908 l 22.039623139925222 -21.851251424485802 a52.03582086824868,52.03582086824868 0 0,0 0.6234713973049234,0.6397365784671265 l -22.411481338380955 21.469692153950934" fill="#87ff25" stroke="none" /><path d="M 116.35404254752997 86.82634096563983 l 10.561400942248085 -8.50751699672937 a34.56174897690404,34.56174897690404 0 0,0 0.36822016485110365,0.46523414948562125 l -10.705887537740747 8.32496290332907" fill="#ffa40f" stroke="none" /><path d="M 116.57777611688842 87.10902102172516 l 7.37605316116173 -5.735663551778056 a30.343660771639733,30.343660771639733 0 0,0 0.3162214361764308,0.4139440107994203 l -7.473426574692468 5.608198627737754" fill="#ff6b09" stroke="none" /><path d="M 116.7966241395341 87.39550010848427 l 14.893928804265482 -11.176681840236407 a39.62115281566636,39.62115281566636 0 0,0 0.40356593185865003,0.5475146936476251 l -15.083596755707958 10.919360837319907" fill="#ffe515" stroke="none" /><path d="M 117.21940702142032 87.97951657250589 l 11.736790910746302 -8.193191580818588 a35.31365254442672,35.31365254442672 0 0,0 0.3427278485281799,0.5000501735484619 l -11.875708496089807 7.990506672200078" fill="#ffae10" stroke="none" /><path d="M 117.62189284568427 88.57770195909679 l 14.8406726175117 -9.61954469075127 a38.685621385677194,38.685621385677194 0 0,0 0.35642777745655535,0.5603636672419681 l -15.003618086594145 9.36336734883063" fill="#ffd914" stroke="none" /><line stroke="#e1ed5e" stroke-width="0.3" x1="172.87174338648825" x2="177.1583165268699" y1="56.24261187166439" y2="53.66864786411523" /><path d="M 173.72905801456457 55.72781907015455 a86.0,86.0 0 0,1 12.242430191666344,42.057860355516425" fill="none" id="id99" stroke="none" /><text fill="#e1ed5e" style="font-size:6.75px; font-family:Arial;" text-anchor="middle"><textPath startOffset="22.145653131862474" xlink:href="#id99">March</textPath></text><path d="M 118.53625476483649 90.13048839642627 l 11.104803066249879 -5.9126821522579025 a33.58079732663323,33.58079732663323 0 0,0 0.26655466436845293,0.511153715476416 l -11.204665799593275 5.721182193676989" fill="#ff970d" stroke="none" /><path d="M 118.70294669586156 90.45014215332178 l 7.883160039357759 -4.025197685835194 a29.851351795978964,29.851351795978964 0 0,0 0.22911635586775525,0.4583861906977253 l -7.9510963084372515 3.8892796389737185" fill="#ff6409" stroke="none" /><path d="M 119.0197475246899 91.09779779509293 l 13.125482805331584 -6.1433886973742995 a35.492050357353904,35.492050357353904 0 0,0 0.25354090132142426,0.5540326262348507 l -13.229008171508061 5.917167088924765" fill="#ffb010" stroke="none" /><path d="M 119.16976305983485 91.42560881287824 l 11.141077218452688 -4.983262131032658 a33.204773781357424,33.204773781357424 0 0,0 0.22826877568186935,0.5223236306902265 l -11.224979876151528 4.791276430566582" fill="#ff920d" stroke="none" /><path d="M 119.4528033332814 92.08871423366111 l 17.44621845076831 -7.095225163247459 a39.833819536915726,39.833819536915726 0 0,0 0.25216955954275505,0.6356320193961366 l -17.565446685277188 6.794692126637757" fill="#ffe815" stroke="none" /><path d="M 119.58574465831526 92.42381321644754 l 4.129126656379189 -1.5972348944308687 a25.427284297671516,25.427284297671516 0 0,0 0.15397954079003326,0.40844902581550574 l -4.1559368809836625 1.5261175884212053" fill="#ff2503" stroke="none" /><path d="M 119.94978838288452 93.4421083053983 l 9.936224425035007 -3.2662343270036227 a31.459294550951277,31.459294550951277 0 0,0 0.16424041426383465,0.5144807584295467 l -9.9908295550761 3.0951845348826894" fill="#ff7a0b" stroke="none" /><path d="M 120.05942366710727 93.78553927170692 l 7.074154179437398 -2.191591047857046 a28.40585772719803,28.40585772719803 0 0,0 0.140302861758018,0.46702259575968363 l -7.110733361199044 2.069830848506639" fill="#ff5007" stroke="none" /><path d="M 120.16314734710363 94.1308016681162 l 14.249224774392497 -4.147741661398666 a35.84062557848769,35.84062557848769 0 0,0 0.16688335305023005,0.592210146575915 l -14.31832661951731 3.902523590919738" fill="#ffb510" stroke="none" /><path d="M 120.35273937422433 94.82641323984039 l 14.277439242107073 -3.6292692238517676 a35.73149233483345,35.73149233483345 0 0,0 0.1460098923102971,0.5957701866239254 l -14.337636660933661 3.3836432126197473" fill="#ffb310" stroke="none" /><path d="M 120.51834098615036 95.52812308129327 l 4.452770160648694 -0.9704605318310814 a25.557296978188415,25.557296978188415 0 0,0 0.08974540877681458,0.4294642692007589 l -4.468773280249875 0.893879811344918" fill="#ff2703" stroke="none" /><path d="M 120.592083275326 95.88100663000786 l 13.751970534750061 -2.750779253347108 a35.02438875991673,35.02438875991673 0 0,0 0.11286810704451018,0.5905736295791678 l -13.79716493407673 2.5143030587346256" fill="#ffaa0f" stroke="none" /><path d="M 120.86939407059847 97.66154086499901 l 4.436815455982436 -0.4971544261542688 a25.46458216565553,25.46458216565553 0 0,0 0.04494814939689929,0.43483257174089474 l -4.444695997861001 0.4209173321304427" fill="#ff2603" stroke="none" /><path d="M 120.98066250479742 99.09900007780936 l 15.174634615065367 -0.6516641028050953 a36.18862079991547,36.18862079991547 0 0,0 0.02132597664530124,0.6208825413463871 l -15.183585278707517 0.39107529689458825" fill="#ffb911" stroke="none" /><path d="M 120.99303781780057 99.45929381324524 l 12.115486898235174 -0.3120519659078265 a33.11950490782256,33.11950490782256 0 0,0 0.009760110549541718,0.568477508838204 l -12.119058440383382 0.10402754110055615" fill="#ff910d" stroke="none" /><line stroke="#e1ed5e" stroke-width="0.3" x1="184.99686870605535" x2="189.99668451229388" y1="99.2704041080226" y2="99.22748670261217" /><path d="M 185.99683186730306 99.26182062694052 a86.0,86.0 0 0,1 -10.086455211305974,41.156179273409016" fill="none" id="id100" stroke="none" /><text fill="#e1ed5e" style="font-size:6.75px; font-family:Arial;" text-anchor="middle"><textPath startOffset="21.40746469413373" xlink:href="#id100">April</textPath></text><path d="M 120.99922638620191 99.81974689727618 l 12.18229225330442 -0.10457032733307968 a33.182741050284186,33.182741050284186 0 0,0 0.0,0.5696468601138116 l -12.18229225330442 -0.10457032733307821" fill="#ff910d" stroke="none" /><path d="M 120.93736805541906 101.62068470465957 l 7.3400963944774835 0.568169882946561 a28.362053524398533,28.362053524398533 0 0,0 -0.0417413489186634,0.48509774662709576 l -7.329261422861079 -0.6940886769493141" fill="#ff4f07" stroke="none" /><path d="M 120.43855184770803 104.8234425847677 l 28.710195973973686 6.775528076047149 a50.498866648962604,50.498866648962604 0 0,0 -0.20635393596529591,0.8419944771917406 l -28.589654511492096 -7.267378377846989" fill="#98ff23" stroke="none" /><path d="M 120.35273937422433 105.17358676015961 l 14.66140356359389 3.7268714528929148 a36.12766754265018,36.12766754265018 0 0,0 -0.1579476149716575,0.5997528208050359 l -14.595266467817503 -3.978004778070754" fill="#ffb811" stroke="none" /><path d="M 120.16314734710363 105.8691983318838 l 42.59981701750101 12.400185877409031 a65.36788275001257,65.36788275001257 0 0,0 -0.3228665405905981,1.0747177069747595 l -42.38067415690678 -13.129641187974514" fill="#36ff6a" stroke="none" /><path d="M 119.71291397450082 107.23885506374661 l 7.478885089267173 2.7463501981315566 a28.967192829926994,28.967192829926994 0 0,0 -0.17541610019033593,0.4653120464412715 l -7.430638305262397 -2.874330524766987" fill="#ff5808" stroke="none" /><path d="M 119.31412917781788 108.2440532568976 l 13.956546203449093 5.957219666715815 a36.174770116430594,36.174770116430594 0 0,0 -0.248686244316084,0.5690427945998242 l -13.852226077116043 -6.195924531091484" fill="#ffb911" stroke="none" /><path d="M 119.16976305983485 108.57439118712176 l 13.492592654995473 6.035065075729409 a35.780800621817704,35.780800621817704 0 0,0 -0.25560361681888216,0.5585400318576835 l -13.387004573321535 -6.265794089801782" fill="#ffb410" stroke="none" /><path d="M 119.0197475246899 108.90220220490707 l 34.837075189606516 16.305510215782157 a59.464158266667866,59.464158266667866 0 0,0 -0.4406598302022899,0.9208095639782102 l -34.55203610144431 -16.901132281825472" fill="#39ff2e" stroke="none" /><line stroke="#e1ed5e" stroke-width="0.3" x1="174.33088141563837" x2="178.70328620479359" y1="141.23008692659167" y2="143.65538615756765" /><path d="M 175.20536237346943 141.71514677278685 a86.0,86.0 0 0,1 -30.301960400862466,31.631185727798858" fill="none" id="id101" stroke="none" /><text fill="#e1ed5e" style="font-size:6.75px; font-family:Arial;" text-anchor="middle"><textPath startOffset="22.145653131862474" xlink:href="#id101">May</textPath></text><path d="M 118.36410011445183 110.18625677009912 l 13.617793349722955 7.553560416132964 a36.57242982568647,36.57242982568647 0 0,0 -0.3092401570066155,0.5463977266111453 l -13.486119827694962 -7.786214912843231" fill="#ffbe11" stroke="none" /><path d="M 117.81537515405839 111.11811171558189 l 35.573196192852876 22.20030540655515 a62.932157677843435,62.932157677843435 0 0,0 -0.5798218637367916,0.9115762756459808 l -35.186856637490195 -22.8076953568798" fill="#32ff4d" stroke="none" /><path d="M 116.1254893667686 113.45245675266167 l 48.37646810030581 40.35737025798503 a84.0,84.0 0 0,0 -0.933221745971542,1.0993328702017733 l -47.67655179082715 -41.181869910636365" fill="#4dd2ff" stroke="none" /><path d="M 114.91283532996324 114.78537596483092 l 7.741962272735359 7.675792052631164 a31.902099039528736,31.902099039528736 0 0,0 -0.38891405328254497,0.38559002151892396 l -7.609056299322849 -7.807562084378749" fill="#ff800b" stroke="none" /><path d="M 114.65682725009322 115.03919595460226 l 10.983311842390101 11.269845527254732 a36.736662836680786,36.736662836680786 0 0,0 -0.4554078149465372,0.4362703849772373 l -10.788231541578252 -11.45672804253755" fill="#ffc011" stroke="none" /><path d="M 114.13192950727249 115.5334660781643 l 11.923439289050778 13.105948457796142 a38.71819091945024,38.71819091945024 0 0,0 -0.49547295229456156,0.4430549691796356 l -11.69670130993284 -13.308698956859164" fill="#ffda14" stroke="none" /><path d="M 113.86319453409587 115.77377054828091 l 4.870080990599029 5.541258178864885 a28.377210249127444,28.377210249127444 0 0,0 -0.3686612030021798,0.31844076664234444 l -4.774240307833995 -5.624043077971947" fill="#ff4f07" stroke="none" /><path d="M 113.59037401385872 116.0094264158162 l 4.775830721923148 5.62591658176993 a28.379667775008496,28.379667775008496 0 0,0 -0.37410573467052083,0.31209230939367316 l -4.678550653090732 -5.707071075075474" fill="#ff4f07" stroke="none" /><path d="M 113.31354834802062 116.24036423190432 l 9.372337422493823 11.432727734694167 a35.78336809447439,35.78336809447439 0 0,0 -0.47838823936276764,0.38535570230400323 l -9.174698412775804 -11.591931730791574" fill="#ffb410" stroke="none" /><path d="M 112.16784306229584 117.11559508785304 l 8.65695597084076 12.17709271328533 a35.94069856563013,35.94069856563013 0 0,0 -0.5059165201259298,0.3531690225049139 l -8.446644359541072 -12.323906551595366" fill="#ffb610" stroke="none" /><path d="M 111.5731344415666 117.5232005979908 l 8.135750478854337 12.318563166787676 a35.76270416787916,35.76270416787916 0 0,0 -0.5151777066726462,0.3339319652647399 l -7.923087139924681 -12.45640897375631" fill="#ffb410" stroke="none" /><path d="M 110.96478420261333 117.91015095944535 l 7.711133057575087 12.595556335401742 a35.76853453900915,35.76853453900915 0 0,0 -0.5264229700929371,0.3161018681803504 l -7.493777330924713 -12.726072204118015" fill="#ffb410" stroke="none" /><line stroke="#e1ed5e" stroke-width="0.3" x1="143.1302829299769" x2="145.66735839644613" y1="173.24464959558577" y2="177.55315839532614" /><path d="M 143.63769802327073 174.10635135553383 a86.0,86.0 0 0,1 -40.68552437913181,11.842963189579606" fill="none" id="id102" stroke="none" /><text fill="#e1ed5e" style="font-size:6.75px; font-family:Arial;" text-anchor="middle"><textPath startOffset="21.407464694133747" xlink:href="#id102">June</textPath></text><path d="M 110.65571695917076 118.09573695890943 l 7.859923906646796 13.347869136981352 a36.490126349267044,36.490126349267044 0 0,0 -0.5424996330936623,0.31321230920190035 l -7.6296318056927355 -13.480828343459425" fill="#ffbd11" stroke="none" /><path d="M 110.34350942703117 118.27599006163325 l 15.220858473837055 26.893798488780003 a51.902280333911975,51.902280333911975 0 0,0 -0.7791664534865426,0.4321904973506127 l -14.756947832194419 -27.15112190156376" fill="#88ff25" stroke="none" /><path d="M 109.3889696526874 118.78422872680471 l 6.613639921325608 13.231710144397807 a35.79251115782279,35.79251115782279 0 0,0 -0.5519541853159015,0.26998845081495204 l -6.385525486747637 -13.343292345309983" fill="#ffb410" stroke="none" /><path d="M 108.4095320186766 119.2426549942271 l 5.99281507456949 13.712733677455166 a35.96505587783756,35.96505587783756 0 0,0 -0.567845288029831,0.24237938729190836 l -5.756534711369228 -13.813587714406477" fill="#ffb610" stroke="none" /><path d="M 107.74402155503746 119.51999308798841 l 5.552452437829587 13.995807273717428 a36.056970124078795,36.056970124078795 0 0,0 -0.577302546959877,0.22331302703528652 l -5.311377628376181 -14.089060188890755" fill="#ffb811" stroke="none" /><path d="M 107.407793817531 119.65005319985036 l 5.1975130164923975 13.78702077793933 a35.734180787812356,35.734180787812356 0 0,0 -0.5758492588261132,0.2114598241842992 l -4.960074606012157 -13.874211451132352" fill="#ffb310" stroke="none" /><path d="M 107.06938296918513 119.77432235084164 l 7.403448476887373 20.70876303178884 a42.99236039302535,42.99236039302535 0 0,0 -0.6970785980945404,0.24248012154885587 l -7.046864106747811 -20.83280158590629" fill="#efff19" stroke="none" /><path d="M 106.0420521117495 120.11202640906438 l 3.0823134373221492 10.260018964730042 a31.713012894723725,31.713012894723725 0 0,0 -0.5227210424153149,0.15215647722899828 l -2.9057323825252275 -10.31141913626156" fill="#ff7e0b" stroke="none" /><path d="M 105.69591212413111 120.21278271476187 l 4.0585222175817774 14.402263577675534 a35.96318143816495,35.96318143816495 0 0,0 -0.5956506374168529,0.16234722996869524 l -3.810690179230229 -14.46981130178837" fill="#ffb610" stroke="none" /><path d="M 104.9986988182912 120.39639698878246 l 4.205778628074549 17.161012028020135 a38.66886831956762,38.66886831956762 0 0,0 -0.6460791687906148,0.15247292465221488 l -3.910567305544055 -17.230681096318573" fill="#ffd914" stroke="none" /><path d="M 104.64783097203109 120.47920084513623 l 3.33406284976881 14.690496091962041 a36.06408478846825,36.06408478846825 0 0,0 -0.604910765368221,0.13183748585488766 l -3.081389667781453 -14.745565035950648" fill="#ffb811" stroke="none" /><path d="M 104.29559338865022 120.5559693870025 l 3.0365017486997172 14.530760093534914 a35.844639832805754,35.844639832805754 0 0,0 -0.6033907693225631,0.12069505280857729 l -2.786614493846195 -14.580744543006354" fill="#ffb510" stroke="none" /><path d="M 103.2317021107853 120.74984581791261 l 3.4251774105899133 21.992096032473544 a43.25722642638912,43.25722642638912 0 0,0 -0.7347031746350845,0.10797606577802561 l -3.0471491303471434 -22.04765317155045" fill="#ecff1a" stroke="none" /><path d="M 102.51750503828377 120.84855314841334 l 1.821061054574502 15.080997894917692 a36.190548405867375,36.190548405867375 0 0,0 -0.6174178188190812,0.06918295440900972 l -1.5619073341546217 -15.110036609833672" fill="#ffb911" stroke="none" /><path d="M 101.08105385017728 120.97215588758144 l 1.8476844555759757 35.84458482530341 a56.892174622691066,56.892174622691066 0 0,0 -0.9757664629758352,0.041903610384864405 l -1.2320922319993108 -35.871021004114105" fill="#53ff2b" stroke="none" /><line stroke="#e1ed5e" stroke-width="0.3" x1="101.45913802915013" x2="101.54496967792366" y1="184.9874750549273" y2="189.98673829345242" /><path d="M 101.47630435890484 185.9873277026323 a86.0,86.0 0 0,1 -42.54439059252881,-10.42667462771756" fill="none" id="id103" stroke="none" /><text fill="#e1ed5e" style="font-size:6.75px; font-family:Arial;" text-anchor="middle"><textPath startOffset="22.145653131862474" xlink:href="#id103">July</textPath></text><path d="M 100.0 121.0 l 2.047050345508761e-15 16.71543458027243 a37.71543458027243,37.71543458027243 0 0,0 -0.6474355868470452,-0.0055574558413106195 l 0.286942661998191 -16.712971522625555" fill="#ffcd13" stroke="none" /><path d="M 99.63950707515114 120.99690560180557 l -0.25344544103400896 14.761926334144661 a35.76410185843672,35.76410185843672 0 0,0 -0.6137574354284931,-0.015808214389128737 l 0.5068161905332461 -14.755400402405485" fill="#ffb410" stroke="none" /><path d="M 99.27912038922189 120.98762331915562 l -0.5068413755342385 14.756133636230132 a35.76483552465911,35.76483552465911 0 0,0 -0.6134082110633428,-0.026342387916150456 l 0.7600753471984201 -14.745258679888153" fill="#ffb410" stroke="none" /><path d="M 98.55909050195518 120.95050786540614 l -1.047904485481627 15.236301235481406 a36.272294495229744,36.272294495229744 0 0,0 -0.6208279653442427,-0.04805601090811023 l 1.3093014456011058 -15.216067457578243" fill="#ffba11" stroke="none" /><path d="M 97.84075906011543 120.88869738790638 l -1.5103853890107335 14.611608527507396 a35.68946451660046,35.68946451660046 0 0,0 -0.6088692298757205,-0.06822506718725592 l 1.7609905204872534 -14.58352769981317" fill="#ffb310" stroke="none" /><path d="M 97.48249496171623 120.84855314841334 l -2.3235885012786612 19.242646043312423 a40.382427357570094,40.382427357570094 0 0,0 -0.6875053993435832,-0.08901133828263517 l 2.6535717225130386 -19.19992310882939" fill="#ffef16" stroke="none" /><path d="M 96.05791012581884 120.62667999033965 l -2.774519602672988 14.51745896157362 a35.780208852603906,35.780208852603906 0 0,0 -0.6023061703729431,-0.12047810264268795 l 3.0233222585768895 -14.46769146226807" fill="#ffb410" stroke="none" /><path d="M 95.70440661134978 120.55596938700252 l -1.6066466368899346 7.688385770147982 a28.85446300942615,28.85446300942615 0 0,0 -0.48398220572346606,-0.105481669122295 l 1.738391259232537 -7.659672642891969" fill="#ff5608" stroke="none" /><path d="M 95.35216902796893 120.47920084513623 l -1.6352298470780406 7.205124426381292 a28.38835534150945,28.38835534150945 0 0,0 -0.4743124332162938,-0.11193644275324759 l 1.7586744340342224 -7.175991839981816" fill="#ff4f07" stroke="none" /><path d="M 94.6519064749342 120.30758222061772 l -3.7300943401053575 14.163775773053306 a35.64671116447026,35.64671116447026 0 0,0 -0.5904090065957909,-0.1609186001799139 l 3.972684747635843 -14.097656678729248" fill="#ffb210" stroke="none" /><path d="M 94.30408787586889 120.21278271476187 l -1.9975435711305136 7.088577437049156 a28.364652768434315,28.364652768434315 0 0,0 -0.4675305027650417,-0.13609131549235026 l 2.118934086277162 -7.05324242725429" fill="#ff4f07" stroke="none" /><path d="M 93.61358852112213 120.00534299687104 l -4.508646195052957 14.12326999002263 a35.82547286676682,35.82547286676682 0 0,0 -0.5842576128516832,-0.19205708217511838 l 4.750426545552384 -14.04379198644549" fill="#ffb510" stroke="none" /><path d="M 93.27111125876986 119.89276391827306 l -3.3297094914383756 9.8436944608342 a31.39159689054732,31.39159689054732 0 0,0 -0.5089836927390858,-0.17705094951863745 l 3.4981989562224833 -9.785085078746972" fill="#ff790b" stroke="none" /><path d="M 92.93061703081489 119.77432235084164 l -0.9823820269647381 2.7478973706121317 a23.918221103055835,23.918221103055835 0 0,0 -0.38543740449568964,-0.1415379537951655 l 1.0294085831145465 -2.7306285678082465" fill="#ff0f01" stroke="none" /><path d="M 91.26138138417905 119.09545874513695 l -4.884617210590061 10.673770138193152 a32.73834972459828,32.73834972459828 0 0,0 -0.5090209844906447,-0.23824752271786298 l 5.067126908952196 -10.588346383904764" fill="#ff8b0c" stroke="none" /><path d="M 90.6110303473126 118.78422872680471 l -17.3779050622727 34.767451121646126 a59.86858939876022,59.86858939876022 0 0,0 -0.9153416347785103,-0.46737996078527005 l 17.972173918764792 -34.46401320918802" fill="#35ff2f" stroke="none" /><line stroke="#e1ed5e" stroke-width="0.3" x1="58.13341422392154" x2="55.67067388415222" y1="173.97424548756322" y2="178.32567169271397" /><path d="M 57.64086615596768 174.84453072859336 a86.0,86.0 0 0,1 -31.369924170532247,-30.572349798747897" fill="none" id="id104" stroke="none" /><text fill="#e1ed5e" style="font-size:6.75px; font-family:Arial;" text-anchor="middle"><textPath startOffset="22.145653131862474" xlink:href="#id104">August</textPath></text><path d="M 88.72937992617639 117.7192867562869 l -1.0208416989366125 1.6049327080276874 a22.902084848681802,22.902084848681802 0 0,0 -0.3299147484759664,-0.21384675404521214 l 1.0482420796695886 -1.5871721122785807" fill="#ff0000" stroke="none" /><path d="M 88.1277618465304 117.32195027204791 l -8.382291267085009 12.23001346648651 a35.82686872797797,35.82686872797797 0 0,0 -0.5043142030411144,-0.3520504807374932 l 8.59100056129989 -12.084318169943886" fill="#ffb510" stroke="none" /><path d="M 87.2517909369889 116.68781488649013 l -4.5030463207966065 5.894632183651594 a28.417824124888714,28.417824124888714 0 0,0 -0.38511572100230584,-0.299468314003006 l 4.603571986434141 -5.816462818027794" fill="#ff5007" stroke="none" /><path d="M 86.96720088162412 116.46651593811092 l -4.561016826869581 5.762695764085357 a28.349254177424726,28.349254177424726 0 0,0 -0.37900148911023174,-0.3052967715194707 l 4.659269086335075 -5.683550698772476" fill="#ff4f07" stroke="none" /><path d="M 86.13680546590413 115.77377054828092 l -15.162592498780239 17.252246904897333 a43.96833112247397,43.96833112247397 0 0,0 -0.5626584897532947,-0.5031326910618142 l 15.456516015356904 -16.989418683952138" fill="#e3ff1b" stroke="none" /><path d="M 85.60350026404147 115.28858382429668 l -3.0448383393776477 3.2335128008049847 a25.441468850044288,25.441468850044288 0 0,0 -0.3153863972222413,-0.30213303420997273 l 3.099897222465203 -3.1807676362894295" fill="#ff2503" stroke="none" /><path d="M 84.83555147118756 114.52719865689866 l -10.808256765087142 10.354065488294147 a35.96746760263525,35.96746760263525 0 0,0 -0.42329284729864863,-0.44952233507054745 l 10.984405446122043 -10.167001693279108" fill="#ffb610" stroke="none" /><path d="M 84.3458050057657 113.99807769240083 l -11.023057031662576 9.856885569255383 a35.787358771893,35.787358771893 0 0,0 -0.405571211326426,-0.4614655888090805 l 11.190639306947594 -9.666207702635" fill="#ffb410" stroke="none" /><path d="M 83.8745106332314 113.45245675266167 l -5.670402634954046 4.730451552936909 a28.3844863015092,28.3844863015092 0 0,0 -0.30892212516606976,-0.37683476266767063 l 5.750771579358746 -4.6324145085707435" fill="#ff4f07" stroke="none" /><path d="M 83.4222238831116 112.89097897827486 l -2.572098374390715 2.000079253124156 a24.25822145753186,24.25822145753186 0 0,0 -0.25280303804202175,-0.3309272918835453 l 2.6060533897870317 -1.95563104799974" fill="#ff1402" stroke="none" /><path d="M 82.98947788004972 112.3143062007846 l -14.352202706576389 10.389887949249365 a38.71822491472032,38.71822491472032 0 0,0 -0.3851263141145798,-0.5417283914918238 l 14.528444119220929 -10.141982331048037" fill="#ffda14" stroke="none" /><path d="M 82.78059297857968 112.02048342749411 l -9.665612108090219 6.74734792071263 a32.78773775527795,32.78773775527795 0 0,0 -0.31821321243491923,-0.46428258685961515 l 9.780015057340464 -6.580430598782964" fill="#ff8c0c" stroke="none" /><path d="M 82.37810715431573 111.42229804090323 l -8.747334635579358 5.66991662848369 a31.42419386814933,31.42419386814933 0 0,0 -0.2895250270669089,-0.4551814313779693 l 8.843377354272159 -5.518921522427048" fill="#ff7a0b" stroke="none" /><line stroke="#e1ed5e" stroke-width="0.3" x1="26.387840678322732" x2="22.057713659400548" y1="142.50000000000003" y2="145.00000000000006" /><path d="M 25.521815274538298 143.00000000000003 a86.0,86.0 0 0,1 -11.493303480769221,-40.785679425670985" fill="none" id="id105" stroke="none" /><text fill="#e1ed5e" style="font-size:6.75px; font-family:Arial;" text-anchor="middle"><textPath startOffset="21.40746469413373" xlink:href="#id105">September</textPath></text><path d="M 81.81346652052679 110.50000000000001 l -20.47705998487361 11.822436094478906 a44.64487218895779,44.64487218895779 0 0,0 -0.37749712969732796,-0.6670012570988342 l 20.676990479592316 -11.46917806728095" fill="#dbff1b" stroke="none" /><path d="M 81.63589988554817 110.18625677009913 l -15.517739170434595 8.607428335520716 a38.74508527769774,38.74508527769774 0 0,0 -0.31762602905268067,-0.5843961184916999 l 15.663210549102606 -8.339777383554429" fill="#ffda14" stroke="none" /><path d="M 81.4637452351635 109.86951160357371 l -10.690456120105083 5.692065741620349 a33.111377479990466,33.111377479990466 0 0,0 -0.26282854528757094,-0.5040083908316147 l 10.786592734367602 -5.507711107684231" fill="#ff900d" stroke="none" /><path d="M 81.1358732173502 109.22738970284198 l -6.594834761751054 3.225864153356694 a28.34152879655946,28.34152879655946 0 0,0 -0.210025225803386,-0.4388719446191883 l 6.649239245514352 -3.112179706672401" fill="#ff4f07" stroke="none" /><path d="M 80.83023694016515 108.57439118712176 l -27.33573372567239 12.226925998997297 a50.94561833901279,50.94561833901279 0 0,0 -0.3502295784689733,-0.8013938150523341 l 27.54159718615833 -11.755870114169113" fill="#93ff23" stroke="none" /><path d="M 80.5471966667186 107.91128576633889 l -16.4100437750262 6.673821943197716 a38.715231752020166,38.715231752020166 0 0,0 -0.2450882956241492,-0.6177826084972874 l 16.522190745616474 -6.391138317486863" fill="#ffda14" stroke="none" /><path d="M 80.41425534168474 107.57618678355246 l -11.01590636009118 4.261189228704735 a32.81134736501838,32.81134736501838 0 0,0 -0.19869507654935217,-0.5270622969423314 l 11.087432120454968 -4.071458651568259" fill="#ff8c0c" stroke="none" /><path d="M 80.16572619554312 106.89939002012753 l -5.599039046838327 1.9476364248526363 a26.928113181395325,26.928113181395325 0 0,0 -0.1481233162857362,-0.4379002648103219 l 5.631647784696431 -1.8512344855681528" fill="#ff3b05" stroke="none" /><path d="M 79.94057633289273 106.21446072829308 l -41.9841091135936 13.006784323850134 a64.95272297036085,64.95272297036085 0 0,0 -0.3208159739176477,-1.0678920374311738 l 42.20120140751488 -12.284154682828238" fill="#35ff65" stroke="none" /><path d="M 79.73907114497094 105.5222062557868 l -17.105917756442985 4.6622939511559975 a38.72990149936477,38.72990149936477 0 0,0 -0.1693243983351545,-0.6429523203047419 l 17.183431635582874 -4.367961126478453" fill="#ffda14" stroke="none" /><path d="M 79.64726062577567 105.17358676015961 l -11.429626804186576 2.905366438416284 a32.79311337283145,32.79311337283145 0 0,0 -0.1340027700835371,-0.5467770304982462 l 11.477817100786407 -2.708733583309938" fill="#ff8c0c" stroke="none" /><path d="M 79.48165901384964 104.47187691870673 l -8.65498796820118 1.8863143444593342 a29.858159997190175,29.858159997190175 0 0,0 -0.10484805089357718,-0.5017358789474528 l 8.686093729919124 -1.7374620142264723" fill="#ff6409" stroke="none" /><path d="M 79.2786578344484 103.40968896794605 l -31.033509500639802 5.106552178694915 a52.45084398040909,52.45084398040909 0 0,0 -0.1385664076248395,-0.889695737785304 l 31.11659740040291 -4.573068258978161" fill="#82ff25" stroke="none" /><path d="M 79.22317932658666 103.0534771498775 l -15.13254789052677 2.2239634220012383 a36.29509787355039,36.29509787355039 0 0,0 -0.08530295724880747,-0.6172097050317644 l 15.16849536433079 -1.963865408769388" fill="#ffbb11" stroke="none" /><path d="M 79.13060592940153 102.33845913500099 l -15.453185219168104 1.7315616360676405 a36.54989514811649,36.54989514811649 0 0,0 -0.06451510324698284,-0.6241251005308381 l 15.480632714896753 -1.466032013253871" fill="#ffbe11" stroke="none" /><path d="M 79.06263194458094 101.62068470465958 l -9.126800079762926 0.7064720480915054 a30.15410194670647,30.15410194670647 0 0,0 -0.03551871603744226,-0.5164343358977761 l 9.137582756965434 -0.549694288039386" fill="#ff6809" stroke="none" /><path d="M 79.03789590574601 101.26102812881392 l -51.49432796351863 3.097770898588655 a72.58742091784158,72.58742091784158 0 0,0 -0.06414795988961279,-1.24445328459328 l 51.53991751286482 -2.2133458206186445" fill="#3fffbb" stroke="none" /><path d="M 79.00696218219943 100.54070618675478 l -13.275227940471503 0.34192278127114556 a34.27963056940318,34.27963056940318 0 0,0 -0.01010199231196241,-0.5883904075325203 l 13.27914136438213 -0.11398545776957289" fill="#ffa00e" stroke="none" /><line stroke="#e1ed5e" stroke-width="0.3" x1="15.003131293944662" x2="10.003315487706104" y1="100.72959589197737" y2="100.7725132973878" /><path d="M 14.003168132696942 100.73817937305945 a86.0,86.0 0 0,1 10.791469493833604,-42.45332614584628" fill="none" id="id106" stroke="none" /><text fill="#e1ed5e" style="font-size:6.75px; font-family:Arial;" text-anchor="middle"><textPath startOffset="22.145653131862435" xlink:href="#id106">October</textPath></text><path d="M 79.00077361379809 100.18025310272382 l -11.54780934705603 0.099124054676496 a32.548234769616094,32.548234769616094 0 0,0 0.0,-0.5587543148006229 l 11.54780934705603 0.09912405467649175" fill="#ff890c" stroke="none" /><path d="M 79.06263194458094 98.37931529534042 l -16.048830198265417 -1.2422809572416929 a37.096838593633265,37.096838593633265 0 0,0 0.05459661382360732,-0.6344954110349821 l 16.025139961744067 1.5175974156523557" fill="#ffc512" stroke="none" /><path d="M 79.13060592940154 97.66154086499901 l -17.83853345069729 -1.9988448807707822 a38.95017149024014,38.95017149024014 0 0,0 0.08015929293506308,-0.6638339362511165 l 17.80159207150256 2.304772493945335" fill="#ffdd14" stroke="none" /><path d="M 79.17382384314186 97.30363454192245 l -14.639097593587021 -1.895324268433979 a35.76128153098775,35.76128153098775 0 0,0 0.08404834945558173,-0.6081319880221302 l 14.604404727576231 2.146344564656176" fill="#ffb410" stroke="none" /><path d="M 79.2786578344484 96.59031103205396 l -3.3067148894367024 -0.5441186767042168 a24.351183148435897,24.351183148435897 0 0,0 0.07141295516554537,-0.411890948140528 l 3.296887116778923 0.6008026577653375" fill="#ff1502" stroke="none" /><path d="M 79.34024301695615 96.23510406497455 l -37.22666857497514 -6.7839390999367986 a58.83975003752923,58.83975003752923 0 0,0 0.18961447839193157,-0.9921430743985731 l 37.10472780430105 7.421984739368686" fill="#3fff2d" stroke="none" /><path d="M 79.56144815229197 95.17655741523228 l -7.862079556110725 -1.8554293679093858 a29.078051317360817,29.078051317360817 0 0,0 0.11882188131565453,-0.4848338238342924 l 7.829070148278772 1.9901190163517959" fill="#ff5908" stroke="none" /><path d="M 79.64726062577567 94.8264132398404 l -4.500937884061084 -1.144120809347643 a25.644077331672953,25.644077331672953 0 0,0 0.11211409781450764,-0.4257154907234825 l 4.480634305441852 1.22121680444391" fill="#ff2803" stroke="none" /><path d="M 80.05021161711548 93.44210830539832 l -56.7981916173385 -18.670693740054755 a80.78820431937073,80.78820431937073 0 0,0 0.4443912078037025,-1.3137636427287813 l 56.469314987962434 19.6429590572577" fill="#49f0ff" stroke="none" /><path d="M 80.41425534168474 92.42381321644754 l -6.802565517472815 -2.631378477909779 a28.293767909216538,28.293767909216538 0 0,0 0.1791148093358093,-0.4514863259796874 l 6.756392033170875 2.7477658211030493" fill="#ff4e07" stroke="none" /><path d="M 80.5471966667186 92.08871423366112 l -6.854261421449327 -2.787568449299209 a28.399421429618464,28.399421429618464 0 0,0 0.18753646582880829,-0.450019247735911 l 6.80539911108404 2.904820206476384" fill="#ff5007" stroke="none" /><path d="M 81.1358732173502 90.77261029715801 l -17.377537910111013 -8.500224591364871 a40.34509348442104,40.34509348442104 0 0,0 0.3096583652047279,-0.6195241623247819 l 17.22905963169454 8.797280609853424" fill="#ffee16" stroke="none" /><path d="M 81.46374523516351 90.13048839642627 l -13.003181357515654 -6.923461665774443 a35.731498459216255,35.731498459216255 0 0,0 0.2929211249983816,-0.5389418776031345 l 12.882414882901921 7.1456583768521975" fill="#ffb310" stroke="none" /><path d="M 81.63589988554816 89.8137432299009 l -3.8587705370705656 -2.1403949696702735 a25.412641010092898,25.412641010092898 0 0,0 0.21487795952772165,-0.3796687652770706 l 3.821459212521475 2.2063205050464494" fill="#ff2503" stroke="none" /><line stroke="#e1ed5e" stroke-width="0.3" x1="26.387840678322718" x2="22.05771365940052" y1="57.49999999999999" y2="54.99999999999999" /><path d="M 25.521815274538284 56.99999999999999 a86.0,86.0 0 0,1 29.574782752854787,-30.34633250058573" fill="none" id="id107" stroke="none" /><text fill="#e1ed5e" style="font-size:6.75px; font-family:Arial;" text-anchor="middle"><textPath startOffset="21.40746469413373" xlink:href="#id107">November</textPath></text><path d="M 82.18462484594161 88.88188828441811 l -5.536591202418263 -3.455242394823855 a27.526296204562232,27.526296204562232 0 0,0 0.25361196812610504,-0.39872013772248593 l 5.476461542666268 3.5497762072250127" fill="#ff4306" stroke="none" /><path d="M 82.37810715431573 88.57770195909679 l -9.999627106135373 -6.481637478129697 a32.916550115685865,32.916550115685865 0 0,0 0.3114149553822777,-0.47152193383138175 l 9.886887711832367 6.65233929030014" fill="#ff8e0d" stroke="none" /><path d="M 82.78059297857968 87.97951657250589 l -9.816815186152366 -6.85289941222284 a32.97213810282507,32.97213810282507 0 0,0 0.32797056280308384,-0.4613316694613694 l 9.69772952481931 7.02040830839373" fill="#ff8f0d" stroke="none" /><path d="M 82.98947788004972 87.6856937992154 l -10.05342445036638 -7.277904004079329 a33.41125416192169,33.41125416192169 0 0,0 0.3403142756384181,-0.46170167415257646 l 9.927008155144144 7.44941198750077" fill="#ff950d" stroke="none" /><path d="M 83.42222388311158 87.10902102172516 l -15.158520947339824 -11.78735757414572 a40.20214977266115,40.20214977266115 0 0,0 0.42831287926285766,-0.5411593310707701 l 14.953941637435404 12.045836849131172" fill="#ffed16" stroke="none" /><path d="M 84.10781606972428 86.27271002978789 l -8.980276994508518 -7.756949381991244 a32.86657653297164,32.86657653297164 0 0,0 0.3724705514478768,-0.42380311407161747 l 8.84579537910205 7.909964773874162" fill="#ff8d0d" stroke="none" /><path d="M 84.83555147118756 85.47280134310135 l -8.539258745816092 -8.180416712644163 a32.825318495520726,32.825318495520726 0 0,0 0.39329920904293797,-0.4035596362472801 l 8.39757273562235 8.325799040959174" fill="#ff8d0d" stroke="none" /><path d="M 85.34317274990677 84.96080404539775 l -7.279989854192074 -7.469910922502987 a31.430619419155747,31.430619419155747 0 0,0 0.3896311914810776,-0.3732578676247467 l 7.150686176845696 7.593780920433303" fill="#ff7a0b" stroke="none" /><path d="M 85.86807049272753 84.46653392183569 l -7.009982751506616 -7.705199012138365 a31.416810932002093,31.416810932002093 0 0,0 0.4020378972907691,-0.3595047668461019 l 6.876679827392455 7.824399308867869" fill="#ff790b" stroke="none" /><path d="M 86.13680546590413 84.22622945171909 l -2.918802724136472 -3.321061702841396 a25.421409297555055,25.421409297555055 0 0,0 0.33026105284383467,-0.28527163152309554 l 2.8613621915297887 3.370677466829202" fill="#ff2503" stroke="none" /><path d="M 86.68645165197937 83.75963576809568 l -4.683195076388883 -5.712736516326546 a28.386993612321852,28.386993612321852 0 0,0 0.3795060280280917,-0.3057031923572606 l 4.584438278005546 5.792288002477206" fill="#ff4f07" stroke="none" /><path d="M 86.96720088162412 83.53348406188908 l -23.59923037418475 -29.816856651749784 a59.02589400454432,59.02589400454432 0 0,0 0.7999134496527357,-0.6220175366832142 l 23.08390697989677 30.217575240053804" fill="#3eff2e" stroke="none" /><path d="M 88.4268655584334 82.4767994020092 l -2.4355335775156095 -3.6877082572084112 a25.41939090797466,25.41939090797466 0 0,0 0.3661776651874979,-0.2373519385414954 l 2.3718702800710854 3.728974037453813" fill="#ff2503" stroke="none" /><path d="M 88.72937992617638 82.28071324371311 l -2.3955678660960324 -3.7662305787494468 a25.463545471189835,25.463545471189835 0 0,0 0.3708412196802128,-0.23143234837847437 l 2.330562517626121 3.8067987239694574" fill="#ff2603" stroke="none" /><path d="M 89.03521579738668 82.08984904055464 l -14.42033280700923 -23.554529910166597 a48.61814399183695,48.61814399183695 0 0,0 0.7155369402309898,-0.42965937356254535 l 14.013863110220806 23.798603284265067" fill="#adff20" stroke="none" /><line stroke="#e1ed5e" stroke-width="0.3" x1="56.869717070023135" x2="54.33264160355391" y1="26.7553504044142" y2="22.446841604673864" /><path d="M 56.362301976729285 25.89364864446614 a86.0,86.0 0 0,1 42.16139366436587,-11.88097634709845" fill="none" id="id108" stroke="none" /><text fill="#e1ed5e" style="font-size:6.75px; font-family:Arial;" text-anchor="middle"><textPath startOffset="22.145653131862474" xlink:href="#id108">December</textPath></text><path d="M 89.65649057296885 81.72400993836675 l -4.396103462499928 -7.767493591739369 a29.925227299666716,29.925227299666716 0 0,0 0.44924294414140914,-0.24918748823300696 l 4.262116330202416 7.841813995405522" fill="#ff6509" stroke="none" /><path d="M 89.97174638481275 81.54914285379989 l -2.1273374306784936 -3.9140612654400178 a25.45482212143018,25.45482212143018 0 0,0 0.3857147186287009,-0.20537136220185498 l 2.059833896263231 3.9500030953644485" fill="#ff2503" stroke="none" /><path d="M 90.61103034731259 81.2157712731953 l -3.961423546757052 -7.925500745945577 a29.860385916583155,29.860385916583155 0 0,0 0.460475234865009,-0.22524151208075704 l 3.82478806262999 7.992336008123548" fill="#ff6409" stroke="none" /><path d="M 90.93487009805054 81.0573650232925 l -5.184297219139483 -10.833187267597802 a33.009782846963574,33.009782846963574 0 0,0 0.513241269151611,-0.24022282903385841 l 4.99756723611635 10.920586328202203" fill="#ff8f0d" stroke="none" /><path d="M 91.5904679813234 80.7573450057729 l -5.375266507027217 -12.299661701392317 a34.42293440311266,34.42293440311266 0 0,0 0.5434970313229157,-0.2319865643405656 l 5.163334400533871 12.390122915392286" fill="#ffa20f" stroke="none" /><path d="M 91.92203290615298 80.6158196554323 l -9.016546920491274 -21.63643025052525 a44.43999215774751,44.43999215774751 0 0,0 0.7066922440862655,-0.28740558345421285 l 8.643800215214569 21.788023090558752" fill="#deff1b" stroke="none" /><path d="M 92.592206182469 80.34994680014964 l -4.144775104910068 -10.994508394679334 a32.74982448851712,32.74982448851712 0 0,0 0.5277569470636917,-0.19379966115720912 l 3.95542900619225 11.064038904845265" fill="#ff8c0c" stroke="none" /><path d="M 92.93061703081487 80.22567764915836 l -2.0976187143007103 -5.867412871327504 a27.231094452277564,27.231094452277564 0 0,0 0.4415252610427531,-0.153585405228602 l 1.996587681212953 5.902556709124692" fill="#ff3f05" stroke="none" /><path d="M 93.61358852112211 79.99465700312896 l -9.039663089098227 -28.316615876016037 a50.72450577275001,50.72450577275001 0 0,0 0.8317837478954402,-0.2576887313170788 l 8.552238708331169 28.46762119513976" fill="#95ff23" stroke="none" /><path d="M 94.30408787586887 79.78721728523814 l -2.9311134709642803 -10.401487665147222 a31.806589278207905,31.806589278207905 0 0,0 0.5268058725615418,-0.14358328316830538 l 2.752126197468061 10.450271442459666" fill="#ff7f0b" stroke="none" /><path d="M 94.6519064749342 79.69241777938228 l -2.4318404535190026 -9.234094304035898 a30.548944737885947,30.548944737885947 0 0,0 0.508268551855609,-0.12919987831298582 l 2.2729666084380153 9.274479414184146" fill="#ff6e0a" stroke="none" /><path d="M 95.00130118170881 79.60360301121753 l -2.128707257238288 -8.68585203266495 a29.94289774739535,29.94289774739535 0 0,0 0.500285716353087,-0.11806606685194684 l 1.9792893871452948 8.72111424316313" fill="#ff6509" stroke="none" /><path d="M 95.70440661134978 79.44403061299748 l -1.815660665847085 -8.688593562638166 a29.876276344854393,29.876276344854393 0 0,0 0.5029223184358939,-0.10059854884817117 l 1.6662418618802144 8.718481508149203" fill="#ff6409" stroke="none" /><path d="M 96.41257539226777 79.30868818359171 l -1.2587161313353123 -7.259940154746829 a28.368249273049138,28.368249273049138 0 0,0 0.4805344983534233,-0.07907176883923395 l 1.1339041299288162 7.280477922081731" fill="#ff4f07" stroke="none" /><path d="M 96.76829788921471 79.25015418208739 l -1.3863194094436566 -8.901165087070938 a30.00847497705859,30.00847497705859 0 0,0 0.5096795068246096,-0.07490533572546121 l 1.233314797011362 8.923651496095284" fill="#ff6609" stroke="none" /><path d="M 97.84075906011542 79.11130261209362 l -1.519071019482263 -14.695634123350603 a35.77393783151999,35.77393783151999 0 0,0 0.6113943765318968,-0.05789968312190761 l 1.2665770795653506 14.719545561977695" fill="#ffb410" stroke="none" /><path d="M 98.1996594967304 79.07731436759882 l -0.7785137963092755 -9.047510396552491 a30.08094312870471,30.08094312870471 0 0,0 0.5148582679457075,-0.03985328613025535 l 0.6230865335883508 9.0595414496778" fill="#ff6709" stroke="none" /></svg>