<?xml version="1.0" encoding="utf-8" ?>
<svg baseProfile="full" height="200mm" version="1.1" viewBox="0,0,200,200" width="200mm" xmlns="http://www.w3.org/2000/svg" xmlns:ev="http://www.w3.org/2001/xml-events" xmlns:xlink="http://www.w3.org/1999/xlink"><defs /><rect fill="#1a1a1a" height="200" width="200" x="0" y="0" /><text alignment-baseline="middle" fill="#e1ed5e" style="dominant-baseline: central; font-size:9.0px; font-family:Arial;" text-anchor="middle" x="100.0" y="100.0">2023</text><line stroke="#e1ed5e" stroke-width="0.3" x1="100.0" x2="100.0" y1="15.0" y2="10.0" /><path d="M 100.0 14.0 a86.0,86.0 0 0,1 42.46469731375804,11.215312516191453" fill="none" id="id85" stroke="none" /><text fill="#e1ed5e" style="font-size:6.75px; font-family:Arial;" text-anchor="middle"><textPath startOffset="22.20632615414155" xlink:href="#id85">January</textPath></text><path d="M 109.41281617654863 81.2277094730956 l 0.8005222491261603 -1.5965079899560273 a22.785965742487644,22.785965742487644 0 0,0 0.34910216703844255,0.178823689158822 l -0.8278849037533584 1.5824917754847048" fill="#ff0100" stroke="none" /><path d="M 110.36928655335952 81.73862282372117 l 1.1087958456150002 -1.9527032109751472 a23.24554627149069,23.24554627149069 0 0,0 0.3462515633024139,0.20057125445673085 l -1.1422441413827424 1.9333277991283668" fill="#ff0801" stroke="none" /><line stroke="#e1ed5e" stroke-width="0.3" x1="143.23703022742887" x2="145.7803849466894" y1="26.81831364943548" y2="22.513508569990506" /><path d="M 143.74570117128098 25.957352633546492 a86.0,86.0 0 0,1 28.547481713284135,27.462654790039103" fill="none" id="id86" stroke="none" /><text fill="#e1ed5e" style="font-size:6.75px; font-family:Arial;" text-anchor="middle"><textPath startOffset="19.985693538727396" xlink:href="#id86">February</textPath></text><path d="M 111.2981086023043 82.29822771554956 l 1.625708282890605 -2.5471447334826522 a24.0217335611148,24.0217335611148 0 0,0 0.34663701746867587,0.22546235849756663 l -1.6693123261435612 2.5187834508255578" fill="#ff1302" stroke="none" /><path d="M 112.19680574252982 82.90503203632743 l 1.7818010414681709 -2.4973613882628696 a24.06783781431863,24.06783781431863 0 0,0 0.3351786616207084,0.24352155214736143 l -1.8245250194426679 2.466320601298833" fill="#ff1402" stroke="none" /><path d="M 114.16331599549186 84.49514656593476 l 2.034581916885503 -2.227295813420402 a24.0166819880454,24.0166819880454 0 0,0 0.3028299070400346,0.28144739499817895 l -2.0726197077203845 2.1919438323475826" fill="#ff1302" stroke="none" /><path d="M 114.42810811169701 84.74124197986012 l 2.15685355237943 -2.2810271579511956 a24.139283698827278,24.139283698827278 0 0,0 0.2994613281303862,0.28808156039853217 l -2.1957981241222346 2.2435625107903614" fill="#ff1502" stroke="none" /><path d="M 114.68862486808459 84.99185889309783 l 3.16064253244218 -3.229394823639097 a25.518700271630053,25.518700271630053 0 0,0 0.31128463980247817,0.30994788463323353 l -3.215762972411981 3.174511088355745" fill="#ff2904" stroke="none" /><path d="M 115.9244219780498 86.31012108654704 l 2.507537411111407 -2.155675325382985 a24.306762763880762,24.306762763880762 0 0,0 0.27002427491904407,0.31962357146353115 l -2.5442722995175684 2.1121928042903475" fill="#ff1802" stroke="none" /><path d="M 116.15771136456269 86.58626213691792 l 2.2906211406557686 -1.9016177991506107 a23.977095138564696,23.977095138564696 0 0,0 0.26089535213283044,0.31982685310117226 l -2.323014984865008 1.8619067764413377" fill="#ff1302" stroke="none" /><line stroke="#e1ed5e" stroke-width="0.3" x1="172.23445277983987" x2="176.4835382374775" y1="55.19839476539836" y2="52.563006222186495" /><path d="M 173.08426987136738 54.67131705675599 a86.0,86.0 0 0,1 12.851231095245387,41.99856678651699" fill="none" id="id87" stroke="none" /><text fill="#e1ed5e" style="font-size:6.75px; font-family:Arial;" text-anchor="middle"><textPath startOffset="22.20632615414155" xlink:href="#id87">March</textPath></text><path d="M 117.84615892207809 88.93136811851018 l 2.729518091874334 -1.6929150471392018 a24.211888910080738,24.211888910080738 0 0,0 0.21662054380253082,0.35606721747442877 l -2.758254433963089 1.6456800564576914" fill="#ff1602" stroke="none" /><path d="M 120.37134235888165 94.90015583598534 l 3.169643674224072 -0.7935014055148888 a24.26745856930165,24.26745856930165 0 0,0 0.09795640512887056,0.4060925395879095 l -3.182832879613762 0.7388236342675732" fill="#ff1702" stroke="none" /><path d="M 120.45610955862082 95.25157060432595 l 2.915196641970142 -0.6766978534815098 a23.992706374882186,23.992706374882186 0 0,0 0.08992193631977252,0.40310240860172303 l -2.9264129652919517 0.6264172753298229" fill="#ff1302" stroke="none" /><path d="M 120.53481517161879 95.60439243477599 l 2.9667406668486085 -0.635049675892918 a24.033947638833773,24.033947638833773 0 0,0 0.08311248568924792,0.4052859970192823 l -2.977232448452853 0.5838880227102239" fill="#ff1402" stroke="none" /><path d="M 120.6074358757038 95.95851677861258 l 2.977556192514712 -0.5839515146556518 a24.034277550101727,24.034277550101727 0 0,0 0.07612488440926367,0.406662176471453 l -2.987166800833835 0.532611260721636" fill="#ff1402" stroke="none" /><path d="M 120.73433829027371 96.67025291283417 l 2.9384109522403836 -0.4718822068080298 a23.976059767771517,23.976059767771517 0 0,0 0.06193142575946252,0.4080507163020014 l -2.946098271439146 0.42123237811394626" fill="#ff1302" stroke="none" /><path d="M 120.78858239683441 97.02765380044208 l 2.979825198624721 -0.42605464554561473 a24.010129694107857,24.010129694107857 0 0,0 0.05497633803966464,0.40963757495463793 l -2.986717535722222 0.3746987285263125" fill="#ff1302" stroke="none" /><path d="M 120.83666639777658 97.38593545837742 l 2.9708945322011893 -0.3727136531953222 a23.99418265787863,23.99418265787863 0 0,0 0.047885129769481054,0.41025054890897855 l -2.9768700149742595 0.3215193659614909" fill="#ff1302" stroke="none" /><path d="M 120.87857604477298 97.74499172005257 l 2.94844141846928 -0.31844891133045955 a23.965588728612364,23.965588728612364 0 0,0 0.04076760543350555,0.41052422317885034 l -2.9534861495850144 0.2676491574471742" fill="#ff1302" stroke="none" /><path d="M 120.91429891909075 98.10471618934814 l 4.4701109332178435 -0.40508787391444623 a25.488428226101675,25.488428226101675 0 0,0 0.03583614285740056,0.4372917124815767 l -4.476421559894739 0.32808224422510074" fill="#ff2904" stroke="none" /><path d="M 120.94382443527127 98.46500227214037 l 3.0215166402798332 -0.2214505374533591 a24.029620957814082,24.029620957814082 0 0,0 0.02668364567257787,0.4127841880936537 l -3.0248808769568267 0.1694072851066702" fill="#ff1402" stroke="none" /><line stroke="#e1ed5e" stroke-width="0.3" x1="184.98032266829074" x2="189.97916517819016" y1="98.17113171792111" y2="98.06355123074" /><path d="M 185.9800911702706 98.14961562048488 a86.0,86.0 0 0,1 -9.607161424134198,41.387399972396054" fill="none" id="id88" stroke="none" /><text fill="#e1ed5e" style="font-size:6.75px; font-family:Arial;" text-anchor="middle"><textPath startOffset="21.466115282336823" xlink:href="#id88">April</textPath></text><path d="M 120.8583938346157 102.4346265915055 l 2.953509313603839 0.3447385436373208 a23.97356048013384,23.97356048013384 0 0,0 -0.051370192361210945,0.40947097670196975 l -2.9471376119957795 -0.3955272746266855" fill="#ff1302" stroke="none" /><path d="M 118.64920377521936 109.65438752849418 l 3.2734021363692802 1.6945867041842688 a24.686025724867513,24.686025724867513 0 0,0 -0.1986020061005777,0.37568015042214686 l -3.2437476220438093 -1.75068186969255" fill="#ff1d02" stroke="none" /><line stroke="#e1ed5e" stroke-width="0.3" x1="174.80103733775053" x2="179.2010983576182" y1="140.37084112569926" y2="142.7455964860345" /><path d="M 175.68104954172406 140.8457921977663 a86.0,86.0 0 0,1 -30.038265399797805,32.042727171017184" fill="none" id="id89" stroke="none" /><text fill="#e1ed5e" style="font-size:6.75px; font-family:Arial;" text-anchor="middle"><textPath startOffset="22.206326154141568" xlink:href="#id89">May</textPath></text><path d="M 118.48025628344425 109.97397251340804 l 3.9355210154840803 2.1240386406081933 a25.472120952089014,25.472120952089014 0 0,0 -0.2115685140642285,0.38405830725563583 l -3.8983760919683426 -2.1914674662616345" fill="#ff2803" stroke="none" /><path d="M 118.30583269289576 110.29060199501025 l 5.185574303089236 2.915064404000222 a26.948763008586624,26.948763008586624 0 0,0 -0.2307943444408047,0.40240939324573 l -5.134627962496053 -3.003893643104267" fill="#ff3e05" stroke="none" /><path d="M 118.12598468904814 110.60418214915192 l 8.468625225156078 4.954370533851184 a30.811391368753092,30.811391368753092 0 0,0 -0.27175518703998325,0.45547732480816544 l -8.382089162417866 -5.099409952545453" fill="#ff740a" stroke="none" /><path d="M 117.94076556474637 110.91462005526583 l 6.347581627538905 3.861676999476052 a28.429962433724132,28.429962433724132 0 0,0 -0.25794824459694793,0.41589470279940527 l -6.280168743273995 -3.9703680336407303" fill="#ff5307" stroke="none" /><path d="M 117.75023020441432 111.22182372390056 l 2.7484725672168486 1.7376042059225534 a24.25167185139942,24.25167185139942 0 0,0 -0.226112352546652,0.3509313924491995 l -2.7181553512931464 -1.784657198293206" fill="#ff1702" stroke="none" /><path d="M 117.35343817320211 111.8261652097733 l 3.11712792436884 2.1242862334053214 a24.77214507917118,24.77214507917118 0 0,0 -0.24316702448896663,0.3503002350300337 l -3.0800999927177375 -2.1776277306223744" fill="#ff1e03" stroke="none" /><path d="M 116.93607887273984 112.41649034213515 l 2.8350122711662835 2.078456456732132 a24.515291711962877,24.515291711962877 0 0,0 -0.25243598220929336,0.3381792506679848 l -2.798815022261898 -2.126948586909432" fill="#ff1b02" stroke="none" /><path d="M 116.498646956653 112.99209946851258 l 3.5466848036698697 2.792888524362287 a25.51433266453607,25.51433266453607 0 0,0 -0.2746825524440646,0.3427087185471859 l -3.4980843391709513 -2.853525076487723" fill="#ff2904" stroke="none" /><path d="M 116.27256486870786 113.27417163493432 l 13.720575297581266 11.192413298063935 a38.706617461595414,38.706617461595414 0 0,0 -0.42559584773680015,0.5126576153403014 l -13.525883449950923 -11.426932170518006" fill="#ffdc14" stroke="none" /><path d="M 116.0416608686014 113.55231037782055 l 5.639179369964039 4.76408956179475 a28.382201116159713,28.382201116159713 0 0,0 -0.3184989660900781,0.37048625248298184 l -5.556337894303183 -4.86045291343926" fill="#ff5207" stroke="none" /><path d="M 115.80600337817218 113.82643327865902 l 5.606258057841672 4.9041209928335645 a28.448525499954037,28.448525499954037 0 0,0 -0.32558815926035883,0.36580174846539143 l -5.521011048932975 -4.999896911039822" fill="#ff5307" stroke="none" /><path d="M 115.56566222782051 114.09645910891815 l 5.481185155524508 4.963830082035581 a28.39479545305099,28.39479545305099 0 0,0 -0.33120986383102763,0.3594628924460176 l -5.394928883697759 -5.0574442292829325" fill="#ff5207" stroke="none" /><path d="M 115.07121518719521 114.62390073753431 l 7.461761719546048 7.240296244093529 a31.39710429213431,31.39710429213431 0 0,0 -0.3796947133855519,0.38462874003009645 l -7.33602638110496 -7.36766547810429" fill="#ff7c0b" stroke="none" /><path d="M 114.81725581225074 114.88116024355365 l 5.238237268787356 5.260828940142238 a28.423978099479477,28.423978099479477 0 0,0 -0.3496826712223764,0.3422380922373549 l -5.146904645189185 -5.350217135302165" fill="#ff5207" stroke="none" /><path d="M 114.29624159901734 115.38237550388516 l 5.223804887003588 5.620675040665429 a28.67333860912197,28.67333860912197 0 0,0 -0.3644250949078009,0.3328936837626735 l -5.126280242628924 -5.709761491014685" fill="#ff5608" stroke="none" /><path d="M 113.75828350139079 115.86535959552629 l 7.954805084158849 9.173080577947317 a33.14184216733498,33.14184216733498 0 0,0 -0.43421261666992517,0.37004541196765345 l -7.795726990911877 -9.308650380137918" fill="#ff930d" stroke="none" /><path d="M 113.48314897796784 116.09983520530334 l 4.748691559711589 5.670274182766938 a28.39608550768779,28.39608550768779 0 0,0 -0.37743789036165964,0.31060568792689636 l -4.650383540805238 -5.7511749895510125" fill="#ff5207" stroke="none" /><path d="M 113.20401910651253 116.32954008644616 l 4.650221276102751 5.750974315200082 a28.39582743787399,28.39582743787399 0 0,0 -0.38272505687529956,0.3040599321209798 l -4.5505387265101005 -5.8301681613261875" fill="#ff5207" stroke="none" /><path d="M 112.63410532772338 116.77436683061366 l 10.628249399160676 14.111181564836322 a38.66593134953648,38.66593134953648 0 0,0 -0.5350905134733003,0.39584716966006755 l -10.383773915268812 -14.292038683236159" fill="#ffdb14" stroke="none" /><path d="M 112.04921762599082 117.19931262002967 l 4.243542137060158 6.0573233961789885 a28.395864830762015,28.395864830762015 0 0,0 -0.40273870690579344,0.2770073549773996 l -4.138646545531481 -6.129471540521482" fill="#ff5207" stroke="none" /><path d="M 111.7513745106137 117.40417183066458 l 4.148883399291819 6.144632657349935 a28.414158344322743,28.414158344322743 0 0,0 -0.40770975348349586,0.27020779287551805 l -4.042498947068359 -6.215138471316772" fill="#ff5207" stroke="none" /><path d="M 111.1453310114006 117.79835938074945 l 5.3678957146643365 8.572175824141322 a31.11417336036439,31.11417336036439 0 0,0 -0.4563720272335374,0.2803409735658181 l -5.2195444874984895 -8.663305264535518" fill="#ff780b" stroke="none" /><line stroke="#e1ed5e" stroke-width="0.3" x1="143.8653032363475" x2="146.44561519142675" y1="172.8068346515853" y2="177.08958963109032" /><path d="M 144.38136562736335 173.6633856474863 a86.0,86.0 0 0,1 -40.68145358897372,12.25698825130547" fill="none" id="id90" stroke="none" /><text fill="#e1ed5e" style="font-size:6.75px; font-family:Arial;" text-anchor="middle"><textPath startOffset="21.466115282336833" xlink:href="#id90">June</textPath></text><path d="M 110.8373102113329 117.98757091392108 l 3.8239306589096915 6.346890746481196 a28.409822388689093,28.409822388689093 0 0,0 -0.42104997646367814,0.2487637477006262 l -3.7141128114176314 -6.411773066475572" fill="#ff5207" stroke="none" /><path d="M 110.5260780823613 118.17145234162733 l 8.93204148157576 15.419623987767535 a38.81982516616608,38.81982516616608 0 0,0 -0.5810980908994179,0.32996266174126937 l -8.665294623755143 -15.571089815303433" fill="#ffdd14" stroke="none" /><path d="M 108.92500713936063 119.00905698771935 l 1.7577767386309633 3.7438264949911444 a25.135941958909697,25.135941958909697 0 0,0 -0.3932362566683057,0.18051547841599225 l -1.6930724861952382 -3.773529043741211" fill="#ff2403" stroke="none" /><path d="M 108.2653958097858 119.30500536409082 l 2.904984657922451 6.785004093500005 a28.380732782832382,28.380732782832382 0 0,0 -0.4507516373071735,0.18841422095143873 l -2.7877615611178164 -6.834003357471416" fill="#ff5207" stroke="none" /><path d="M 107.93186726928326 119.44442032107085 l 3.8349082223147377 9.40101048541076 a31.153103920495457,31.153103920495457 0 0,0 -0.49827004870342534,0.19827193550094688 l -3.672517097569446 -9.465629265317775" fill="#ff780b" stroke="none" /><path d="M 107.59598834532513 119.57807347666477 l 3.56775554718505 9.195614457802002 a30.863478336824535,30.863478336824535 0 0,0 -0.4969457674571677,0.18790236729329077 l -3.4089395589676075 -9.255665075201923" fill="#ff740a" stroke="none" /><path d="M 107.2578585660854 119.70592522655815 l 5.1049577632096135 13.860550608773385 a35.770763586982305,35.770763586982305 0 0,0 -0.5796233880946773,0.2078323249583794 l -4.865614814485202 -13.946370474771724" fill="#ffb610" stroke="none" /><path d="M 106.91757812671514 119.82793768551818 l 2.4340968445784825 6.9768811671862805 a28.38929619583797,28.38929619583797 0 0,0 -0.4627864451640657,0.15700228877376668 l -2.31364066647719 -7.0177464428581695" fill="#ff5207" stroke="none" /><path d="M 106.57524785965236 119.94407469862006 l 2.3114468037113776 7.0110920073427625 a28.38228944581646,28.38228944581646 0 0,0 -0.46530554445929956,0.14897614147107632 l -2.190419914161138 -7.049840995473545" fill="#ff5207" stroke="none" /><path d="M 106.2309692047433 120.05430185196036 l 0.5047167970931136 1.6244251361336823 a22.701027944559073,22.701027944559073 0 0,0 -0.374161613216343,0.11273182476756914 l -0.4766802094365247 -1.632872330006977" fill="#ff0000" stroke="none" /><path d="M 105.88484417918355 120.15858648285463 l 2.085598344068226 7.144235821250009 a28.442434139608622,28.442434139608622 0 0,0 -0.4711541114479683,0.1331528581264107 l -1.9623130645156517 -7.17907747271494" fill="#ff5307" stroke="none" /><path d="M 105.53697534728816 120.25689768951611 l 4.000023848918272 14.63399577945511 a36.170828034917044,36.170828034917044 0 0,0 -0.6020023852202538,0.15899430145120427 l -3.7475310208865205 -14.7006814302099" fill="#ffbb11" stroke="none" /><path d="M 104.83641907484287 120.43548508189849 l 2.4612216066081154 10.399482891527656 a31.686760791185094,31.686760791185094 0 0,0 -0.5318545099952875,0.12104835490530597 l -2.281846947219966 -10.440307980010646" fill="#ff7f0b" stroke="none" /><path d="M 104.48393922423573 120.51570834832081 l 1.5768043359994008 7.214472869053034 a28.384776956166572,28.384776956166572 0 0,0 -0.47822745011973156,0.10021721189099257 l -1.4523854244502914 -7.2405460616705675" fill="#ff5207" stroke="none" /><path d="M 103.06178313531738 120.77559828337769 l 2.157808877910803 14.641719690292131 a35.79986806166457,35.79986806166457 0 0,0 -0.6104242472459916,0.0845992384698859 l -1.9054560394779807 -14.67669349425462" fill="#ffb610" stroke="none" /><path d="M 101.98527174616119 120.90594882070398 l 1.0617874264308564 11.181176399831852 a32.23147800706049,32.23147800706049 0 0,0 -0.5527785691348269,0.04769606091586764 l -0.8691645395544879 -11.197796713026383" fill="#ff870c" stroke="none" /><path d="M 101.26447882468166 120.96189622390904 l 0.9456488836820481 15.676493253249161 a36.7049894151628,36.7049894151628 0 0,0 -0.630997101315748,0.03261534263229866 l -0.6756637139528205 -15.690448402643662" fill="#ffc212" stroke="none" /><path d="M 100.90346689309514 120.98055641714683 l 0.6355870672665235 14.759777502317302 a35.77345602213607,35.77345602213607 0 0,0 -0.6154391243361719,0.02119696782279563 l -0.3814275912556993 -14.768531268566191" fill="#ffb610" stroke="none" /><line stroke="#e1ed5e" stroke-width="0.3" x1="102.19456741930631" x2="102.32365962044197" y1="184.97166512339345" y2="189.96999836594603" /><path d="M 102.22038585953345 185.97133177190398 a86.0,86.0 0 0,1 -42.740103519485714,-10.115201625700543" fill="none" id="id91" stroke="none" /><text fill="#e1ed5e" style="font-size:6.75px; font-family:Arial;" text-anchor="middle"><textPath startOffset="22.20632615414155" xlink:href="#id91">July</textPath></text><path d="M 100.54218724476979 120.99299961872073 l 0.2694574786323926 10.433149803428215 a31.436628869207006,31.436628869207006 0 0,0 -0.5410697565340613,0.009315006543107903 l -0.08982803220566334 -10.436242287250481" fill="#ff7c0b" stroke="none" /><path d="M 99.81925306533755 120.99922214144158 l -0.1271434454746732 14.771555934473207 a35.77210310622688,35.77210310622688 0 0,0 -0.6156895257098143,-0.010599653540511431 l 0.3813926610771554 -14.767178803653536" fill="#ffb610" stroke="none" /><path d="M 99.45781275523022 120.99299961872073 l -0.8040733253056624 31.132991737444353 a52.14337342736407,52.14337342736407 0 0,0 -0.8970637911588502,-0.03089669077619791 l 1.3398574681391555 -31.11453824824206" fill="#84ff25" stroke="none" /><path d="M 99.09653310690486 120.98055641714683 l -0.43899291450413963 10.194414073025637 a31.203861674448945,31.203861674448945 0 0,0 -0.5364269702881485,-0.02772714707670189 l 0.614407953205777 -10.185347119186734" fill="#ff790b" stroke="none" /><path d="M 95.86986931433489 120.58985236759428 l -1.7483163366808516 8.715844123057106 a29.889462795385008,29.889462795385008 0 0,0 -0.5035784357283755,-0.10552975740830267 l 1.898086233838614 -8.684458384922262" fill="#ff6709" stroke="none" /><path d="M 95.51606077576429 120.51570834832081 l -2.3378016951552913 10.6963219962445 a31.94881824733678,31.94881824733678 0 0,0 -0.5362530801378977,-0.1220494551492458 l 2.5215749246860515 -10.654495807517566" fill="#ff830c" stroke="none" /><path d="M 94.81253420990036 120.34920634021253 l -1.9742401936400493 7.744479229568248 a28.99215758599628,28.99215758599628 0 0,0 -0.48252553142005156,-0.12743937845434508 l 2.1072561678715904 -7.709348501810322" fill="#ff5a08" stroke="none" /><path d="M 94.46302465271185 120.25689768951611 l -2.726403061278767 9.974483252802777 a31.340386347375677,31.340386347375677 0 0,0 -0.5191592185624611,-0.14671958090702064 l 2.8976934479458416 -9.926074878557236" fill="#ff7b0b" stroke="none" /><path d="M 94.11515582081647 120.15858648285463 l -4.142997033168502 14.191873471648073 a35.78423812890307,35.78423812890307 0 0,0 -0.5898009684287098,-0.1777021935764513 l 4.386672976037458 -14.118455908965895" fill="#ffb610" stroke="none" /><path d="M 93.42475214034765 119.94407469862007 l -3.0021914673046406 9.10626217619868 a30.588386956523163,30.588386956523163 0 0,0 -0.4986347940879073,-0.16916399508261967 l 3.1584959943297735 -9.053235194217937" fill="#ff700a" stroke="none" /><path d="M 92.7421414339146 119.70592522655815 l -5.109006718450849 13.871543990430391 a35.78247889657284,35.78247889657284 0 0,0 -0.5761486519022861,-0.21785012106901455 l 5.347025591113418 -13.781545619254743" fill="#ffb610" stroke="none" /><path d="M 92.40401165467489 119.57807347666478 l -2.6903361474638396 6.934133700243311 a28.43774957626301,28.43774957626301 0 0,0 -0.45484003464125355,-0.1809902366122664 l 2.8092972581469513 -6.886796619224978" fill="#ff5307" stroke="none" /><path d="M 92.06813273071674 119.44442032107085 l -3.906655289422608 9.576893424734783 a31.34305773062792,31.34305773062792 0 0,0 -0.49780020475157677,-0.20808052595895182 l 4.070926953671647 -9.508227855755857" fill="#ff7b0b" stroke="none" /><path d="M 91.40352486487194 119.15986991738527 l -4.370986000686736 9.742077056868318 a31.677714362173184,31.677714362173184 0 0,0 -0.4955782375672361,-0.22749566228950985 l 4.538032234021392 -9.665394324244733" fill="#ff7f0b" stroke="none" /><path d="M 91.07499286063937 119.00905698771935 l -6.319696385679096 13.460097775234258 a35.86986195383238,35.86986195383238 0 0,0 -0.5566444576825742,-0.2672231669156251 l 6.550453511361912 -13.34932033181907" fill="#ffb711" stroke="none" /><line stroke="#e1ed5e" stroke-width="0.3" x1="58.666819895761336" x2="56.23545636021788" y1="174.27360380694188" y2="178.64263932499728" /><path d="M 58.180547188652646 175.14741091055294 a86.0,86.0 0 0,1 -31.652253787137756,-30.449443065178592" fill="none" id="id92" stroke="none" /><text fill="#e1ed5e" style="font-size:6.75px; font-family:Arial;" text-anchor="middle"><textPath startOffset="22.20632615414155" xlink:href="#id92">August</textPath></text><path d="M 89.7882731507175 118.34994917583269 l -3.6256681815797354 6.515139686202685 a28.456038820556994,28.456038820556994 0 0,0 -0.425961471037147,-0.24187204016640218 l 3.7372784195380895 -6.451764480241651" fill="#ff5307" stroke="none" /><path d="M 89.4739219176387 118.17145234162733 l -11.10306339542046 19.167517641165908 a43.15111169415955,43.15111169415955 0 0,0 -0.6395243980983503,-0.3778422869254257 l 11.431355664547192 -18.973556781946733" fill="#ebff1a" stroke="none" /><path d="M 88.8546689885994 117.79835938074946 l -4.006284185535008 6.397771913873782 a28.548628911081806,28.548628911081806 0 0,0 -0.41425175027695,-0.2643950666699525 l 4.115817737858881 -6.327862418380025" fill="#ff5407" stroke="none" /><path d="M 88.54995079064634 117.60387380957326 l -8.077501328857444 12.418751351191212 a35.81456758870833,35.81456758870833 0 0,0 -0.513896922293597,-0.3405828581535134 l 8.290072949891004 -12.277870471946379" fill="#ffb610" stroke="none" /><path d="M 88.24862548938628 117.40417183066458 l -8.257890165876342 12.230206711211457 a35.75705614919991,35.75705614919991 0 0,0 -0.5071425238186638,-0.3488172522548976 l 8.467189574317896 -12.086248669591459" fill="#ffb610" stroke="none" /><path d="M 87.65650970185807 116.9893568818739 l -13.036884396062034 17.943731982012544 a43.17967249980453,43.17967249980453 0 0,0 -0.5975553238498762,-0.4420571430539553 l 13.343824690330473 -17.71666489021882" fill="#ebff1a" stroke="none" /><path d="M 87.36589467227662 116.77436683061367 l -8.893569416038616 11.808038000981337 a35.78260255809229,35.78260255809229 0 0,0 -0.4888095568405786,-0.37479832427655857 l 9.095507701372682 -11.653200334877411" fill="#ffb610" stroke="none" /><path d="M 86.51685102203217 116.09983520530335 l -3.3265596762885377 3.9721479512217592 a26.181115577392973,26.181115577392973 0 0,0 -0.3430156550984293,-0.29232538284060006 l 3.3944408079640236 -3.914298178158208" fill="#ff3304" stroke="none" /><path d="M 86.24171649860922 115.8653595955263 l -15.168165169166935 17.491164125876896 a44.15197739022505,44.15197739022505 0 0,0 -0.5698919574245686,-0.5028633922254746 l 15.466999479498092 -17.227477591879133" fill="#dfff1b" stroke="none" /><path d="M 85.97065885151581 115.62618273729859 l -9.917544837065872 11.046375327902524 a35.845204730151266,35.845204730151266 0 0,0 -0.4555762519966765,-0.41615810459028385 l 10.106220638529404 -10.874024456725664" fill="#ffb711" stroke="none" /><path d="M 85.70375840098266 115.38237550388516 l -5.491292505487447 5.908484599678584 a29.06625586288097,29.06625586288097 0 0,0 -0.36355542112412637,-0.3437643426581024 l 5.59218376100239 -5.813085620274551" fill="#ff5b08" stroke="none" /><path d="M 85.44109423537348 115.13401014063109 l -10.270164551006527 10.675855519205633 a35.81385064632773,35.81385064632773 0 0,0 -0.44059571524214103,-0.43121564047002037 l 10.452410218624463 -10.497489775813044" fill="#ffb610" stroke="none" /><path d="M 84.9287848128048 114.62390073753433 l -5.327548904642878 5.169426976402718 a28.42332490166783,28.42332490166783 0 0,0 -0.33768730242826,-0.3540637865399863 l 5.415742758450096 -5.076956073280232" fill="#ff5207" stroke="none" /><path d="M 84.67929136418377 114.36230785411682 l -5.593419010000288 5.2435176262598215 a28.66686463414674,28.66686463414674 0 0,0 -0.33438340303021175,-0.3629071424651255 l 5.682848821026229 -5.146459228993352" fill="#ff5607" stroke="none" /><path d="M 84.43433777217949 114.09645910891817 l -5.51467544366468 4.994159307378152 a28.439977986286657,28.439977986286657 0 0,0 -0.3254903345333367,-0.3656918413475524 l 5.599824627846355 -4.898493296289736" fill="#ff5307" stroke="none" /><path d="M 83.95833913139862 113.55231037782056 l -13.575063013237806 11.468480032137144 a38.77099800407691,38.77099800407691 0 0,0 -0.4263037393933845,-0.5135103164428013 l 13.770462752524727 -11.233108458580581" fill="#ffdc14" stroke="none" /><path d="M 83.72743513129214 113.27417163493432 l -13.704895633532104 11.179622778963477 a38.686382609395466,38.686382609395466 0 0,0 -0.4164903883512688,-0.5196357977929772 l 13.895303933938234 -10.942059147592241" fill="#ffdb14" stroke="none" /><path d="M 83.28015986056508 112.70617746262583 l -11.845653820971798 9.002058533747821 a35.87805673773715,35.87805673773715 0 0,0 -0.3694393115433405,-0.49492433072174974 l 11.998854399210224 -8.796821323516763" fill="#ffb711" stroke="none" /><path d="M 83.06392112726016 112.41649034213515 l -1.7452836600332826 1.279534529327792 a23.164075707021652,23.164075707021652 0 0,0 -0.2329867085840124,-0.3235981606298009 l 1.7670501609929024 -1.249302763246853" fill="#ff0701" stroke="none" /><path d="M 82.6465618267979 111.8261652097733 l -25.75201675119654 17.549698310205454 a52.16341248215823,52.16341248215823 0 0,0 -0.49927066286156896,-0.7463418990449459 l 26.050290519468838 -17.103819496954685" fill="#84ff25" stroke="none" /><path d="M 82.24976979558568 111.22182372390057 l -26.330427387768843 16.64628634771303 a52.151087550720035,52.151087550720035 0 0,0 -0.47317267896116294,-0.7629050199463092 l 26.61306470639796 -16.19058499640146" fill="#84ff25" stroke="none" /><line stroke="#e1ed5e" stroke-width="0.3" x1="26.63291911575756" x2="22.317208475507996" y1="142.92168965132927" y2="145.44649492493687" /><path d="M 25.769776987707644 143.4266507060508 a86.0,86.0 0 0,1 -11.730757126820373,-40.83630448921669" fill="none" id="id93" stroke="none" /><text fill="#e1ed5e" style="font-size:6.75px; font-family:Arial;" text-anchor="middle"><textPath startOffset="21.46611528233685" xlink:href="#id93">September</textPath></text><path d="M 81.51974371655577 109.97397251340807 l -27.41712401546814 14.797286202787127 a52.15539067716459,52.15539067716459 0 0,0 -0.4195963065456247,-0.7937180829875639 l 27.667772830238654 -14.323153104713436" fill="#84ff25" stroke="none" /><path d="M 81.18737489456691 109.33194174019688 l -8.692601225413712 4.3119366782521835 a30.703304281600182,30.703304281600182 0 0,0 -0.23078174247704497,-0.4754787447968923 l 8.765536224505476 -4.161668977490007" fill="#ff720a" stroke="none" /><path d="M 81.02952815118164 109.00673069616217 l -28.141241804949438 13.36079505099646 a52.15189135059644,52.15189135059644 0 0,0 -0.3780400782558225,-0.8142646965388324 l 28.367056500045088 -12.8744102871788" fill="#84ff25" stroke="none" /><path d="M 80.58989483394504 108.01547362559985 l -15.458677670168502 6.383717248919419 a37.724908407053164,37.724908407053164 0 0,0 -0.2426922144367798,-0.6023421731884377 l 15.56627249886267 -6.1166757078881755" fill="#ffcf13" stroke="none" /><path d="M 80.45479744820244 107.68017299344265 l -13.7078926117996 5.3864362037257525 a35.72820473898423,35.72820473898423 0 0,0 -0.2199933929811885,-0.5743333294876649 l 13.798580284374298 -5.14967930740493" fill="#ffb510" stroke="none" /><path d="M 80.32549172779594 107.34259656027581 l -3.2212473193228193 1.2021809724247678 a24.43826604303748,24.43826604303748 0 0,0 -0.14369204568642777,-0.39537879645107543 l 3.241463626014472 -1.1465543789675752" fill="#ff1902" stroke="none" /><path d="M 80.0844068197444 106.66101706037122 l -16.904229457482174 5.6538291272363415 a38.8246671035168,38.8246671035168 0 0,0 -0.20652457938939703,-0.6356172980087936 l 16.99904628788782 -5.362012929249744" fill="#ffdd14" stroke="none" /><path d="M 79.97269907076064 106.31721596034903 l -21.836085452230506 6.887761262376703 a43.896634754579324,43.896634754579324 0 0,0 -0.2210994635291154,-0.7225658395424968 l 21.95141168826575 -6.5108684502821585" fill="#e3ff1b" stroke="none" /><path d="M 79.76711848015287 105.62410040840567 l -15.171402403302379 4.217169480718851 a36.746617710227035,36.746617710227035 0 0,0 -0.16415575692046672,-0.6108846389415512 l 15.241746236564621 -3.95539390860176" fill="#ffc312" stroke="none" /><path d="M 79.67330655649465 105.27499134158121 l -30.125559569877332 7.817900453561791 a52.12344625680179,52.12344625680179 0 0,0 -0.21789756387127526,-0.8703924531869816 l 30.255668448043664 -7.2981801609774175" fill="#85ff25" stroke="none" /><path d="M 79.50377843672027 104.57218783832718 l -15.706432985346597 3.503707337344538 a37.09248278634921,37.09248278634921 0 0,0 -0.13364944600601178,-0.6243657175484891 l 15.76441647007705 -3.232827800379885" fill="#ffc712" stroke="none" /><path d="M 79.4281124754447 104.21870165774334 l -17.40482261780528 3.569227857328138 a38.76702670270953,38.76702670270953 0 0,0 -0.12842974504960145,-0.654860503103631 l 17.463682295830548 -3.269103627156552" fill="#ffdc14" stroke="none" /><path d="M 79.35854240842038 103.8639653848113 l -15.555175864512801 2.9118419001402494 a36.82536948786138,36.82536948786138 0 0,0 -0.11127146219898537,-0.6240694522881478 l 15.602993769050975 -2.643653697118888" fill="#ffc412" stroke="none" /><path d="M 79.23777060512086 103.15116336523772 l -30.824828472147516 4.678402707809662 a52.17783671510512,52.17783671510512 0 0,0 -0.1271299300680617,-0.8891464347984604 l 30.900792453232178 -4.1471108010308" fill="#84ff25" stroke="none" /><path d="M 79.1416061653843 102.43462659150553 l -6.818973725795448 0.7959220106414788 a27.865267257733834,27.865267257733834 0 0,0 -0.051507883000158225,-0.47689902590919486 l 6.831663910296658 -0.678426662847502" fill="#ff4b06" stroke="none" /><path d="M 79.07016306316243 101.71520430193888 l -17.831336534354705 1.461281577364564 a38.89111249894086,38.89111249894086 0 0,0 -0.04893509664735706,-0.6676805146378466 l 17.853848189666397 -1.1541279262299569" fill="#ffde14" stroke="none" /><path d="M 79.04373962182676 101.35467743843564 l -22.50800768690359 1.4549871803149543 a43.554986094622,43.554986094622 0 0,0 -0.04192405742929182,-0.7485822083888477 l 22.52971809522041 -1.067333255590669" fill="#e7ff1a" stroke="none" /><line stroke="#e1ed5e" stroke-width="0.3" x1="15.007084014347285" x2="10.007500721073583" y1="101.09737516637583" y2="101.16192664675087" /><path d="M 14.007167355692545 101.11028546245083 a86.0,86.0 0 0,1 10.666146001902534,-42.60595125391555" fill="none" id="id94" stroke="none" /><text fill="#e1ed5e" style="font-size:6.75px; font-family:Arial;" text-anchor="middle"><textPath startOffset="22.20632615414155" xlink:href="#id94">October</textPath></text><path d="M 79.00175016825051 100.2711162175752 l -50.814012729921366 0.6560786275780184 a71.81824799107281,71.81824799107281 0 0,0 -0.005320373479183654,-1.2362674257519406 l 50.817777400690055 0.21869827637759745" fill="#3effb3" stroke="none" /><path d="M 79.05617556472873 98.46500227214037 l -44.11890962174485 -3.2335272019838097 a65.2372454429258,65.2372454429258 0 0,0 0.09172206409031171,-1.1192415053707832 l 44.056713073835034 3.992482624562371" fill="#35ff69" stroke="none" /><path d="M 79.12142395522702 97.74499172005258 l -4.725261266215748 -0.5103558431083233 a25.75274206333498,25.75274206333498 0 0,0 0.05139468233638078,-0.4403182520545307 l 4.715776230875778 0.5916178334877157" fill="#ff2d04" stroke="none" /><path d="M 79.16333360222342 97.38593545837743 l -7.337396409127438 -0.920513263243272 a28.394912489846178,28.394912489846178 0 0,0 0.06501623804354707,-0.4844464916090952 l 7.320464172026057 1.0466780969170264" fill="#ff5207" stroke="none" /><path d="M 79.21141760316559 97.0276538004421 l -9.396542438583158 -1.3435152370255037 a30.492104244698012,30.492104244698012 0 0,0 0.07876271199568115,-0.5189478629565679 l 9.372023833148175 1.5050622123741637" fill="#ff6f0a" stroke="none" /><path d="M 79.26566170972629 96.67025291283419 l -10.289339006487893 -1.6523747276654634 a31.42117265143711,31.42117265143711 0 0,0 0.09035552977485549,-0.5332834514644869 l 10.259371615192814 1.829243967445778" fill="#ff7c0b" stroke="none" /><path d="M 79.54389044137918 95.25157060432595 l -61.3683286758625 -14.245288187022146 a84.0,84.0 0 0,0 0.3390687989567409,-1.4056590733624128 l 61.114027076644945 15.299532492043955" fill="#4dd2ff" stroke="none" /><path d="M 79.71946130924805 94.55025226153421 l -11.414528517406048 -3.0672903674769394 a32.81946409415811,32.81946409415811 0 0,0 0.15130277653508636,-0.5443165891353877 l 11.3600389703046 3.26331826003127" fill="#ff8f0d" stroke="none" /><path d="M 79.81627453868168 94.20196356495316 l -10.05203275232352 -2.8875765406120055 a31.45855920916823,31.45855920916823 0 0,0 0.15398830343165226,-0.5191720074853209 l 10.000838551780161 3.0601779348438654" fill="#ff7c0b" stroke="none" /><path d="M 80.14247586403 93.16781622104843 l -34.798703167912215 -11.972848864964845 a57.80079961239638,57.80079961239638 0 0,0 0.3317956342859018,-0.9380309382068812 l 34.5874544528165 12.570077429598339" fill="#49ff2c" stroke="none" /><path d="M 80.52162464483688 92.15188598940014 l -3.0422243938451166 -1.2257554058478382 a24.27987889676913,24.27987889676913 0 0,0 0.1595284158468363,-0.3863107126535509 l 3.0206742911120807 1.2779406889547003" fill="#ff1702" stroke="none" /><path d="M 80.65960295795068 91.81776055985345 l -10.328163916924616 -4.369481658604279 a32.21442552517706,32.21442552517706 0 0,0 0.2204529630975725,-0.5088358334929772 l 10.251420243984363 4.546616636683856" fill="#ff870c" stroke="none" /><path d="M 80.803312248108 91.48605970444005 l -7.058407286953621 -3.13048058079423 a28.721465022600942,28.721465022600942 0 0,0 0.20432953941879609,-0.4502130552025001 l 7.0034754305714735 3.251515644838801" fill="#ff5708" stroke="none" /><path d="M 81.26839172434947 90.50648371742162 l -26.349332732905754 -13.354316172631414 a50.54022843357823,50.54022843357823 0 0,0 0.39996710531398516,-0.7726091404939242 l 26.115556194431655 13.805898035385674" fill="#96ff23" stroke="none" /><line stroke="#e1ed5e" stroke-width="0.3" x1="26.266209847984243" x2="21.928928074336255" y1="57.711370442889674" y2="55.22380399835377" /><path d="M 25.398753493254645 57.213857153982495 a86.0,86.0 0 0,1 29.58750427330803,-30.492523968695096" fill="none" id="id95" stroke="none" /><text fill="#e1ed5e" style="font-size:6.75px; font-family:Arial;" text-anchor="middle"><textPath startOffset="21.46611528233685" xlink:href="#id95">November</textPath></text><path d="M 81.96595687620814 89.24020034530311 l -12.67061932606968 -7.5597759478338595 a35.75448428402761,35.75448428402761 0 0,0 0.31989060654250145,-0.5258160475842337 l 12.538612921240961 7.776759768625167" fill="#ffb610" stroke="none" /><path d="M 82.15384107792192 88.93136811851018 l -6.27304690233129 -3.8906997993459465 a28.381643608809544,28.381643608809544 0 0,0 0.2610738246859119,-0.4129560936385027 l 6.205145481399415 3.998103540698665" fill="#ff5207" stroke="none" /><path d="M 82.34701348167596 88.62581576622439 l -24.803798356080414 -15.981600161912066 a50.50660869405912,50.50660869405912 0 0,0 0.47717529055058316,-0.7267707046234848 l 24.52502643017191 16.406188930513217" fill="#96ff23" stroke="none" /><path d="M 82.54541684631803 88.32363383020206 l -8.117171292625828 -5.430038829410716 a30.76595061848753,30.76595061848753 0 0,0 0.29824737316036887,-0.43764121831997 l 8.02249945379672 5.568958071001101" fill="#ff730a" stroke="none" /><path d="M 82.7489923806493 88.02491185347247 l -6.1265122993291135 -4.252825483246321 a28.457927161402168,28.457927161402168 0 0,0 0.28280048881547976,-0.40000123588258074 l 6.052399190709755 4.357653219460688" fill="#ff5307" stroke="none" /><path d="M 82.95767976084542 87.72973835380427 l -20.842105304835158 -15.006060310986028 a46.68219615988453,46.68219615988453 0 0,0 0.47513003092094364,-0.6480768282143043 l 20.58071266140058 15.362599582871832" fill="#c2ff1e" stroke="none" /><path d="M 83.17141714833178 87.43820079747576 l -8.355685815231865 -6.237153082674325 a31.426867411623725,31.426867411623725 0 0,0 0.32732438220519017,-0.43072051844922593 l 8.247085492802567 6.380058377004578" fill="#ff7c0b" stroke="none" /><path d="M 83.39014120810768 87.1503855733568 l -5.859634573787494 -4.533093622141445 a28.408390859385403,28.408390859385403 0 0,0 0.3025438425044323,-0.38419995617238906 l 5.78073665068909 4.633285972266882" fill="#ff5207" stroke="none" /><path d="M 83.6137871275137 86.86637796730984 l -5.771152870734402 -4.625604530279715 a28.396108620614637,28.396108620614637 0 0,0 0.3089787447129997,-0.3787714069601221 l 5.690675633945009 4.72426010684792" fill="#ff5207" stroke="none" /><path d="M 83.84228863543731 86.58626213691792 l -28.37903437651438 -23.559582130477157 a57.8839192915569,57.8839192915569 0 0,0 0.6430335247851487,-0.7611488701311431 l 27.969290238242106 24.044589950237416" fill="#48ff2c" stroke="none" /><path d="M 84.07557802195018 86.31012108654704 l -3.369550788650468 -2.896729460757734 a25.443524961797422,25.443524961797422 0 0,0 0.2883698076270488,-0.32965653987938975 l 3.3191891174455757 2.9543015568400666" fill="#ff2803" stroke="none" /><path d="M 84.5562425177563 85.77008943001954 l -14.404366565253222 -13.272213596751657 a40.58666459364596,40.58666459364596 0 0,0 0.4778261799892366,-0.5097116533455831 l 14.17377306329353 13.518194666975289" fill="#fff316" stroke="none" /><path d="M 84.80347519578584 85.50635884689758 l -2.397738883110392 -2.2868364575699243 a24.313423114431725,24.313423114431725 0 0,0 0.2914551176004329,-0.300370118315372 l 2.3580195018068406 2.32777077143542" fill="#ff1802" stroke="none" /><path d="M 85.57189188830299 84.74124197986013 l -26.390273044876217 -27.90960445817056 a59.41083873589139,59.41083873589139 0 0,0 0.7491200816380579,-0.6962254738267408 l 25.905945079443303 28.35973451807195" fill="#39ff2e" stroke="none" /><path d="M 86.37877921826538 84.01681056812374 l -6.4556834999247386 -7.575122226188237 a30.95280494096471,30.95280494096471 0 0,0 0.4084922190172942,-0.34210048581966646 l 6.324333743948334 7.685123869401716" fill="#ff750a" stroke="none" /><path d="M 86.65592168130627 83.78471172551755 l -11.837428420590006 -14.38445651203345 a39.6289371881268,39.6289371881268 0 0,0 0.530455217242063,-0.42892456165542014 l 11.588069804783443 14.586087170953006" fill="#ffe715" stroke="none" /><path d="M 86.93701828274178 83.55741782278169 l -5.016668540930082 -6.3145602225815445 a29.064777371643103,29.064777371643103 0 0,0 0.3944054924979657,-0.3078397428509197 l 4.907230493272691 6.399978354655686" fill="#ff5b08" stroke="none" /><path d="M 87.22198572758235 83.33499621200491 l -4.522611201700752 -5.898360355619782 a28.432675626347233,28.432675626347233 0 0,0 0.39095449743084965,-0.2944588221281793 l 4.420410550511511 5.975335767253816" fill="#ff5307" stroke="none" /><path d="M 87.51073957382395 83.11751280151077 l -13.270312683979718 -17.938282681469563 a43.31329613237148,43.31329613237148 0 0,0 0.6031988722889366,-0.4382496335627882 l 12.959568495336999 18.16405154984902" fill="#eaff1a" stroke="none" /><path d="M 87.80319425747018 82.90503203632743 l -8.606739181244853 -12.063152736951645 a35.818758830921006,35.818758830921006 0 0,0 0.5049913861237375,-0.3537787378531381 l 8.397816655537454 12.209516317568726" fill="#ffb710" stroke="none" /><path d="M 88.70189139769569 82.29822771554957 l -8.512255494470205 -13.336923346571574 a36.821884146822214,36.821884146822214 0 0,0 0.5372152417216421,-0.33640413508187283 l 8.28142110037632 13.481471822976376" fill="#ffc412" stroke="none" /><path d="M 89.00827224532344 82.1063720568725 l -5.075370303375912 -8.262285048278025 a30.69663539251573,30.69663539251573 0 0,0 0.45261155985755963,-0.2726934005088742 l 4.932396677300703 8.34842505824552" fill="#ff720a" stroke="none" /><line stroke="#e1ed5e" stroke-width="0.3" x1="56.762969772571076" x2="54.21961505331055" y1="26.818313649435495" y2="22.513508569990535" /><path d="M 56.25429882871897 25.957352633546506 a86.0,86.0 0 0,1 42.265352541879196,-11.944610805530505" fill="none" id="id96" stroke="none" /><text fill="#e1ed5e" style="font-size:6.75px; font-family:Arial;" text-anchor="middle"><textPath startOffset="22.20632615414155" xlink:href="#id96">December</textPath></text><path d="M 89.94658935756843 81.56283822128135 l -14.137045469937394 -25.926225802639237 a50.53007346737414,50.53007346737414 0 0,0 0.7672268678267092,-0.4098260220439678 l 13.68867355558238 26.165730551184954" fill="#96ff23" stroke="none" /><path d="M 90.58718382345135 81.22770947309562 l -8.57027079621607 -17.09197441692767 a40.12028062004802,40.12028062004802 0 0,0 0.620008754133826,-0.3042356029850116 l 8.274790775071818 17.23696518004751" fill="#ffed16" stroke="none" /><path d="M 91.23893434514133 80.91482961587045 l -3.9325337607126727 -8.566660703303883 a30.426160267292083,30.426160267292083 0 0,0 0.477861510597556,-0.21440253047642868 l 3.7844901316483424 8.633083564296841" fill="#ff6e0a" stroke="none" /><path d="M 91.90106846888425 80.62456947434976 l -12.008414709361206 -28.728259280933898 a52.13703430233148,52.13703430233148 0 0,0 0.8310050653721078,-0.3389878314598471 l 11.512125774400717 28.930707998577322" fill="#84ff25" stroke="none" /><path d="M 92.57280143429618 80.3572730644239 l -2.621472985618352 -6.933014860174426 a28.41207229226255,28.41207229226255 0 0,0 0.4589465277601392,-0.16903387938313402 l 2.5017441320856433 6.977112007363883" fill="#ff5207" stroke="none" /><path d="M 92.91201910852362 80.23233633223022 l -7.474266284470359 -20.844974660193564 a43.144471659429634,43.144471659429634 0 0,0 0.7012373620259479,-0.24464794645431687 l 7.114346918381126 20.970543459820092" fill="#ecff1a" stroke="none" /><path d="M 93.25333710446033 80.11325718540243 l -6.17305283086638 -18.19594604460276 a40.2145526544534,40.2145526544534 0 0,0 0.6574450820052842,-0.21674930693040573 l 5.858924926618687 18.299509075792397" fill="#ffef16" stroke="none" /><path d="M 93.59665428221793 80.00007090966166 l -6.203446130569676 -19.375571489540132 a41.34442219482186,41.34442219482186 0 0,0 0.6796523475464621,-0.21117129276078678 l 5.869008410312486 19.479482917183443" fill="#fffd17" stroke="none" /><path d="M 94.63758080256005 79.69619591428918 l -3.371702566649408 -12.766325389335535 a34.20406915099824,34.20406915099824 0 0,0 0.5705419711618239,-0.14544385209605515 l 3.1514517068025847 12.822472237600453" fill="#ffa10e" stroke="none" /><path d="M 95.33964822691252 79.52364482259891 l -3.9335706537654342 -17.28307083749209 a38.7250533331196,38.7250533331196 0 0,0 0.6512397305778157,-0.1423357810873543 l 3.6354881990340977 17.34822011667531" fill="#ffdc14" stroke="none" /><path d="M 95.692805502759 79.44645832069477 l -3.028591064844521 -14.452162009569498 a35.76608785660237,35.76608785660237 0 0,0 0.60365252087283,-0.1210870168190164 l 2.7793721345045546 14.502152982465725" fill="#ffb610" stroke="none" /><path d="M 96.04723909329186 79.375362276772 l -3.336893754711963 -17.41117827163279 a38.72805654144902,38.72805654144902 0 0,0 0.6558040883972515,-0.1198440053603589 l 3.036694545211818 17.466037758343884" fill="#ffdc14" stroke="none" /><path d="M 97.47563105711357 79.15227682838746 l -2.151023636817985 -17.764418090447943 a38.89417371041155,38.89417371041155 0 0,0 0.6653372493455622,-0.0747583922556989 l 1.844919683962705 17.79881243617424" fill="#ffde14" stroke="none" /><path d="M 97.83486435360386 79.11191278185805 l -0.5544427735698023 -5.348971567241746 a26.37762992556427,26.37762992556427 0 0,0 0.4520307722439629,-0.04292576855648751 l 0.46228687423560305 5.357722880313414" fill="#ff3505" stroke="none" /><path d="M 98.19473922651362 79.07773832637324 l -0.900491455076395 -10.436341460845124 a31.47511851713481,31.47511851713481 0 0,0 0.5401876906932689,-0.041928961338282146 l 0.720713575020792 10.45029568437187" fill="#ff7d0b" stroke="none" /><path d="M 99.63851952072746 79.00311137660856 l -0.8385999537531806 -48.71076265023172 a69.71798074478913,69.71798074478913 0 0,0 1.2000804330257044,-0.010329471165966407 l 1.193246383600568e-14 48.71798074478913" fill="#3bff9c" stroke="none" /></svg>