<?xml version="1.0" encoding="utf-8" ?>
<svg baseProfile="full" height="200mm" version="1.1" viewBox="0,0,200,200" width="200mm" xmlns="http://www.w3.org/2000/svg" xmlns:ev="http://www.w3.org/2001/xml-events" xmlns:xlink="http://www.w3.org/1999/xlink"><defs /><rect fill="#1a1a1a" height="200" width="200" x="0" y="0" /><text alignment-baseline="middle" fill="#e1ed5e" style="dominant-baseline: central; font-size:9.0px; font-family:Arial;" text-anchor="middle" x="100.0" y="100.0">2025</text><line stroke="#e1ed5e" stroke-width="0.3" x1="100.0" x2="100.0" y1="15.0" y2="10.0" /><path d="M 100.0 14.0 a86.0,86.0 0 0,1 42.46469731375804,11.215312516191453" fill="none" id="id109" stroke="none" /><text fill="#e1ed5e" style="font-size:6.75px; font-family:Arial;" text-anchor="middle"><textPath startOffset="22.20632615414155" xlink:href="#id109">January</textPath></text><path d="M 100.0 79.0 l 0.0 -14.265121238350787 a35.26512123835079,35.26512123835079 0 0,0 0.6070310917544219,0.005224908253285581 l -0.2455506124818936 14.26300770670606" fill="#ff950d" stroke="none" /><path d="M 100.36148047927253 79.00311137660856 l 0.10882087900901344 -6.320949560125964 a27.321886215787572,27.321886215787572 0 0,0 0.47016199783914836,0.012142897291178302 l -0.21760951204302958 6.318139870692426" fill="#ff2103" stroke="none" /><path d="M 101.08401301168833 79.027996857942 l 2.294475204983923 -44.39037233819864 a65.44963186338214,65.44963186338214 0 0,0 1.1246052888468792,0.06783926218707169 l -3.0582425426704143 44.34429980663126" fill="#35ff63" stroke="none" /><path d="M 101.80526077348638 79.07773832637324 l 1.813691536125785 -21.01997089361347 a42.09807226636054,42.09807226636054 0 0,0 0.7214304003143912,0.0685085093649309 l -2.17524706353042 20.98563683973336" fill="#fff016" stroke="none" /><path d="M 102.52436894288641 79.15227682838746 l 1.106473529037237 -9.13790905845553 a30.204654563375193,30.204654563375193 0 0,0 0.5156154186418229,0.06694167960130915 l -1.2636036761869058 9.117509055690086" fill="#ff4c07" stroke="none" /><path d="M 103.2404852339499 79.25152402106235 l 3.251090383339868 -20.816379601847384 a42.06872678661083,42.06872678661083 0 0,0 0.7145088657003453,0.11790008498876012 l -3.6089284551790883 20.757333253918997" fill="#fff016" stroke="none" /><path d="M 103.59715602781102 79.31037775812273 l 1.5521500104701507 -8.927440770172868 a30.061366804182867,30.061366804182867 0 0,0 0.5090461286610821,0.09302492627184339 l -1.7055912602341337 8.899400362550287" fill="#ff4a06" stroke="none" /><path d="M 107.08798089147638 80.2323363322302 l 2.468092581204565 -6.883261226739471 a28.31237075816947,28.31237075816947 0 0,0 0.45733602668813167,0.16844071824673632 l -2.586210933665273 6.83975724068641" fill="#ff3004" stroke="none" /><path d="M 107.76421540070413 80.48803036053334 l 2.3595067431712455 -5.929591280105259 a27.381796363107405,27.381796363107405 0 0,0 0.4364347105894322,0.17803267667239886 l -2.461225323349065 5.8880977172492805" fill="#ff2203" stroke="none" /><path d="M 108.43124777332544 80.76684994638697 l 9.126011425028718 -20.818027396119952 a43.7304718207818,43.7304718207818 0 0,0 0.6868138844942104,0.308153369828354 l -9.483007427989708 20.657853695775067" fill="#f9ff18" stroke="none" /><path d="M 109.08828744355905 81.06846463323043 l 3.759939425438127 -7.832215546839906 a29.687965518757814,29.687965518757814 0 0,0 0.45879037308764103,0.22512644356939132 l -3.8942010655362 7.766333943135684" fill="#ff4506" stroke="none" /><path d="M 109.41281617654863 81.2277094730956 l 5.1604176093814305 -10.291591462798737 a32.512895584533275,32.512895584533275 0 0,0 0.49812777011644943,0.2551603912412038 l -5.336805867086635 10.201238546245031" fill="#ff6e0a" stroke="none" /><path d="M 109.73455568895987 81.39251694778311 l 25.45965922080084 -48.66582436870195 a75.92318917474343,75.92318917474343 0 0,0 1.1527849977016689,0.6157778222995494 l -26.29358926503082 48.220367819900645" fill="#42ffdb" stroke="none" /><path d="M 110.36928655335952 81.73862282372117 l 16.26622419101577 -28.646489192625452 a53.9425468428838,53.9425468428838 0 0,0 0.8034954719807686,0.46543643941538354 l -16.756916395461865 28.36224859582002" fill="#7eff26" stroke="none" /><line stroke="#e1ed5e" stroke-width="0.3" x1="143.23703022742887" x2="145.7803849466894" y1="26.81831364943548" y2="22.513508569990506" /><path d="M 143.74570117128098 25.957352633546492 a86.0,86.0 0 0,1 28.547481713284135,27.462654790039103" fill="none" id="id110" stroke="none" /><text fill="#e1ed5e" style="font-size:6.75px; font-family:Arial;" text-anchor="middle"><textPath startOffset="19.985693538727396" xlink:href="#id110">February</textPath></text><path d="M 111.2981086023043 82.29822771554956 l 3.77674706413828 -5.917372443358104 a28.019908476603593,28.019908476603593 0 0,0 0.40433124775797363,0.26298829074714897 l -3.8780453376805335 5.851485228451427" fill="#ff2c04" stroke="none" /><path d="M 111.90073688211348 82.69761687909136 l 3.5954856405659705 -5.227446894679178 a27.34458178513029,27.34458178513029 0 0,0 0.3855180556040562,0.27008003478653436 l -3.6849348357536775 5.164782017128708" fill="#ff2203" stroke="none" /><path d="M 113.06298171725822 83.55741782278167 l 27.853425169368258 -35.05954782584388 a65.77706095109673,65.77706095109673 0 0,0 0.8804622993223624,0.7119392806699998 l -28.45279086725511 34.57490244790975" fill="#35ff67" stroke="none" /><path d="M 113.6212207817346 84.01681056812373 l 7.618510761102863 -8.939587914673549 a32.745549723244864,32.745549723244864 0 0,0 0.42585774743518606,0.3692996421038657 l -7.771262307184813 8.807123279150012" fill="#ff710a" stroke="none" /><path d="M 114.16331599549186 84.49514656593476 l 7.134942154847484 -7.810757904904181 a31.579004613007918,31.579004613007918 0 0,0 0.39818435519669815,0.37006896245662 l -7.268334393839028 7.68678435637292" fill="#ff6008" stroke="none" /><path d="M 114.42810811169701 84.74124197986012 l 14.50772149583399 -15.34295487771165 a42.11587666615287,42.11587666615287 0 0,0 0.5224710276897898,0.5026167146843251 l -14.7696757671362 15.090955076265022" fill="#fff116" stroke="none" /><path d="M 114.94478906791727 85.2469230424477 l 23.637653793949333 -23.334429407688653 a54.21497061062996,54.21497061062996 0 0,0 0.6498974069038684,0.6697764054093187 l -24.035815464556308 22.92408880672922" fill="#7bff26" stroke="none" /><path d="M 115.4437574822437 85.77008943001954 l 12.875157560355111 -11.863197208898656 a38.50728791735574,38.50728791735574 0 0,0 0.4449542045607458,0.49132954606021156 l -13.077455405531893 11.639814875568895" fill="#ffc111" stroke="none" /><path d="M 115.68641384162765 86.03803664274999 l 15.190176817908617 -13.520279030186696 a41.33566858535599,41.33566858535599 0 0,0 0.4684869260840125,0.5355615426678985 l -15.420655607570477 13.256801931315849" fill="#ffe715" stroke="none" /><path d="M 115.9244219780498 86.31012108654704 l 6.432716549349536 -5.530066382726238 a29.483011045709787,29.483011045709787 0 0,0 0.32752731235267535,0.3876890303932835 l -6.526954475189329 5.418518402703848" fill="#ff4206" stroke="none" /><path d="M 116.15771136456269 86.58626213691792 l 4.850140426114171 -4.026468279271275 a27.303674242614758,27.303674242614758 0 0,0 0.29709193982342796,0.36419958967714 l -4.918730858014008 3.942384519986034" fill="#ff2103" stroke="none" /><path d="M 116.38621287248628 86.86637796730983 l 8.232852394940215 -6.598667577889625 a31.550937037077066,31.550937037077066 0 0,0 0.33601134865614535,0.4267002903066035 l -8.345217824190325 6.455974893629983" fill="#ff6008" stroke="none" /><path d="M 116.60985879189232 87.15038557335679 l 42.29723080772868 -32.72171750547002 a74.47678496796583,74.47678496796583 0 0,0 0.7757078460594858,1.0207405979626265 l -42.854214594012284 31.98879213162636" fill="#41ffcb" stroke="none" /><path d="M 116.82858285166822 87.43820079747576 l 13.80544425443565 -10.30515879765072 a38.22749514314627,38.22749514314627 0 0,0 0.38907833057352953,0.5307024056472718 l -13.980785197522806 10.065993948331954" fill="#ffbd11" stroke="none" /><path d="M 117.04232023915458 87.72973835380427 l 18.235419866462024 -13.12927875135531 a43.47016907450738,43.47016907450738 0 0,0 0.43198455718291495,0.6110115208043333 l -18.45871704344882 12.813440730219183" fill="#fcff18" stroke="none" /><path d="M 117.2510076193507 88.02491185347247 l 24.222088919730254 -16.814185948270715 a50.48603806445253,50.48603806445253 0 0,0 0.4894153416780757,0.7181566232313696 l -24.50792872707706 16.39475130176894" fill="#a6ff21" stroke="none" /><path d="M 117.65298651832404 88.62581576622439 l 7.354344546590097 -4.73855626099013 a29.748731287937026,29.748731287937026 0 0,0 0.27364923483447345,0.43284737250224525 l -7.434821377670526 4.611261240773678" fill="#ff4606" stroke="none" /><line stroke="#e1ed5e" stroke-width="0.3" x1="172.23445277983987" x2="176.4835382374775" y1="55.19839476539836" y2="52.563006222186495" /><path d="M 173.08426987136738 54.67131705675599 a86.0,86.0 0 0,1 12.851231095245387,41.99856678651699" fill="none" id="id111" stroke="none" /><text fill="#e1ed5e" style="font-size:6.75px; font-family:Arial;" text-anchor="middle"><textPath startOffset="22.20632615414155" xlink:href="#id111">March</textPath></text><path d="M 117.84615892207809 88.93136811851018 l 17.943877676167386 -11.129239484596736 a42.114987983959765,42.114987983959765 0 0,0 0.37679718559769293,0.6193555009734906 l -18.132790660051302 10.818716210416163" fill="#fff116" stroke="none" /><path d="M 118.03404312379186 89.2402003453031 l 54.10212937137558 -32.279398964090696 a84.0,84.0 0 0,0 0.7301613021186908,1.2480823505844187 l -54.6497503479646 31.34333720115238" fill="#4dd2ff" stroke="none" /><path d="M 118.21658344932153 89.55222093294921 l 14.649523060464103 -8.401958621889397 a37.887907939795596,37.887907939795596 0 0,0 0.3195977799500261,0.5685287888524782 l -14.791978481706563 8.148546323102124" fill="#ffb911" stroke="none" /><path d="M 118.56541770881063 90.18545643968196 l 41.835157425026196 -22.116010603188663 a68.32122485499586,68.32122485499586 0 0,0 0.5406830040879481,1.0444274679541994 l -42.20964986227426 21.39261041297412" fill="#38ff85" stroke="none" /><path d="M 118.89224826269711 90.83032412892265 l 5.689829352223404 -2.761656008123094 a27.324626626499416,27.324626626499416 0 0,0 0.2017361649891481,0.42490781260351523 l -5.736523711054308 2.6633057798790385" fill="#ff2103" stroke="none" /><path d="M 119.04729006885535 91.15688171328212 l 29.351223316804067 -13.626943187827893 a53.36028261367925,53.36028261367925 0 0,0 0.37961440898403237,0.8364300303995591 l -29.58144004275145 13.11969114858627" fill="#85ff25" stroke="none" /><path d="M 119.196687751892 91.48605970444005 l 39.17316074135128 -17.373723845008957 a63.85303726354036,63.85303726354036 0 0,0 0.43696545997772573,1.0085765276695173 l -39.46641691117169 16.696848172752837" fill="#33ff4f" stroke="none" /><path d="M 119.61058180528143 92.48833698450437 l 23.841575166700654 -9.132308270559971 a46.5307610693057,46.5307610693057 0 0,0 0.2800606996517833,0.7504234376471467 l -23.995240454854063 8.720561695883491" fill="#d6ff1c" stroke="none" /><path d="M 119.7369772167798 92.82701384747503 l 6.6396001972890275 -2.4130220018172897 a28.064486248913987,28.064486248913987 0 0,0 0.16109939790295455,0.45544969174988204 l -6.680152676001791 2.298374683640793" fill="#ff2d04" stroke="none" /><path d="M 119.85752413597 93.16781622104841 l 19.886274825558573 -6.842075747038629 a42.03040482173034,42.03040482173034 0 0,0 0.22949142670131645,0.6861501556168011 l -20.00110354603166 6.498752488499513" fill="#fff016" stroke="none" /><path d="M 119.97218684219823 93.5106431181261 l 7.956974240065729 -2.5853776530152177 a29.366457832666107,29.366457832666107 0 0,0 0.15206863097403087,0.4820991166884391 l -8.000298354807965 2.448028369900359" fill="#ff4006" stroke="none" /><path d="M 120.08093135843002 93.85539295169968 l 45.20650154265128 -13.832833898481663 a68.27552300491996,68.27552300491996 0 0,0 0.3342057684057181,1.126775708476977 l -45.4379132081687 13.052628803258155" fill="#38ff85" stroke="none" /><path d="M 120.28053869075195 94.5502522615342 l 20.41734970453756 -5.486511333572634 a42.14166444655673,42.14166444655673 0 0,0 0.18221989108753342,0.7021675725319584 l -20.508765927495396 5.134247335491825" fill="#fff116" stroke="none" /><path d="M 120.37134235888165 94.90015583598534 l 20.402648875344806 -5.107681563851515 a42.0322726325121,42.0322726325121 0 0,0 0.1696646690348498,0.7033695880944248 l -20.487546344640478 4.755726744097684" fill="#fff016" stroke="none" /><path d="M 120.53481517161879 95.60439243477599 l 20.57943767349411 -4.405159295063469 a42.04563335640229,42.04563335640229 0 0,0 0.14539921419246793,0.709018205882368 l -20.652216183601574 4.05026543301769" fill="#fff016" stroke="none" /><path d="M 120.6074358757038 95.95851677861258 l 4.055095691064547 -0.7952760981719234 a25.132343782408938,25.132343782408938 0 0,0 0.07960284062549902,0.42524155764939764 l -4.068184255599904 0.7253564630599629" fill="#ff0000" stroke="none" /><path d="M 120.73433829027371 96.67025291283417 l 10.908746421219172 -1.7518459529390515 a32.048516313301576,32.048516313301576 0 0,0 0.08278300638147935,0.5454365798519437 l -10.937285321039953 1.5638102606950255" fill="#ff6709" stroke="none" /><path d="M 120.78858239683441 97.02765380044208 l 20.808583955093003 -2.9752060172472707 a42.02020497191258,42.02020497191258 0 0,0 0.09621426549806479,0.7169080335294986 l -20.8567142196489 2.6165796416531077" fill="#ffef16" stroke="none" /><path d="M 120.83666639777658 97.38593545837742 l 27.111099405441074 -3.401223702834288 a48.323616774659044,48.323616774659044 0 0,0 0.09643932002932427,0.8262331995110245 l -27.165629078473987 2.9340467649984108" fill="#c0ff1e" stroke="none" /><path d="M 120.91429891909075 98.10471618934814 l 49.900996321837084 -4.522099967589434 a71.10547696638433,71.10547696638433 0 0,0 0.09997266241397733,1.2199197029186588 l -49.971443468070554 3.6624663474630066" fill="#3cffa5" stroke="none" /><path d="M 120.94382443527127 98.46500227214037 l 7.664412212627242 -0.5617338594545023 a28.684969713273258,28.684969713273258 0 0,0 0.03185316860808443,0.4927544198209304 l -7.6729459722397415 0.42972037538053665" fill="#ff3605" stroke="none" /><path d="M 120.98425023603335 99.18683210126433 l 17.67300278592994 -0.6848526098448218 a38.6862672876076,38.6862672876076 0 0,0 0.020058471361812137,0.6656430121765874 l -17.682172951747397 0.3805394502432354" fill="#ffc312" stroke="none" /><line stroke="#e1ed5e" stroke-width="0.3" x1="184.98032266829074" x2="189.97916517819016" y1="98.17113171792111" y2="98.06355123074" /><path d="M 185.9800911702706 98.14961562048488 a86.0,86.0 0 0,1 -9.607161424134198,41.387399972396054" fill="none" id="id112" stroke="none" /><text fill="#e1ed5e" style="font-size:6.75px; font-family:Arial;" text-anchor="middle"><textPath startOffset="21.466115282336823" xlink:href="#id112">April</textPath></text><path d="M 120.99980553446 99.90962569577887 l 30.120184460143705 -0.12962456767186342 a51.12046338358071,51.12046338358071 0 0,0 -0.0037870592117951653,0.8799791896666677 l -30.117953103642407 -0.388864100198489" fill="#9fff22" stroke="none" /><path d="M 120.9904718944345 100.63252640178507 l 52.53396886746186 1.5830574208307846 a73.5578153633225,73.5578153633225 0 0,0 -0.04903107272435776,1.2652741223416566 l -52.49893566188629 -2.487108790186447" fill="#3fffc1" stroke="none" /><path d="M 120.9764740272857 100.99374915477107 l 25.029351001850902 1.1857520177224992 a46.05742244169156,46.05742244169156 0 0,0 -0.04433278934577079,0.7915917348520995 l -25.005231861617602 -1.6164154689100219" fill="#dbff1b" stroke="none" /><path d="M 120.92983693683757 101.71520430193887 l 6.253711093849079 0.5124928686077714 a27.274675400823924,27.274675400823924 0 0,0 -0.042373680779219165,0.46759003645681374 l -6.243962816792784 -0.6200642936131557" fill="#ff2103" stroke="none" /><path d="M 120.8583938346157 102.4346265915055 l 10.40507557228959 1.2144978120453331 a31.475714896870784,31.475714896870784 0 0,0 -0.06744569836836593,0.5376085764104434 l -10.382628364674376 -1.3934241427431715" fill="#ff5f08" stroke="none" /><path d="M 120.5718875245553 104.21870165774334 l 10.478787503541826 2.1488975262753724 a31.696856927285545,31.696856927285545 0 0,0 -0.11420824518175504,0.5335428996065863 l -10.440245219635628 -2.3289542452981276" fill="#ff6209" stroke="none" /><path d="M 120.49622156327973 104.57218783832717 l 4.289752590700566 0.9569351387073458 a25.395190797805604,25.395190797805604 0 0,0 -0.09884707256658394,0.4258306015486027 l -4.272644952203429 -1.0306343976045134" fill="#ff0400" stroke="none" /><path d="M 120.41448212921028 104.9243191809786 l 6.455506967800509 1.5571777223285743 a27.640660559781484,27.640660559781484 0 0,0 -0.11554939345521732,0.4615623885229408 l -6.42774626005023 -1.668067950248911" fill="#ff2603" stroke="none" /><path d="M 120.32669344350535 105.2749913415812 l 5.0202707110408475 1.3028132001270238 a26.186563433195413,26.186563433195413 0 0,0 -0.1169815185555303,0.4353317487381982 l -4.99710111614354 -1.3890358820407702" fill="#ff1001" stroke="none" /><path d="M 120.13307415673323 105.97154293290107 l 21.665661155630065 6.426113804248002 a43.59857986546332,43.59857986546332 0 0,0 -0.2195982145961521,0.7176596711678872 l -21.55183616852778 -6.798100447967947" fill="#faff18" stroke="none" /><path d="M 119.67450827220406 107.3425965602758 l 6.204133060489412 2.31540455492866 a27.622111844815226,27.622111844815226 0 0,0 -0.17008081291631252,0.44402733300517583 l -6.163357967979594 -2.4218554547669795" fill="#ff2603" stroke="none" /><path d="M 119.54520255179757 107.68017299344265 l 7.79689016056533 3.0637423728568765 a29.377231852059435,29.377231852059435 0 0,0 -0.18898986778893764,0.46905735290589345 l -7.742997678519 -3.197499093605584" fill="#ff4006" stroke="none" /><path d="M 119.41010516605496 108.01547362559984 l 26.887029398211666 11.103096720412832 a50.08936414985966,50.08936414985966 0 0,0 -0.33595418062899385,0.7940964437462997 l -26.691924236390363 -11.564267689825297" fill="#abff21" stroke="none" /><line stroke="#e1ed5e" stroke-width="0.3" x1="174.80103733775053" x2="179.2010983576182" y1="140.37084112569926" y2="142.7455964860345" /><path d="M 175.68104954172406 140.8457921977663 a86.0,86.0 0 0,1 -30.038265399797805,32.042727171017184" fill="none" id="id113" stroke="none" /><text fill="#e1ed5e" style="font-size:6.75px; font-family:Arial;" text-anchor="middle"><textPath startOffset="22.206326154141568" xlink:href="#id113">May</textPath></text><line stroke="#e1ed5e" stroke-width="0.3" x1="143.8653032363475" x2="146.44561519142675" y1="172.8068346515853" y2="177.08958963109032" /><path d="M 144.38136562736335 173.6633856474863 a86.0,86.0 0 0,1 -40.68145358897372,12.25698825130547" fill="none" id="id114" stroke="none" /><text fill="#e1ed5e" style="font-size:6.75px; font-family:Arial;" text-anchor="middle"><textPath startOffset="21.466115282336833" xlink:href="#id114">June</textPath></text><line stroke="#e1ed5e" stroke-width="0.3" x1="102.19456741930631" x2="102.32365962044197" y1="184.97166512339345" y2="189.96999836594603" /><path d="M 102.22038585953345 185.97133177190398 a86.0,86.0 0 0,1 -42.740103519485714,-10.115201625700543" fill="none" id="id115" stroke="none" /><text fill="#e1ed5e" style="font-size:6.75px; font-family:Arial;" text-anchor="middle"><textPath startOffset="22.20632615414155" xlink:href="#id115">July</textPath></text><line stroke="#e1ed5e" stroke-width="0.3" x1="58.666819895761336" x2="56.23545636021788" y1="174.27360380694188" y2="178.64263932499728" /><path d="M 58.180547188652646 175.14741091055294 a86.0,86.0 0 0,1 -31.652253787137756,-30.449443065178592" fill="none" id="id116" stroke="none" /><text fill="#e1ed5e" style="font-size:6.75px; font-family:Arial;" text-anchor="middle"><textPath startOffset="22.20632615414155" xlink:href="#id116">August</textPath></text><line stroke="#e1ed5e" stroke-width="0.3" x1="26.63291911575756" x2="22.317208475507996" y1="142.92168965132927" y2="145.44649492493687" /><path d="M 25.769776987707644 143.4266507060508 a86.0,86.0 0 0,1 -11.730757126820373,-40.83630448921669" fill="none" id="id117" stroke="none" /><text fill="#e1ed5e" style="font-size:6.75px; font-family:Arial;" text-anchor="middle"><textPath startOffset="21.46611528233685" xlink:href="#id117">September</textPath></text><line stroke="#e1ed5e" stroke-width="0.3" x1="15.007084014347285" x2="10.007500721073583" y1="101.09737516637583" y2="101.16192664675087" /><path d="M 14.007167355692545 101.11028546245083 a86.0,86.0 0 0,1 10.666146001902534,-42.60595125391555" fill="none" id="id118" stroke="none" /><text fill="#e1ed5e" style="font-size:6.75px; font-family:Arial;" text-anchor="middle"><textPath startOffset="22.20632615414155" xlink:href="#id118">October</textPath></text><line stroke="#e1ed5e" stroke-width="0.3" x1="26.266209847984243" x2="21.928928074336255" y1="57.711370442889674" y2="55.22380399835377" /><path d="M 25.398753493254645 57.213857153982495 a86.0,86.0 0 0,1 29.58750427330803,-30.492523968695096" fill="none" id="id119" stroke="none" /><text fill="#e1ed5e" style="font-size:6.75px; font-family:Arial;" text-anchor="middle"><textPath startOffset="21.46611528233685" xlink:href="#id119">November</textPath></text><line stroke="#e1ed5e" stroke-width="0.3" x1="56.762969772571076" x2="54.21961505331055" y1="26.818313649435495" y2="22.513508569990535" /><path d="M 56.25429882871897 25.957352633546506 a86.0,86.0 0 0,1 42.265352541879196,-11.944610805530505" fill="none" id="id120" stroke="none" /><text fill="#e1ed5e" style="font-size:6.75px; font-family:Arial;" text-anchor="middle"><textPath startOffset="22.20632615414155" xlink:href="#id120">December</textPath></text></svg>