<?xml version="1.0" encoding="utf-8" ?>
<svg baseProfile="full" height="200mm" version="1.1" viewBox="0,0,200,200" width="200mm" xmlns="http://www.w3.org/2000/svg" xmlns:ev="http://www.w3.org/2001/xml-events" xmlns:xlink="http://www.w3.org/1999/xlink"><defs /><rect fill="#1a1a1a" height="200" width="200" x="0" y="0" /><text alignment-baseline="middle" fill="#e1ed5e" style="dominant-baseline: central; font-size:9.0px; font-family:Arial;" text-anchor="middle" x="100.0" y="100.0">2016</text><line stroke="#e1ed5e" stroke-width="0.3" x1="100.0" x2="100.0" y1="15.0" y2="10.0" /><path d="M 100.0 14.0 a86.0,86.0 0 0,1 42.35913384403234,11.155469271406648" fill="none" id="id1" stroke="none" /><text fill="#e1ed5e" style="font-size:6.75px; font-family:Arial;" text-anchor="middle"><textPath startOffset="22.145653131862478" xlink:href="#id1">January</textPath></text><line stroke="#e1ed5e" stroke-width="0.3" x1="143.13028292997686" x2="145.6673583964461" y1="26.7553504044142" y2="22.446841604673864" /><path d="M 143.63769802327073 25.89364864446614 a86.0,86.0 0 0,1 29.32050498858742,28.57503671076993" fill="none" id="id2" stroke="none" /><text fill="#e1ed5e" style="font-size:6.75px; font-family:Arial;" text-anchor="middle"><textPath startOffset="20.669276256404974" xlink:href="#id2">February</textPath></text><line stroke="#e1ed5e" stroke-width="0.3" x1="172.87174338648825" x2="177.1583165268699" y1="56.24261187166439" y2="53.66864786411523" /><path d="M 173.72905801456457 55.72781907015455 a86.0,86.0 0 0,1 12.242430191666344,42.057860355516425" fill="none" id="id3" stroke="none" /><text fill="#e1ed5e" style="font-size:6.75px; font-family:Arial;" text-anchor="middle"><textPath startOffset="22.145653131862474" xlink:href="#id3">March</textPath></text><line stroke="#e1ed5e" stroke-width="0.3" x1="184.99686870605535" x2="189.99668451229388" y1="99.2704041080226" y2="99.22748670261217" /><path d="M 185.99683186730306 99.26182062694052 a86.0,86.0 0 0,1 -10.086455211305974,41.156179273409016" fill="none" id="id4" stroke="none" /><text fill="#e1ed5e" style="font-size:6.75px; font-family:Arial;" text-anchor="middle"><textPath startOffset="21.40746469413373" xlink:href="#id4">April</textPath></text><path d="M 119.0197475246899 108.90220220490707 l 21.723932582035523 10.167897354052931 a44.985732914200916,44.985732914200916 0 0,0 -0.333367292253579,0.6966094251969769 l -21.54618603182203 -10.539319281315011" fill="#e9ff1a" stroke="none" /><path d="M 118.8641267826498 109.22738970284198 l 22.18150696124283 10.850086584232491 a45.692987465209754,45.692987465209754 0 0,0 -0.350704746917035,0.7016444216304486 l -21.991982301114064 -11.229262862026685" fill="#e0ff1b" stroke="none" /><path d="M 118.70294669586154 109.54985784667822 l 21.967401602856754 11.216711782352094 a45.66538782159222,45.66538782159222 0 0,0 -0.3624786512851925,0.6951006084410397 l -21.771614882596612 -11.592158633897636" fill="#e1ff1b" stroke="none" /><path d="M 118.5362547648365 109.86951160357373 l 27.303714774038696 14.537690229324982 a51.93278645169022,51.93278645169022 0 0,0 -0.4257366997662853,0.7833075758461183 l -27.05013272465707 -15.004252638645703" fill="#95ff23" stroke="none" /><line stroke="#e1ed5e" stroke-width="0.3" x1="174.33088141563837" x2="178.70328620479359" y1="141.23008692659167" y2="143.65538615756765" /><path d="M 175.20536237346943 141.71514677278685 a86.0,86.0 0 0,1 -30.301960400862466,31.631185727798858" fill="none" id="id5" stroke="none" /><text fill="#e1ed5e" style="font-size:6.75px; font-family:Arial;" text-anchor="middle"><textPath startOffset="22.145653131862474" xlink:href="#id5">May</textPath></text><path d="M 118.00360718960297 110.81064883170644 l 15.696777983284026 9.425464173898533 a39.309238486347674,39.309238486347674 0 0,0 -0.3523456179044367,0.5755300870457146 l -15.532664400924183 -9.693531377068805" fill="#ffcb13" stroke="none" /><path d="M 117.423217284605 111.72311816256416 l 29.477427402720707 19.833728692337537 a56.52879846158498,56.52879846158498 0 0,0 -0.5486261567604451,0.8004619586048239 l -29.132611509144944 -20.336825386012404" fill="#62ff29" stroke="none" /><path d="M 117.21940702142032 112.02048342749411 l 29.35570860117345 20.49256448284163 a56.80087745517463,56.80087745517463 0 0,0 -0.5649926519350443,0.7947329209149058 l -28.999600850708443 -20.99347463046604" fill="#5fff29" stroke="none" /><path d="M 117.01052211995028 112.31430620078461 l 25.0548665771715 18.13779122565791 a51.93098462295403,51.93098462295403 0 0,0 -0.528949177708245,0.7176211471922004 l -24.739815379879428 -18.56521868211899" fill="#95ff23" stroke="none" /><path d="M 116.79662413953412 112.60449989151573 l 23.811318464939294 17.868457287304555 a50.77013021246273,50.77013021246273 0 0,0 -0.529092505069617,0.6925990732337175 l -23.501073982515376 -18.27457727377915" fill="#a3ff22" stroke="none" /><path d="M 116.57777611688842 112.89097897827486 l 3.287813293472522 2.556623503165155 a25.164857739427735,25.164857739427735 0 0,0 -0.26810587830664234,0.33874301891240277 l -3.243440984524318 -2.6126864659922404" fill="#ff0000" stroke="none" /><path d="M 115.89218393027572 113.72728997021213 l 5.477689130696908 4.731497407383144 a28.238241908683936,28.238241908683936 0 0,0 -0.32001853083465576,0.3641223430983907 l -5.3956595359036665 -4.824832028292828" fill="#ff2f04" stroke="none" /><path d="M 115.6541949942343 113.99807769240083 l 15.644176546205758 13.989119134396887 a41.986560317622406,41.986560317622406 0 0,0 -0.4850493365141089,0.5331541889662497 l -15.401729508849769 -14.255610898920809" fill="#ffef16" stroke="none" /><path d="M 114.91283532996324 114.78537596483092 l 6.9721834758956405 6.912592522213061 a30.818109685662925,30.818109685662925 0 0,0 -0.3756992898024142,0.3724882040565211 l -6.852492265963261 -7.031260736498244" fill="#ff5507" stroke="none" /><path d="M 114.65682725009322 115.03919595460226 l 20.702868985414334 21.242967402247558 a50.66264398667427,50.66264398667427 0 0,0 -0.6280419127876956,0.601649945567786 l -20.335154586761327 -21.595229478120924" fill="#a4ff21" stroke="none" /><path d="M 113.59037401385872 116.0094264158162 l 19.155697774018513 22.565363811476878 a50.599601368157785,50.599601368157785 0 0,0 -0.6670127780896651,0.5564457826139192 l -18.765510661766953 -22.890871778002666" fill="#a5ff21" stroke="none" /><line stroke="#e1ed5e" stroke-width="0.3" x1="143.1302829299769" x2="145.66735839644613" y1="173.24464959558577" y2="177.55315839532614" /><path d="M 143.63769802327073 174.10635135553383 a86.0,86.0 0 0,1 -40.68552437913181,11.842963189579606" fill="none" id="id6" stroke="none" /><text fill="#e1ed5e" style="font-size:6.75px; font-family:Arial;" text-anchor="middle"><textPath startOffset="21.407464694133747" xlink:href="#id6">June</textPath></text><path d="M 110.34350942703117 118.27599006163325 l 31.03052828109348 54.82797018489977 a84.0,84.0 0 0,0 -1.2610232473756222,0.6994683382674252 l -30.084760845561767 -55.352571438600336" fill="#4dd2ff" stroke="none" /><path d="M 110.02825361518725 118.45085714620011 l 5.839889028568633 10.744738052156771 a33.229215006510515,33.229215006510515 0 0,0 -0.5035194217954729,0.2680957312618707 l -5.654580790986607 -10.84340425114121" fill="#ff780b" stroke="none" /><path d="M 107.407793817531 119.65005319985036 l 10.480410357856986 27.80053362187019 a50.710413509909465,50.710413509909465 0 0,0 -0.8171882883742133,0.3000828587282423 l -10.001632917828644 -27.976347329607155" fill="#a4ff21" stroke="none" /><path d="M 107.06938296918513 119.77432235084164 l 5.1718741723492085 14.466652533582309 a36.36334332045002,36.36334332045002 0 0,0 -0.5895956433218306,0.20509197047240843 l -4.922772756982356 -14.553302936623307" fill="#ffa30f" stroke="none" /><path d="M 105.69591212413111 120.21278271476187 l 4.800146763651599 17.03402746008092 a38.697443331266406,38.697443331266406 0 0,0 -0.6409376441376241,0.17469040503281527 l -4.5070277185792795 -17.113918359257877" fill="#ffc312" stroke="none" /><path d="M 101.44090949804482 120.95050786540614 l 2.0516494778104293 29.830533132197374 a50.90100286831405,50.90100286831405 0 0,0 -0.8722387316325907,0.0524717161351758 l -1.5392663940453732 -29.861356826157245" fill="#a1ff22" stroke="none" /><path d="M 101.08105385017728 120.97215588758144 l 0.33583703806732307 6.515148818920082 a27.523798789724708,27.523798789724708 0 0,0 -0.47206491878404305,0.02027249878291736 l -0.2239463586824504 -6.51995388612883" fill="#ff2403" stroke="none" /><line stroke="#e1ed5e" stroke-width="0.3" x1="101.45913802915013" x2="101.54496967792366" y1="184.9874750549273" y2="189.98673829345242" /><path d="M 101.47630435890484 185.9873277026323 a86.0,86.0 0 0,1 -42.54439059252881,-10.42667462771756" fill="none" id="id7" stroke="none" /><text fill="#e1ed5e" style="font-size:6.75px; font-family:Arial;" text-anchor="middle"><textPath startOffset="22.145653131862474" xlink:href="#id7">July</textPath></text><path d="M 96.76829788921471 120.74984581791261 l -2.629490191119604 16.883213295976443 a38.086752466827335,38.086752466827335 0 0,0 -0.6451578422904625,-0.1061604774375418 l 2.9189255364631297 -16.835586820043233" fill="#ffbb11" stroke="none" /><path d="M 96.41257539226777 120.69131181640829 l -2.539171373029069 14.64526572109739 a35.86375454934454,35.86375454934454 0 0,0 -0.6056965744334651,-0.11037809267625806 l 2.7902026810135916 -14.599519454489766" fill="#ff9d0e" stroke="none" /><path d="M 94.30408787586889 120.21278271476187 l -5.6623084030308215 20.09353496335607 a41.876107965199026,41.876107965199026 0 0,0 -0.6902378805990709,-0.20091818740773526 l 6.006406296011499 -19.993373081645817" fill="#ffed16" stroke="none" /><path d="M 91.59046798132341 119.24265499422711 l -10.930748602923055 25.011691938094195 a48.295897102429706,48.295897102429706 0 0,0 -0.7568348777844278,-0.3385226142819647 l 11.358496883563117 -24.820365572902375" fill="#c0ff1e" stroke="none" /><path d="M 91.26138138417905 119.09545874513695 l -5.582022728816815 12.197727057175676 a34.41430293031968,34.41430293031968 0 0,0 -0.5350789671902301,-0.25044397436594873 l 5.7905904098785355 -12.100106851239202" fill="#ff880c" stroke="none" /><path d="M 90.93487009805054 118.94263497670748 l -11.726823998898853 24.504551931402922 a48.165998351983546,48.165998351983546 0 0,0 -0.7427649952547585,-0.3633235796076733 l 12.14574924341568 -24.299634601698028" fill="#c2ff1e" stroke="none" /><path d="M 90.6110303473126 118.78422872680471 l -9.285099825314045 18.57641949241909 a41.767677769177155,41.767677769177155 0 0,0 -0.6385935401867406,-0.32607041177846874 l 9.60262058721437 -18.41429112896779" fill="#ffec16" stroke="none" /><path d="M 90.28995756902619 118.62028667847754 l -2.5011654930542293 4.7963146239634575 a26.409294112515138,26.409294112515138 0 0,0 -0.40017775018021057,-0.2130721118695449 l 2.583132059021002 -4.75267204437134" fill="#ff1302" stroke="none" /><line stroke="#e1ed5e" stroke-width="0.3" x1="58.13341422392154" x2="55.67067388415222" y1="173.97424548756322" y2="178.32567169271397" /><path d="M 57.64086615596768 174.84453072859336 a86.0,86.0 0 0,1 -31.369924170532247,-30.572349798747897" fill="none" id="id8" stroke="none" /><text fill="#e1ed5e" style="font-size:6.75px; font-family:Arial;" text-anchor="middle"><textPath startOffset="22.145653131862474" xlink:href="#id8">August</textPath></text><path d="M 81.99639281039703 110.81064883170644 l -11.037318158793775 6.627592426446826 a33.87429118474233,33.87429118474233 0 0,0 -0.29507135278136915,-0.5010956657820955 l 11.149463221704915 -6.437145592371172" fill="#ff810b" stroke="none" /><line stroke="#e1ed5e" stroke-width="0.3" x1="26.387840678322732" x2="22.057713659400548" y1="142.50000000000003" y2="145.00000000000006" /><path d="M 25.521815274538298 143.00000000000003 a86.0,86.0 0 0,1 -11.493303480769221,-40.785679425670985" fill="none" id="id9" stroke="none" /><text fill="#e1ed5e" style="font-size:6.75px; font-family:Arial;" text-anchor="middle"><textPath startOffset="21.40746469413373" xlink:href="#id9">September</textPath></text><path d="M 81.81346652052679 110.50000000000001 l -23.713234928070214 13.69084256907819 a48.38168513815636,48.38168513815636 0 0,0 -0.409093953551315,-0.722829817299643 l 23.944762246642906 -13.281755981679426" fill="#bfff1e" stroke="none" /><line stroke="#e1ed5e" stroke-width="0.3" x1="15.003131293944662" x2="10.003315487706104" y1="100.72959589197737" y2="100.7725132973878" /><path d="M 14.003168132696942 100.73817937305945 a86.0,86.0 0 0,1 10.791469493833604,-42.45332614584628" fill="none" id="id10" stroke="none" /><text fill="#e1ed5e" style="font-size:6.75px; font-family:Arial;" text-anchor="middle"><textPath startOffset="22.145653131862435" xlink:href="#id10">October</textPath></text><line stroke="#e1ed5e" stroke-width="0.3" x1="26.387840678322718" x2="22.05771365940052" y1="57.49999999999999" y2="54.99999999999999" /><path d="M 25.521815274538284 56.99999999999999 a86.0,86.0 0 0,1 29.574782752854787,-30.34633250058573" fill="none" id="id11" stroke="none" /><text fill="#e1ed5e" style="font-size:6.75px; font-family:Arial;" text-anchor="middle"><textPath startOffset="21.40746469413373" xlink:href="#id11">November</textPath></text><line stroke="#e1ed5e" stroke-width="0.3" x1="56.869717070023135" x2="54.33264160355391" y1="26.7553504044142" y2="22.446841604673864" /><path d="M 56.362301976729285 25.89364864446614 a86.0,86.0 0 0,1 42.16139366436587,-11.88097634709845" fill="none" id="id12" stroke="none" /><text fill="#e1ed5e" style="font-size:6.75px; font-family:Arial;" text-anchor="middle"><textPath startOffset="22.145653131862474" xlink:href="#id12">December</textPath></text><path d="M 93.27111125876988 80.10723608172694 l -3.8258836757596333 -11.310545272405218 a32.94009297533198,32.94009297533198 0 0,0 0.5372015649438054,-0.17658882457592315 l 3.631159373168067 11.37455501838317" fill="#ff730a" stroke="none" /><path d="M 94.6519064749342 79.69241777938228 l -2.2200387169682383 -8.429848611750376 a29.71727707038544,29.71727707038544 0 0,0 0.49443139562607213,-0.12568252730921606 l 2.075002028116788 8.466716370894856" fill="#ff4506" stroke="none" /></svg>